<svg xmlns="http://www.w3.org/2000/svg" width="75" height="39" fill="none" viewBox="0 0 75 39">
    <path fill="#000" d="M65.795 29.944l.104.228-.104-.228zm6.296-2.673c.048-.13-.017-.273-.146-.322l-2.108-.788c-.13-.048-.273.017-.322.146-.048.13.018.274.147.322l1.873.701-.7 1.873c-.05.13.017.274.146.322.13.049.273-.017.322-.146l.788-2.108zM5.897.94c-.034-.134-.17-.215-.304-.181-.134.033-.215.17-.181.303l.485-.122zm.16 2.426c.04.132.18.206.313.166.132-.041.205-.181.165-.313l-.478.147zm2.117 4.29c-.055-.128-.202-.186-.33-.131-.126.055-.184.202-.13.329l.46-.199zm1.68 4.476c.068.12.22.162.34.093.12-.068.162-.22.094-.34l-.435.247zm3.001 3.722c-.081-.112-.237-.136-.349-.055-.112.081-.136.238-.055.35l.404-.295zm2.622 3.999c.093.101.251.109.353.015.102-.093.11-.25.016-.353l-.37.338zm3.745 2.973c-.104-.092-.262-.081-.353.022-.091.104-.08.262.023.353l.33-.375zm3.43 3.33c.114.08.27.052.349-.06.08-.114.052-.27-.061-.35l-.287.41zm4.301 2.09c-.12-.066-.273-.021-.34.1-.066.12-.022.273.1.339l.24-.438zm4.069 2.513c.127.053.274-.007.327-.135.053-.127-.008-.273-.135-.326l-.192.461zm4.65 1.116c-.133-.04-.272.037-.31.169-.04.132.036.271.169.31l.14-.48zm4.515 1.575c.136.024.265-.066.29-.203.024-.135-.067-.265-.203-.29l-.087.493zm4.78.08c-.137-.009-.256.096-.266.233-.009.138.095.257.233.267l.033-.5zm4.75.553c.138-.006.245-.123.239-.26-.007-.138-.123-.245-.261-.24l.022.5zm4.682-.969c-.136.021-.23.15-.208.286.02.136.149.23.285.208l-.077-.494zm4.755-.504c.133-.036.212-.173.176-.306-.036-.134-.174-.212-.307-.176l.131.482zm4.359-1.969c-.129.05-.192.196-.142.324.05.129.196.192.324.142l-.182-.466zm3.901-1.158c.126-.058.181-.206.124-.331-.057-.126-.205-.181-.331-.124l.207.455zm2.824-1.836c-.126.057-.181.206-.124.331.057.126.205.181.331.124l-.207-.455zM5.412 1.061c.196.779.411 1.547.645 2.304l.478-.147C6.303 2.469 6.09 1.71 5.897.939l-.485.122zm2.303 6.792c.64 1.478 1.354 2.905 2.138 4.278l.435-.248c-.775-1.357-1.482-2.767-2.114-4.229l-.46.199zm4.736 8.294c.945 1.297 1.955 2.533 3.026 3.705l.37-.338c-1.06-1.158-2.058-2.38-2.992-3.661l-.404.294zm6.44 7.053c1.202 1.055 2.458 2.041 3.762 2.955l.287-.41c-1.289-.903-2.53-1.878-3.718-2.92l-.33.375zm7.821 5.484c1.398.769 2.837 1.461 4.31 2.074l.192-.461c-1.456-.606-2.879-1.291-4.26-2.051l-.242.438zm8.819 3.67c1.527.448 3.081.814 4.656 1.095l.087-.492c-1.556-.278-3.092-.64-4.602-1.084l-.141.48zm9.403 1.675c1.584.105 3.18.124 4.783.053l-.022-.5c-1.584.07-3.162.052-4.728-.052l-.033.499zm9.542-.422c1.562-.244 3.124-.575 4.678-.998l-.131-.482c-1.537.417-3.08.745-4.624.986l.077.494zm9.22-2.502c.737-.289 1.472-.6 2.203-.933l-.207-.455c-.723.33-1.45.637-2.18.923l.183.465zm2.203-.933l1.515-.69-.207-.455-1.515.69.207.455zm4.546-2.07l1.516-.69-.208-.456-1.515.69.207.455zm-4.65 1.842l.207.456-.207-.456zm6.53-2.585c.097-.259-.034-.547-.293-.644l-4.215-1.577c-.258-.096-.546.035-.643.293-.097.26.034.547.293.644l3.746 1.402-1.401 3.746c-.097.259.034.547.293.644.258.096.546-.035.643-.294l1.577-4.214zM6.14.879C6.072.61 5.8.447 5.532.514c-.267.067-.43.34-.363.607l.97-.244zm-.32 2.56c.08.264.36.412.624.33.264-.081.412-.361.33-.625l-.955.295zm2.584 4.116c-.11-.254-.404-.37-.657-.26-.254.11-.37.404-.26.657l.917-.397zm1.233 4.7c.137.24.443.323.682.186.24-.136.324-.442.187-.682l-.869.496zm3.421 3.45c-.162-.223-.475-.272-.698-.11-.223.163-.273.476-.11.7l.808-.59zm2.235 4.315c.187.204.503.218.707.032.204-.186.218-.502.032-.706l-.739.674zm4.095 2.617c-.208-.183-.524-.162-.706.045-.182.208-.162.524.046.706l.66-.751zm3.122 3.723c.226.159.538.104.697-.122.158-.226.103-.538-.123-.697l-.574.819zm4.565 1.667c-.242-.133-.546-.045-.68.197-.132.242-.044.546.198.68l.482-.877zm3.852 2.962c.255.106.548-.015.654-.27.106-.255-.015-.547-.27-.653l-.384.923zm4.816.645c-.265-.078-.543.074-.62.338-.078.265.074.543.338.621l.282-.96zm4.4 2.06c.272.05.532-.132.58-.404.05-.271-.132-.531-.404-.58l-.175.985zm4.842-.414c-.276-.018-.514.19-.532.466-.018.276.19.514.465.532l.067-.998zm4.744 1.052c.276-.012.49-.246.477-.522-.012-.275-.245-.49-.521-.477l.044 1zm4.632-1.466c-.272.043-.46.298-.416.571.042.273.298.46.57.417l-.154-.988zm4.86-.016c.266-.072.424-.347.351-.613-.072-.267-.347-.424-.613-.352l.262.965zm4.201-2.443c-.257.101-.383.391-.282.648.1.258.39.384.648.283l-.366-.93zm4.097-.698c.251-.114.362-.41.248-.662-.115-.251-.411-.362-.663-.248l.415.91zm2.616-2.29c-.251.114-.362.41-.248.662.115.251.411.362.663.248l-.415-.91zM5.17 1.122c.197.783.414 1.556.65 2.317l.955-.295c-.23-.744-.442-1.5-.635-2.266l-.97.244zm2.316 6.83c.644 1.487 1.363 2.922 2.151 4.303l.869-.496c-.77-1.349-1.473-2.751-2.102-4.204l-.918.397zm4.764 8.342c.95 1.304 1.967 2.547 3.043 3.726l.739-.674c-1.052-1.152-2.046-2.366-2.974-3.64l-.808.588zm6.478 7.094c1.208 1.061 2.471 2.053 3.782 2.972l.574-.819c-1.281-.898-2.515-1.867-3.696-2.904l-.66.751zm7.865 5.515c1.406.773 2.853 1.47 4.334 2.086l.384-.923c-1.448-.603-2.862-1.284-4.236-2.04l-.482.877zm8.868 3.69c1.537.451 3.1.82 4.683 1.102l.175-.985c-1.547-.275-3.074-.635-4.576-1.076l-.282.96zm9.457 1.685c1.593.106 3.2.125 4.81.054l-.043-.999c-1.575.07-3.143.05-4.7-.053l-.067.998zm9.598-.424c1.57-.245 3.141-.579 4.705-1.004l-.262-.965c-1.528.415-3.063.741-4.598.981l.155.988zm9.272-2.516c.741-.29 1.48-.604 2.215-.939l-.414-.91c-.719.328-1.441.634-2.167.918l.366.931zm2.215-.939l1.516-.69-.415-.91-1.515.69.414.91zm4.547-2.07l1.515-.69-.414-.91-1.516.69.415.91z"/>
</svg>
