<svg xmlns="http://www.w3.org/2000/svg" width="88" height="53" fill="none" viewBox="0 0 88 53">
    <path fill="#F40000" d="M48.455 39.403l.065.242-.065-.242zm34.692-23.508c-.026-.136-.157-.225-.292-.2l-2.21.421c-.136.026-.225.157-.2.293.026.135.157.224.293.199l1.964-.374.374 1.965c.026.135.157.224.292.198.136-.025.225-.156.2-.292l-.421-2.21zM4.553 25.407c-.1-.094-.259-.088-.353.013-.094.101-.088.26.013.353l.34-.366zm1.488 1.923c.108.087.265.07.352-.037.087-.107.07-.264-.037-.351l-.315.388zm4.153 2.49c-.113-.08-.27-.052-.348.061-.079.114-.051.27.062.349l.286-.41zm3.75 3.024c.119.072.272.033.343-.085.072-.118.033-.272-.085-.343l-.258.428zm4.444 1.89c-.123-.063-.274-.013-.336.11-.063.123-.013.273.11.336l.226-.446zm4.156 2.458c.127.052.273-.009.326-.137.052-.127-.009-.273-.136-.326l-.19.463zm4.682 1.156c-.132-.04-.272.033-.313.165-.04.132.033.272.165.313l.148-.478zm4.53 1.67c.135.027.266-.06.293-.196.027-.135-.06-.267-.196-.294l-.098.49zm4.819.174c-.138-.01-.259.092-.27.23-.01.137.092.258.23.269l.04-.499zm4.788.576c.138-.007.244-.125.237-.263-.007-.137-.124-.244-.262-.237l.025.5zm4.704-1.07c-.135.026-.224.157-.198.293.026.136.158.224.293.198l-.095-.49zm5.012-.803c.132-.042.204-.183.163-.314-.042-.132-.182-.205-.314-.163l.151.477zm4.808-2.292c-.127.053-.188.2-.135.327.053.127.2.188.327.135l-.192-.462zm5.018-1.79c.122-.064.17-.215.106-.338-.063-.122-.214-.17-.337-.106l.23.443zm4.353-3.07c-.117.074-.152.228-.08.345.074.117.229.152.346.079l-.266-.424zm4.657-2.586c.11-.082.134-.239.051-.35-.082-.11-.239-.133-.35-.05l.3.4zm3.813-3.72c-.104.091-.115.25-.024.353.09.104.248.115.352.024l-.328-.376zm4.2-3.278c.096-.098.094-.257-.004-.353-.1-.097-.257-.095-.354.003l.357.35zm3.171-4.276c-.087.107-.072.264.035.351.107.088.264.072.352-.035l-.387-.316zM4.383 25.59l-.17.184.002.002c.002 0 .004.003.006.005l.023.021.09.082c.08.071.197.176.352.31.309.27.765.659 1.355 1.136l.315-.388c-.585-.474-1.037-.858-1.342-1.124-.152-.133-.268-.236-.345-.306l-.087-.079-.022-.02-.005-.005h-.001l-.17.182zm5.525 4.64c1.19.828 2.543 1.717 4.037 2.614l.257-.428c-1.483-.891-2.826-1.774-4.008-2.597l-.286.41zm8.254 4.95c1.386.703 2.85 1.382 4.382 2.012l.19-.463c-1.518-.624-2.97-1.298-4.346-1.995l-.226.446zm8.916 3.646c1.515.468 3.077.873 4.677 1.192l.098-.49c-1.582-.316-3.127-.716-4.627-1.18l-.148.478zm9.457 1.865c1.585.127 3.198.159 4.828.077l-.025-.5c-1.608.081-3.198.05-4.763-.076l-.04.499zm9.627-.502c.784-.151 1.57-.332 2.358-.544l-.13-.483c-.776.209-1.55.387-2.323.536l.095.491zm2.358-.544c.869-.234 1.722-.485 2.559-.75l-.151-.477c-.83.263-1.676.512-2.538.744l.13.483zm7.56-2.58c1.685-.701 3.294-1.457 4.825-2.253l-.23-.443c-1.52.788-3.116 1.539-4.788 2.234l.192.462zm9.444-4.898c1.566-.985 3.03-1.996 4.391-3.01l-.299-.4c-1.35 1.005-2.803 2.01-4.358 2.986l.266.424zm8.532-6.353c1.467-1.28 2.758-2.517 3.871-3.655l-.357-.35c-1.105 1.13-2.386 2.357-3.842 3.629l.328.376zm7.43-7.615c.537-.656.942-1.184 1.213-1.549.135-.182.237-.323.305-.42l.077-.11.02-.028.005-.007.001-.002h.001l-.207-.141-.206-.141-.002.002-.004.006-.018.026c-.017.024-.041.06-.075.106-.066.093-.166.232-.299.411-.266.359-.666.88-1.198 1.53l.387.317zM48.455 39.403l.13.483-.13-.483zm34.938-23.555c-.052-.271-.314-.45-.585-.398l-4.42.841c-.272.052-.45.313-.399.585.052.271.314.45.585.397l3.93-.747.747 3.93c.051.27.313.449.584.397.272-.051.45-.313.398-.584l-.84-4.42zm-78.67 9.376c-.202-.188-.518-.176-.706.026-.188.203-.176.519.026.707l.68-.733zm1.161 2.3c.215.174.53.141.703-.073.174-.215.14-.53-.074-.704l-.629.778zm4.453 2.09c-.227-.158-.538-.102-.696.125-.158.226-.102.538.124.696l.572-.82zm3.479 3.445c.236.142.544.065.686-.171.142-.237.066-.544-.171-.686l-.515.857zM18.5 34.51c-.246-.125-.547-.027-.672.22-.125.246-.027.547.22.672l.452-.892zm3.948 2.912c.255.105.547-.017.652-.273.105-.255-.017-.547-.272-.652l-.38.925zm4.85.686c-.263-.081-.543.066-.625.33-.081.264.067.544.33.626l.296-.956zm4.407 2.154c.271.055.534-.121.588-.392.055-.27-.121-.534-.392-.588l-.196.98zm4.889-.32c-.276-.022-.517.183-.539.459-.022.275.183.516.459.538l.08-.997zm4.78 1.074c.277-.014.489-.248.475-.524-.014-.276-.249-.488-.525-.474l.05.998zm4.645-1.564c-.271.052-.449.314-.396.585.052.272.314.449.586.397l-.19-.982zm5.135-.32c.263-.084.408-.365.325-.628-.083-.263-.364-.409-.628-.325l.303.953zm4.636-2.76c-.255.105-.375.398-.27.653.107.255.4.376.654.27l-.384-.924zm5.23-1.339c.244-.127.34-.429.212-.674-.127-.245-.429-.34-.674-.213l.461.887zm4.104-3.502c-.234.147-.305.455-.158.69.147.233.456.303.69.157l-.532-.847zm4.94-2.174c.221-.165.267-.479.102-.7-.165-.222-.478-.267-.7-.102l.598.802zm3.498-4.109c-.208.182-.23.498-.048.706.182.208.498.23.706.048l-.658-.754zm4.543-2.915c.193-.197.19-.514-.008-.707-.197-.193-.513-.19-.707.008l.715.699zm2.8-4.61c-.175.214-.144.529.07.704.213.175.528.143.703-.07l-.773-.634zM4.383 25.59l-.34.367.003.002.006.006.024.022.091.083c.08.072.2.178.355.313.31.271.77.662 1.362 1.142l.63-.778c-.583-.471-1.033-.854-1.335-1.118-.152-.132-.266-.234-.343-.303l-.085-.077-.021-.02-.005-.004-.001-.001-.34.366zm5.382 4.845c1.194.831 2.552 1.723 4.05 2.624l.516-.857c-1.478-.888-2.817-1.768-3.994-2.588l-.572.82zm8.284 4.968c1.391.705 2.862 1.388 4.4 2.02l.38-.925c-1.512-.621-2.958-1.292-4.328-1.987l-.452.892zm8.956 3.662c1.522.47 3.092.877 4.701 1.199l.196-.981c-1.573-.314-3.11-.712-4.602-1.174l-.296.956zm9.51 1.875c1.596.128 3.219.16 4.86.077l-.05-.998c-1.596.08-3.175.05-4.73-.076l-.08.997zm9.695-.505c.79-.153 1.581-.335 2.375-.549l-.26-.966c-.77.208-1.539.385-2.305.533l.19.981zm2.375-.549c.873-.235 1.73-.487 2.57-.753l-.303-.953c-.826.262-1.669.51-2.527.74l.26.966zm7.59-2.59c1.693-.704 3.308-1.463 4.845-2.262l-.46-.887c-1.514.785-3.104 1.533-4.769 2.225l.384.924zm9.482-4.917c1.572-.989 3.042-2.004 4.408-3.021l-.598-.802c-1.346 1.002-2.793 2.003-4.342 2.976l.532.847zm8.564-6.376c1.472-1.286 2.767-2.527 3.885-3.669l-.715-.7c-1.1 1.125-2.377 2.349-3.828 3.615l.658.754zm7.458-7.645c.54-.66.947-1.191 1.22-1.559.137-.183.24-.326.309-.424l.079-.112.02-.029.005-.008.002-.002v-.001l-.413-.281-.413-.282-.001.002-.004.005-.018.026-.072.103c-.066.092-.164.23-.296.407-.265.356-.662.875-1.191 1.521l.773.634z"/>
    <circle r="2.238" fill="#F40000" stroke="#F40000" stroke-dasharray="8 8" stroke-linecap="round" stroke-linejoin="round" transform="scale(1 -1) rotate(-4.299 -341.003 -72.847)"/>
</svg>
