<svg width="143" height="45" viewBox="0 0 143 45" fill="none" xmlns="http://www.w3.org/2000/svg">
<path d="M61.9483 44.867C58.5286 42.4606 54.3642 41.3971 50.5792 41.5475C46.7514 41.6979 45.0326 44.5554 45.0326 44.5554C43.3066 41.544 39.8941 39.6927 34.6231 39.7356C26.1044 39.8288 17.6465 43.7605 10.954 43.7569C4.52643 43.7533 -0.153694 39.7177 0.00386196 32.549C0.283165 19.9839 10.9039 8.66136 18.8425 3.56587C23.4045 0.636764 27.2252 -0.229792 29.7282 0.0495114C31.5472 0.253618 33.7423 2.35914 32.3565 5.46012C30.3226 10.0113 27.5188 9.62818 27.6191 7.45821C27.68 6.04737 28.6181 5.15933 29.3235 4.67234C29.7747 4.36081 30.5661 4.27129 30.9779 4.26413C31.3789 3.92395 31.6869 1.43887 28.4176 2.25887C25.1447 3.0753 21.213 6.28729 17.4603 10.4231C13.7076 14.559 7.86733 22.4045 6.42068 30.6296C5.74748 34.4468 6.19509 41.4007 15.2331 41.3255C22.896 41.2611 34.2149 36.2193 44.6065 36.316C48.6385 36.3554 52.1476 37.4403 54.8834 39.1305C57.5833 40.8027 60.806 43.2198 61.9483 44.867ZM64.4155 22.0822H65.9875C65.9875 22.0822 58.1097 33.4621 53.6587 32.9428C51.1737 32.6564 51.9113 29.5876 51.9113 29.5876C51.9113 29.5876 48.4129 33.6733 45.2224 32.8533C42.3183 32.1085 44.1911 27.2744 44.1911 27.2744C43.8616 27.4069 37.5702 34.4969 33.155 32.796C28.5322 31.0128 30.9313 25.0758 31.8122 23.2926C32.557 21.7886 33.3806 20.3205 33.3806 20.3205C33.3806 20.3205 32.6716 20.521 32.2312 20.6249C31.7907 20.7251 31.1211 20.854 31.1211 20.854C31.1211 20.854 28.9332 24.4098 27.5976 26.1823C26.2584 27.9584 20.5792 34.0565 17.2311 32.839C13.8867 31.6215 14.7138 26.9414 16.5938 23.2209C19.6446 17.1873 26.885 9.775 31.2393 10.8886C35.6401 12.013 31.9948 19.1567 31.9948 19.1567C31.9948 19.1567 32.8686 19.2713 34.9705 17.839C37.9999 15.78 41.9817 10.2298 46.3002 10.8815C48.3269 11.1858 50.214 13.2699 47.6322 17.2195C46.8051 18.4871 45.4157 19.6222 44.3522 18.5014C43.6933 17.8068 44.2663 16.532 44.961 15.6618C45.9421 14.4265 47.2956 14.5983 47.2956 14.5983C47.2956 14.5983 48.0046 12.9583 46.1963 12.9906C44.7282 13.0192 41.0077 16.4425 38.9058 19.9015C36.9793 23.0777 34.061 28.4883 36.9936 29.67C39.6793 30.755 44.7891 24.6891 47.156 21.5093C49.5265 18.3331 54.912 11.125 59.4346 10.8349C60.9923 10.7347 61.9197 12.1527 61.9197 12.1527L62.4425 11.3255L66.9579 11.3291C66.9579 11.3291 58.4391 25.5485 57.7695 26.6227C57.2431 27.4678 56.5485 29.3585 58.4785 28.2985C60.405 27.2386 64.4155 22.0822 64.4155 22.0822ZM29.3594 20.6213C29.2806 20.5926 28.1419 20.2668 27.0318 19.5542C25.9218 18.8452 25.4097 17.7924 25.3703 17.7172C25.3274 17.6456 25.2844 17.6993 25.2414 17.7638C25.1949 17.8247 24.9585 18.129 23.3436 20.4959C21.7322 22.8593 19.3402 27.7077 21.5783 28.5349C23.0106 29.0648 25.4169 26.5511 26.7203 24.886C27.927 23.3427 29.3665 20.965 29.431 20.8254C29.4954 20.6821 29.4381 20.6499 29.3594 20.6213ZM31.1533 13.0622C29.9681 12.167 26.9531 14.2618 26.9351 16.4031C26.9172 18.5981 29.6601 19.2248 30.0146 19.2427C30.0146 19.2427 30.3226 19.3286 30.4479 19.0672C30.5267 18.9025 30.8991 18.2186 31.3145 17.1264C31.7263 16.0378 32.2527 13.9001 31.1533 13.0622ZM54.1672 24.9182C55.9934 22.4153 61.0316 13.6494 61.0316 13.6494C61.0316 13.6494 60.9493 13.0335 60.362 13.0049C59.6674 12.9727 58.5107 13.2054 56.1975 16.0951C53.8808 18.9848 52.0975 21.2873 50.7905 23.6757C49.3618 26.2861 48.7351 28.1267 49.5551 28.628C49.7843 28.7676 50.1352 28.7855 50.4181 28.7175C50.9552 28.585 51.6535 28.0479 52.6132 26.9414C53.0608 26.4294 53.5728 25.7347 54.1672 24.9182ZM74.4812 11.3541L70.1914 11.3506L67.7671 15.2715L72.057 15.2751L74.4812 11.3541ZM137.826 4.33932C134.653 6.37681 130.256 8.22451 126.034 7.81629C124.967 8.92276 123.821 10.2011 122.675 11.594C129.998 13.0407 136.411 8.50739 139.82 4.64369C141.951 2.23381 143 0.0817388 143 0.0817388C143 0.0817388 140.966 2.31975 137.826 4.33932ZM125.25 37.6051C124.641 38.579 123.954 40.4411 125.959 39.2809C128.401 37.87 131.885 32.5883 131.885 32.5883H133.461C133.461 32.5883 131.384 35.8684 128.677 38.8619C126.199 41.6048 123.18 44.1007 121.053 43.85C118.568 43.5635 119.349 40.2978 119.349 40.2978C119.349 40.2978 115.782 44.0863 113.329 43.8106C110.01 43.4454 111.02 39.3346 111.02 39.3346C111.02 39.3346 107.264 43.9538 104.703 43.807C100.689 43.5779 101.699 38.6793 102.816 35.2525C103.414 33.4155 103.969 31.9689 103.969 31.9689C103.969 31.9689 103.572 32.0727 102.719 32.198C102.272 32.2625 101.459 32.3055 101.459 32.3055C101.459 32.3055 99.7868 35.2561 98.4511 37.0286C97.1119 38.8046 91.4292 44.9063 88.0847 43.6853C84.9944 42.5537 86.015 37.8199 87.8161 34.0601C90.4444 28.5778 97.8316 20.7001 102.089 21.7313C106.508 22.802 102.189 30.8624 102.189 30.8624C102.189 30.8624 102.189 30.8946 102.236 30.9125C102.326 30.9483 102.555 30.9698 103.088 30.8696C103.937 30.7084 104.703 30.3897 104.703 30.3897C104.703 30.3897 109.143 21.0904 114.049 15.0101C118.951 8.92634 128.741 -1.54753 132.583 0.987684C133.525 1.61075 133.095 3.75565 131.828 6.36248C131.269 6.53794 130.689 6.69192 130.095 6.81725C130.94 5.28108 131.502 3.98482 131.667 3.08246C132.243 -0.0614933 124.906 6.56301 119.66 13.6924C114.414 20.8218 111.267 27.278 111.267 27.278C111.267 27.278 112.323 26.68 113.974 25.3515C115.696 23.9658 118.063 21.7922 120.638 19.1352C122.367 17.3484 124.405 15.1032 126.306 12.5931C126.876 12.5644 127.431 12.5072 127.975 12.4212C125.851 15.2787 123.617 17.8891 121.719 19.8084C119.632 21.9211 117.365 24.1985 115.396 25.86C112.266 28.4919 109.849 29.9815 109.849 29.9815C109.849 29.9815 105.251 39.22 107.747 39.818C109.215 40.1689 112.112 35.7072 112.112 35.7072C112.112 35.7072 115.89 29.9421 118.167 27.3496C121.275 23.8154 123.95 21.7743 126.621 21.7313C128.179 21.7027 129.099 23.3642 129.099 23.3642L129.833 22.2291L134.345 22.2326C134.345 22.2362 125.923 36.5308 125.25 37.6051ZM99.8799 31.9617C99.8011 31.9366 98.8235 31.489 97.8066 30.6404C96.7932 29.7953 96.2812 28.8249 96.2418 28.7497C96.2024 28.6781 96.1558 28.7318 96.1129 28.7927C96.0699 28.8536 95.8873 29.0147 94.2723 31.378C92.6609 33.745 90.1938 38.622 92.4318 39.4528C93.8641 39.9827 96.2489 37.4762 97.5523 35.8147C98.7627 34.2713 99.8906 32.3055 99.9515 32.1622C100.016 32.0262 99.9622 31.9939 99.8799 31.9617ZM102.164 27.9727C102.58 26.8841 103.11 24.7464 102.007 23.9085C100.822 23.0133 97.8066 25.108 97.7887 27.2494C97.7708 29.4444 99.9121 30.4363 100.431 30.5759C100.725 30.6547 100.825 30.644 100.968 30.4076C101.054 30.2537 101.745 29.0613 102.164 27.9727ZM128.075 24.9684C128.165 24.8072 128.208 24.664 128.208 24.664C128.208 24.664 128.125 24.0481 127.538 24.0195C126.843 23.9872 125.887 24.1197 123.395 26.8805C120.914 29.6306 119.402 32.019 118.092 34.4074C116.663 37.0178 116.087 38.9622 116.907 39.4599C117.136 39.5996 117.487 39.6175 117.77 39.5494C118.328 39.4134 118.955 38.8942 119.918 37.7877C120.366 37.2685 120.867 36.5308 121.461 35.7144C123.105 33.4692 127.255 26.3935 128.075 24.9684ZM137.826 4.33932C134.653 6.37681 130.256 8.22451 126.034 7.81629C124.967 8.92276 123.821 10.2011 122.675 11.594C129.998 13.0407 136.411 8.50739 139.82 4.64369C141.951 2.23381 143 0.0817388 143 0.0817388C143 0.0817388 140.966 2.31975 137.826 4.33932ZM117.24 9.63893C113.777 7.86284 111.245 5.69287 108.61 4.33932C106.096 3.04665 104.47 2.50953 102.44 2.77809C102.104 2.82464 101.602 2.98578 101.602 2.98578C101.602 2.98578 102.648 6.55943 98.4869 12.5644C94.2687 18.6482 90.4408 18.6124 89.3559 16.933C88.2172 15.1677 89.6853 11.569 92.1417 8.37132C94.7128 5.02326 99.2353 2.24455 99.2353 2.24455C99.2353 2.24455 97.7923 1.36367 94.2544 3.36892C90.8061 5.31689 84.8512 9.96478 79.3475 17.8068C73.8438 25.6452 72.7445 29.9636 71.946 33.3582C71.1474 36.7564 71.8743 40.3909 75.6413 40.3945C79.4119 40.3981 83.7949 34.6509 85.0302 32.6528C87.3291 28.9323 88.8295 23.2281 85.6999 24.0123C84.1565 24.399 82.9104 26.1071 82.1226 27.7471C81.3134 29.4372 80.9875 31.0486 80.9875 31.0486C80.9875 31.0486 79.6841 31.5141 77.9367 32.8247C76.1856 34.1353 75.0398 35.3814 75.0398 35.3814C75.0398 35.3814 75.0505 32.6671 77.2169 28.2735C79.3797 23.8798 83.3544 21.871 85.6032 21.6848C87.6335 21.5201 90.269 23.2424 88.0345 29.5984C85.8001 35.9543 79.2043 43.6602 72.2718 43.7569C65.8765 43.8464 61.6905 35.6822 70.5924 21.4413C80.4396 5.69287 92.0057 0.862356 95.7548 0.325234C99.511 -0.211888 100.725 1.44245 100.725 1.44245C100.725 1.44245 103.869 -0.00778213 107.858 0.26436C112.441 0.57589 115.986 3.82011 120.656 6.0975C119.449 7.28275 118.285 8.49665 117.24 9.63893ZM100.177 3.45486C100.177 3.45486 97.495 4.52195 94.3797 7.95595C91.2501 11.4007 89.4454 15.2572 90.7882 16.2813C91.3038 16.6716 92.4927 16.7361 94.6555 14.7953C96.342 13.2806 98.0608 11.2968 99.2282 8.45726C100.621 5.05549 100.177 3.49783 100.177 3.45486Z" fill="white"/>
</svg>
