<svg width="43" height="43" viewBox="0 0 43 43" fill="none" xmlns="http://www.w3.org/2000/svg">
<path fill-rule="evenodd" clip-rule="evenodd" d="M21.5 0C9.62701 0 0 9.62701 0 21.5C0 33.373 9.62701 43 21.5 43C33.373 43 43 33.373 43 21.5C43 9.62701 33.373 0 21.5 0ZM15.0831 21.5C15.0831 17.9507 17.9474 15.0863 21.4966 15.0863C25.0458 15.0863 27.9102 17.9507 27.9102 21.5C27.9102 25.0493 25.0458 27.9137 21.4966 27.9137C17.9474 27.9137 15.0831 25.0493 15.0831 21.5ZM17.3283 21.5C17.3283 23.7953 19.2014 25.6684 21.4966 25.6684C23.7919 25.6684 25.665 23.7953 25.665 21.5C25.665 19.2047 23.7919 17.3316 21.4966 17.3316C19.2014 17.3316 17.3283 19.2047 17.3283 21.5ZM26.675 14.8267C26.675 13.9981 27.3442 13.3289 28.1729 13.3289C28.3697 13.3286 28.5646 13.3672 28.7464 13.4424C28.9282 13.5176 29.0935 13.6279 29.2326 13.767C29.3717 13.9062 29.4821 14.0714 29.5572 14.2532C29.6324 14.4351 29.671 14.63 29.6708 14.8267C29.6708 15.6586 29.0016 16.3246 28.1729 16.3246C27.3442 16.3246 26.675 15.6554 26.675 14.8267ZM33.9991 20.8685C33.9988 21.0788 33.9986 21.2893 33.9986 21.5C33.9986 21.7356 33.999 21.971 33.9993 22.2061C34.0015 23.6934 34.0037 25.1719 33.9173 26.6597C33.8204 28.6611 33.3669 30.4342 31.9004 31.9008C30.4369 33.3643 28.6607 33.8208 26.6594 33.9178C25.1467 34.0029 23.6436 34.0012 22.1311 33.9995C21.9209 33.9993 21.7104 33.9991 21.4998 33.9991C21.2895 33.9991 21.0795 33.9993 20.8696 33.9995C19.3591 34.0012 17.8556 34.0029 16.3401 33.9178C14.3388 33.8208 12.5658 33.3674 11.0992 31.9008C9.63572 30.4373 9.17917 28.6611 9.08223 26.6597C8.99712 25.1469 8.99879 23.6414 9.00046 22.1303C9.0007 21.9203 9.00093 21.7102 9.00093 21.5C9.00093 21.2897 9.0007 21.0797 9.00046 20.8697C8.99879 19.3593 8.99712 17.8558 9.08223 16.3403C9.17917 14.3389 9.6326 12.5658 11.0992 11.0992C12.5626 9.63573 14.3388 9.17918 16.3401 9.08224C17.8528 8.99713 19.3559 8.99879 20.8684 9.00046C21.0786 9.0007 21.2891 9.00093 21.4998 9.00093C21.71 9.00093 21.9201 9.0007 22.13 9.00046C23.6405 8.99879 25.1439 8.99712 26.6594 9.08224C28.6607 9.17918 30.4338 9.63261 31.9004 11.0992C33.3638 12.5627 33.8204 14.3389 33.9173 16.3403C34.0024 17.853 34.0007 19.3561 33.9991 20.8685ZM30.3024 30.306C30.7433 29.8682 31.0185 29.4429 31.2468 28.8737C31.8089 27.4591 31.7788 24.3722 31.7594 22.3761C31.7563 22.0512 31.7534 21.7552 31.7534 21.5C31.7534 21.244 31.7563 20.947 31.7595 20.6208C31.7789 18.6239 31.809 15.5371 31.2499 14.1231C31.0216 13.554 30.7465 13.1318 30.3056 12.6909C29.8678 12.25 29.4425 11.9748 28.8734 11.7465C27.4595 11.1874 24.3727 11.2175 22.3758 11.237C22.0497 11.2402 21.7526 11.2431 21.4966 11.2431C21.2407 11.2431 20.9436 11.2402 20.6175 11.237C18.6206 11.2175 15.5338 11.1874 14.1199 11.7465C13.5508 11.9748 13.1286 12.2531 12.6877 12.6909C12.2468 13.1287 11.9716 13.554 11.7434 14.1231C11.1842 15.5371 11.2144 18.6239 11.2338 20.6208C11.237 20.947 11.2399 21.244 11.2399 21.5C11.2399 21.756 11.237 22.053 11.2338 22.3791C11.2143 24.3754 11.1843 27.4603 11.7434 28.8769C11.9716 29.446 12.2468 29.8682 12.6877 30.3091C13.1255 30.75 13.5508 31.0252 14.1199 31.2535C15.5338 31.8126 18.6206 31.7825 20.6175 31.763C20.9436 31.7598 21.2407 31.7569 21.4966 31.7569C21.7518 31.7569 22.0478 31.7598 22.3727 31.763C24.3688 31.7824 27.4556 31.8124 28.8702 31.2503C29.4394 31.0221 29.8615 30.7469 30.3024 30.306Z" fill="white"/>
</svg>
