<svg xmlns="http://www.w3.org/2000/svg" width="106" height="24" fill="none" viewBox="0 0 106 24">
    <rect width="106" height="24" fill="#F74949" rx="5"/>
    <path fill="#fff" d="M9.08 16h5.892v-1.344h-4.416V7.6H9.08V16zm7.286-7.308h1.56v-1.38h-1.56v1.38zm.06 7.308h1.452V9.664h-1.452V16zm3.35 0h1.451v-3.576c0-.972.552-1.572 1.356-1.572s1.284.552 1.284 1.536V16h1.452v-3.576c0-1.02.564-1.572 1.356-1.572.816 0 1.284.54 1.284 1.548V16h1.452v-4.044c0-1.548-.84-2.424-2.22-2.424-.96 0-1.632.444-2.136 1.116-.336-.672-.984-1.116-1.896-1.116-.972 0-1.524.528-1.932 1.092v-.96h-1.452V16zm13.526.108c.552 0 .948-.12 1.308-.324v-1.188c-.288.144-.576.216-.9.216-.492 0-.78-.228-.78-.792v-3.108h1.704V9.664H32.93v-1.74h-1.452v1.74h-.804v1.248h.804v3.336c0 1.392.756 1.86 1.824 1.86zm5.537.036c1.164 0 1.992-.468 2.592-1.188l-.852-.756c-.504.492-1.008.756-1.716.756-.936 0-1.668-.576-1.824-1.608h4.656c.012-.144.024-.276.024-.408 0-1.824-1.02-3.408-3.036-3.408-1.812 0-3.096 1.488-3.096 3.3v.024c0 1.956 1.416 3.288 3.252 3.288zm-1.812-3.756c.132-.984.756-1.668 1.644-1.668.96 0 1.512.732 1.608 1.668h-3.252zm8.767 3.744c1.032 0 1.692-.528 2.16-1.188V16h1.452V7.24h-1.452v3.408c-.456-.6-1.116-1.116-2.16-1.116-1.512 0-2.94 1.188-2.94 3.288v.024c0 2.1 1.452 3.288 2.94 3.288zm.348-1.26c-.984 0-1.824-.804-1.824-2.028v-.024c0-1.26.828-2.028 1.824-2.028.972 0 1.836.804 1.836 2.028v.024c0 1.212-.864 2.028-1.836 2.028zM54.994 16h6.288v-1.32H56.47v-2.256h4.212v-1.32H56.47V8.92h4.752V7.6h-6.228V16zm10.37.132c1.032 0 1.692-.528 2.16-1.188V16h1.452V7.24h-1.452v3.408c-.456-.6-1.116-1.116-2.16-1.116-1.512 0-2.94 1.188-2.94 3.288v.024c0 2.1 1.452 3.288 2.94 3.288zm.348-1.26c-.984 0-1.824-.804-1.824-2.028v-.024c0-1.26.828-2.028 1.824-2.028.972 0 1.836.804 1.836 2.028v.024c0 1.212-.864 2.028-1.836 2.028zm5.11-6.18h1.56v-1.38h-1.56v1.38zm.06 7.308h1.453V9.664h-1.452V16zm5.474.108c.552 0 .948-.12 1.308-.324v-1.188c-.288.144-.576.216-.9.216-.492 0-.78-.228-.78-.792v-3.108h1.704V9.664h-1.704v-1.74h-1.452v1.74h-.804v1.248h.804v3.336c0 1.392.756 1.86 1.824 1.86zm2.834-7.416h1.56v-1.38h-1.56v1.38zM79.25 16h1.452V9.664H79.25V16zm6.362.144c1.956 0 3.395-1.5 3.395-3.3v-.024c0-1.812-1.428-3.288-3.372-3.288s-3.384 1.5-3.384 3.312v.024c0 1.8 1.428 3.276 3.36 3.276zm.023-1.272c-1.128 0-1.931-.924-1.931-2.028v-.024c0-1.104.744-2.016 1.908-2.016 1.14 0 1.944.924 1.944 2.04v.024c0 1.092-.745 2.004-1.92 2.004zM90.486 16h1.452v-3.576c0-.984.588-1.572 1.428-1.572.864 0 1.356.564 1.356 1.548V16h1.452v-4.044c0-1.464-.828-2.424-2.256-2.424-.984 0-1.572.516-1.98 1.104v-.972h-1.452V16z"/>
</svg>
