<svg width="43" height="43" viewBox="0 0 43 43" fill="none" xmlns="http://www.w3.org/2000/svg">
<path d="M21.5 0C9.62701 0 0 9.62701 0 21.5C0 33.373 9.62701 43 21.5 43C33.373 43 43 33.373 43 21.5C43 9.62701 33.373 0 21.5 0ZM31.8325 16.2066C31.8469 16.4321 31.8469 16.6673 31.8469 16.8977C31.8469 23.9427 26.4815 32.058 16.6769 32.058C13.6535 32.058 10.8508 31.1798 8.48962 29.6681C8.92154 29.7161 9.33426 29.7353 9.77578 29.7353C12.2713 29.7353 14.5653 28.8906 16.3937 27.4605C14.0518 27.4125 12.0842 25.8768 11.4123 23.7652C12.2329 23.8852 12.972 23.8852 13.8166 23.6692C12.6107 23.4242 11.5269 22.7693 10.7491 21.8157C9.97138 20.8621 9.54776 19.6687 9.55022 18.4382V18.371C10.2557 18.7693 11.0859 19.0141 11.9546 19.0477C11.2244 18.561 10.6255 17.9017 10.2111 17.1282C9.79673 16.3546 9.57961 15.4908 9.57902 14.6133C9.57902 13.6199 9.83817 12.7128 10.3037 11.9258C11.6422 13.5735 13.3124 14.9211 15.2058 15.881C17.0992 16.841 19.1734 17.3917 21.2936 17.4975C20.5402 13.8742 23.2469 10.942 26.5007 10.942C28.0364 10.942 29.4185 11.585 30.3927 12.6217C31.5973 12.3961 32.7491 11.945 33.7761 11.3403C33.3778 12.5737 32.5427 13.6151 31.4342 14.2725C32.5092 14.1574 33.5458 13.8598 34.5056 13.4423C33.7809 14.5077 32.8739 15.4531 31.8325 16.2066Z" fill="white"/>
</svg>
