<svg xmlns="http://www.w3.org/2000/svg" fill="none" viewBox="0 0 47 40">
  <path stroke="#000" stroke-linecap="round" stroke-linejoin="round" stroke-width="3" d="m19.981 3.915-17.43 28.12A3.875 3.875 0 0 0 2 34.011a3.874 3.874 0 0 0 .54 1.98 4.046 4.046 0 0 0 1.488 1.459c.62.352 1.324.541 2.042.549h34.86a4.224 4.224 0 0 0 2.042-.55 4.046 4.046 0 0 0 1.488-1.458 3.874 3.874 0 0 0 .54-1.98 3.875 3.875 0 0 0-.551-1.978l-17.43-28.12a4.055 4.055 0 0 0-1.5-1.402A4.228 4.228 0 0 0 23.5 2c-.707 0-1.403.176-2.02.512a4.055 4.055 0 0 0-1.499 1.403v0Z"/>
</svg>