<svg xmlns="http://www.w3.org/2000/svg" width="43" height="43" fill="none" viewBox="0 0 43 43">
    <path fill="#fff" d="M21.5 0C9.627 0 0 9.627 0 21.5S9.627 43 21.5 43 43 33.373 43 21.5 33.373 0 21.5 0zm10.332 16.207c.015.225.015.46.015.69 0 7.046-5.366 15.161-15.17 15.161-3.024 0-5.826-.878-8.187-2.39.432.048.844.067 1.286.067 2.495 0 4.79-.844 6.618-2.274-2.342-.048-4.31-1.584-4.982-3.696.82.12 1.56.12 2.405-.096-1.206-.245-2.29-.9-3.068-1.853-.778-.954-1.201-2.147-1.199-3.378v-.067c.706.398 1.536.643 2.405.677-.73-.487-1.33-1.146-1.744-1.92-.414-.773-.631-1.637-.632-2.515 0-.993.26-1.9.725-2.687 1.338 1.647 3.008 2.995 4.902 3.955 1.893.96 3.967 1.51 6.088 1.616-.754-3.623 1.953-6.555 5.207-6.555 1.535 0 2.918.643 3.892 1.68 1.204-.226 2.356-.677 3.383-1.282-.398 1.234-1.233 2.275-2.342 2.933 1.075-.116 2.112-.413 3.072-.83-.725 1.065-1.632 2.01-2.674 2.764z"/>
</svg>
