<svg xmlns="http://www.w3.org/2000/svg" width="43" height="43" fill="none" viewBox="0 0 43 43">
    <path fill="#fff" fill-rule="evenodd" d="M21.5 0C9.627 0 0 9.627 0 21.5S9.627 43 21.5 43 43 33.373 43 21.5 33.373 0 21.5 0zm-6.417 21.5c0-3.55 2.864-6.414 6.414-6.414 3.549 0 6.413 2.865 6.413 6.414 0 3.55-2.864 6.414-6.413 6.414-3.55 0-6.414-2.865-6.414-6.414zm2.245 0c0 2.295 1.873 4.168 4.169 4.168 2.295 0 4.168-1.873 4.168-4.168s-1.873-4.168-4.168-4.168c-2.296 0-4.169 1.873-4.169 4.168zm9.347-6.673c0-.829.67-1.498 1.498-1.498.197 0 .392.038.573.113.182.076.348.186.487.325.139.14.25.304.324.486.075.182.114.377.114.574 0 .832-.67 1.498-1.498 1.498-.829 0-1.498-.67-1.498-1.498zm7.324 6.042v1.337c.002 1.487.005 2.966-.082 4.454-.097 2.001-.55 3.774-2.017 5.24-1.463 1.464-3.24 1.92-5.24 2.018-1.513.085-3.016.083-4.529.081H20.87c-1.51.002-3.014.004-4.53-.081-2.001-.097-3.774-.55-5.24-2.017-1.464-1.464-1.92-3.24-2.018-5.241C8.997 25.147 9 23.64 9 22.13v-.63-.63c-.001-1.51-.003-3.014.082-4.53.097-2.001.55-3.774 2.017-5.24 1.464-1.464 3.24-1.92 5.241-2.018C17.853 8.997 19.356 9 20.868 9h1.262c1.51-.001 3.014-.003 4.53.082 2 .097 3.774.55 5.24 2.017 1.464 1.464 1.92 3.24 2.017 5.241.085 1.513.084 3.016.082 4.529zm-3.697 9.437c.441-.438.716-.863.945-1.432.562-1.415.532-4.502.512-6.498-.003-.325-.006-.62-.006-.876s.003-.553.006-.88c.02-1.996.05-5.083-.51-6.497-.227-.569-.502-.991-.943-1.432-.438-.441-.864-.716-1.433-.945-1.414-.559-4.5-.529-6.497-.509-.326.003-.623.006-.88.006-.255 0-.552-.003-.878-.006-1.997-.02-5.084-.05-6.498.51-.57.228-.991.506-1.432.944-.441.438-.716.863-.945 1.432-.559 1.414-.529 4.5-.51 6.498.004.326.007.623.007.879s-.003.553-.006.88c-.02 1.995-.05 5.08.51 6.497.228.569.503.991.944 1.432.438.441.863.716 1.432.944 1.414.56 4.5.53 6.498.51.326-.003.623-.006.879-.006.255 0 .55.003.876.006 1.996.02 5.083.05 6.497-.513.57-.228.991-.503 1.432-.944z" clip-rule="evenodd"/>
</svg>
