<?xml version="1.0" encoding="UTF-8"?>
<svg width="143px" height="45px" viewBox="0 0 143 45" version="1.1" xmlns="http://www.w3.org/2000/svg" xmlns:xlink="http://www.w3.org/1999/xlink">
    <title>coke-logo</title>
    <g id="Page-1" stroke="none" stroke-width="1" fill="none" fill-rule="evenodd">
        <g id="coke-logo" transform="translate(0.000116, 0.000253)" fill="#000000" fill-rule="nonzero">
            <path d="M61.9478835,44.8667473 C58.5278835,42.4607473 54.3638835,41.3967473 50.5788835,41.5467473 C46.7508835,41.6967473 45.0328835,44.5547473 45.0328835,44.5547473 C43.3068835,41.5437473 39.8938835,39.6927473 34.6228835,39.7347473 C26.1038835,39.8287473 17.6468835,43.7607473 10.9538835,43.7567473 C4.52588355,43.7527473 -0.154116452,39.7167473 0.00388354766,32.5487473 C0.283883548,19.9837473 10.9038835,8.66074726 18.8418835,3.56574726 C23.4048835,0.635747257 27.2258835,-0.230252743 29.7288835,0.0497472566 C31.5488835,0.253747257 33.7428835,2.35974726 32.3568835,5.45974726 C30.3238835,10.0107473 27.5198835,9.62774726 27.6198835,7.45774726 C27.6808835,6.04774726 28.6198835,5.15874726 29.3238835,4.67174726 C29.7758835,4.36074726 30.5668835,4.27174726 30.9788835,4.26374726 C31.3788835,3.92374726 31.6878835,1.43874726 28.4188835,2.25874726 C25.1458835,3.07474726 21.2138835,6.28674726 17.4608835,10.4227473 C13.7078835,14.5597473 7.86688355,22.4037473 6.41988355,30.6297473 C5.74688355,34.4467473 6.19488355,41.3997473 15.2328835,41.3247473 C22.8958835,41.2607473 34.2148835,36.2187473 44.6058835,36.3157473 C48.6378835,36.3557473 52.1478835,37.4397473 54.8828835,39.1297473 C57.5828835,40.8027473 60.8058835,43.2197473 61.9478835,44.8667473 Z M64.4148835,22.0817473 L65.9868835,22.0817473 C65.9868835,22.0817473 58.1098835,33.4617473 53.6588835,32.9417473 C51.1738835,32.6557473 51.9108835,29.5877473 51.9108835,29.5877473 C51.9108835,29.5877473 48.4128835,33.6727473 45.2218835,32.8527473 C42.3178835,32.1077473 44.1918835,27.2737473 44.1918835,27.2737473 C43.8618835,27.4067473 37.5698835,34.4967473 33.1548835,32.7957473 C28.5318835,31.0127473 30.9308835,25.0757473 31.8118835,23.2927473 C32.5568835,21.7887473 33.3808835,20.3197473 33.3808835,20.3197473 C33.3808835,20.3197473 32.6708835,20.5207473 32.2308835,20.6247473 C31.7908835,20.7247473 31.1208835,20.8537473 31.1208835,20.8537473 C31.1208835,20.8537473 28.9328835,24.4097473 27.5978835,26.1817473 C26.2578835,27.9577473 20.5788835,34.0567473 17.2308835,32.8387473 C13.8868835,31.6217473 14.7138835,26.9407473 16.5938835,23.2207473 C19.6438835,17.1867473 26.8848835,9.77474726 31.2388835,10.8887473 C35.6398835,12.0127473 31.9948835,19.1567473 31.9948835,19.1567473 C31.9948835,19.1567473 32.8688835,19.2707473 34.9708835,17.8387473 C37.9998835,15.7797473 41.9808835,10.2287473 46.3008835,10.8817473 C48.3268835,11.1857473 50.2138835,13.2697473 47.6318835,17.2197473 C46.8048835,18.4867473 45.4158835,19.6217473 44.3518835,18.5007473 C43.6928835,17.8067473 44.2658835,16.5317473 44.9608835,15.6607473 C45.9418835,14.4267473 47.2958835,14.5977473 47.2958835,14.5977473 C47.2958835,14.5977473 48.0048835,12.9577473 46.1958835,12.9907473 C44.7278835,13.0187473 41.0078835,16.4417473 38.9058835,19.9007473 C36.9788835,23.0777473 34.0608835,28.4877473 36.9938835,29.6697473 C39.6788835,30.7547473 44.7888835,24.6897473 47.1558835,21.5097473 C49.5258835,18.3327473 54.9118835,11.1247473 59.4348835,10.8347473 C60.9918835,10.7347473 61.9198835,12.1527473 61.9198835,12.1527473 L62.4428835,11.3247473 L66.9578835,11.3287473 C66.9578835,11.3287473 58.4388835,25.5487473 57.7698835,26.6227473 C57.2428835,27.4677473 56.5478835,29.3577473 58.4778835,28.2977473 C60.4048835,27.2377473 64.4148835,22.0817473 64.4148835,22.0817473 L64.4148835,22.0817473 Z M29.3588835,20.6217473 C29.2808835,20.5917473 28.1418835,20.2667473 27.0318835,19.5537473 C25.9218835,18.8447473 25.4098835,17.7917473 25.3698835,17.7167473 C25.3268835,17.6457473 25.2838835,17.6987473 25.2408835,17.7637473 C25.1948835,17.8237473 24.9588835,18.1287473 23.3438835,20.4957473 C21.7318835,22.8587473 19.3398835,27.7077473 21.5778835,28.5347473 C23.0108835,29.0647473 25.4168835,26.5507473 26.7198835,24.8857473 C27.9268835,23.3427473 29.3658835,20.9647473 29.4308835,20.8257473 C29.4948835,20.6817473 29.4378835,20.6497473 29.3588835,20.6207473 L29.3588835,20.6217473 Z M31.1528835,13.0617473 C29.9678835,12.1667473 26.9528835,14.2617473 26.9348835,16.4027473 C26.9168835,18.5977473 29.6598835,19.2247473 30.0148835,19.2427473 C30.0148835,19.2427473 30.3228835,19.3287473 30.4478835,19.0667473 C30.5268835,18.9017473 30.8988835,18.2187473 31.3138835,17.1267473 C31.7258835,16.0367473 32.2528835,13.8997473 31.1538835,13.0617473 L31.1528835,13.0617473 Z M54.1668835,24.9177473 C55.9928835,22.4147473 61.0318835,13.6487473 61.0318835,13.6487473 C61.0318835,13.6487473 60.9488835,13.0337473 60.3618835,13.0047473 C59.6668835,12.9727473 58.5108835,13.2047473 56.1968835,16.0947473 C53.8808835,18.9847473 52.0968835,21.2867473 50.7898835,23.6747473 C49.3618835,26.2857473 48.7348835,28.1267473 49.5548835,28.6277473 C49.7848835,28.7677473 50.1348835,28.7847473 50.4178835,28.7177473 C50.9548835,28.5847473 51.6538835,28.0477473 52.6128835,26.9407473 C53.0608835,26.4287473 53.5728835,25.7347473 54.1668835,24.9177473 L54.1668835,24.9177473 Z M74.4808835,11.3537473 L70.1908835,11.3507473 L67.7668835,15.2707473 L72.0568835,15.2747473 L74.4808835,11.3547473 L74.4808835,11.3537473 Z M137.825884,4.33874726 C134.652884,6.37674726 130.255884,8.22474726 126.033884,7.81574726 C124.966884,8.92274726 123.820884,10.2007473 122.674884,11.5937473 C129.997884,13.0407473 136.410884,8.50674726 139.819884,4.64374726 C141.950884,2.23374726 142.999884,0.0817472566 142.999884,0.0817472566 C142.999884,0.0817472566 140.965884,2.31974726 137.825884,4.33874726 L137.825884,4.33874726 Z M125.249884,37.6047473 C124.640884,38.5787473 123.953884,40.4407473 125.958884,39.2807473 C128.400884,37.8697473 131.884884,32.5877473 131.884884,32.5877473 L133.460884,32.5877473 C133.460884,32.5877473 131.383884,35.8677473 128.676884,38.8617473 C126.198884,41.6047473 123.179884,44.1007473 121.052884,43.8497473 C118.567884,43.5627473 119.348884,40.2977473 119.348884,40.2977473 C119.348884,40.2977473 115.781884,44.0857473 113.328884,43.8107473 C110.009884,43.4447473 111.019884,39.3347473 111.019884,39.3347473 C111.019884,39.3347473 107.263884,43.9537473 104.702884,43.8067473 C100.688884,43.5767473 101.698884,38.6787473 102.815884,35.2517473 C103.413884,33.4147473 103.968884,31.9687473 103.968884,31.9687473 C103.968884,31.9687473 103.571884,32.0727473 102.718884,32.1977473 C102.271884,32.2627473 101.458884,32.3057473 101.458884,32.3057473 C101.458884,32.3057473 99.7868835,35.2557473 98.4508835,37.0287473 C97.1108835,38.8047473 91.4288835,44.9057473 88.0848835,43.6847473 C84.9948835,42.5537473 86.0148835,37.8197473 87.8158835,34.0597473 C90.4438835,28.5777473 97.8318835,20.6997473 102.088884,21.7307473 C106.507884,22.8017473 102.188884,30.8617473 102.188884,30.8617473 C102.188884,30.8617473 102.188884,30.8947473 102.235884,30.9117473 C102.325884,30.9477473 102.554884,30.9697473 103.087884,30.8697473 C103.936884,30.7077473 104.702884,30.3897473 104.702884,30.3897473 C104.702884,30.3897473 109.142884,21.0897473 114.048884,15.0097473 C118.950884,8.92574726 128.740884,-1.54825274 132.582884,0.987747257 C133.524884,1.61074726 133.094884,3.75574726 131.827884,6.36174726 C131.268884,6.53774726 130.688884,6.69174726 130.094884,6.81674726 C130.939884,5.28074726 131.501884,3.98474726 131.666884,3.08174726 C132.242884,-0.0612527434 124.905884,6.56274726 119.659884,13.6917473 C114.413884,20.8217473 111.266884,27.2777473 111.266884,27.2777473 C111.266884,27.2777473 112.322884,26.6797473 113.973884,25.3517473 C115.695884,23.9657473 118.062884,21.7917473 120.637884,19.1347473 C122.366884,17.3477473 124.404884,15.1027473 126.305884,12.5927473 C126.875884,12.5637473 127.430884,12.5067473 127.974884,12.4207473 C125.850884,15.2787473 123.616884,17.8887473 121.718884,19.8077473 C119.631884,21.9207473 117.364884,24.1977473 115.395884,25.8597473 C112.265884,28.4917473 109.848884,29.9817473 109.848884,29.9817473 C109.848884,29.9817473 105.250884,39.2197473 107.746884,39.8177473 C109.214884,40.1677473 112.111884,35.7077473 112.111884,35.7077473 C112.111884,35.7077473 115.889884,29.9417473 118.166884,27.3497473 C121.274884,23.8147473 123.949884,21.7737473 126.620884,21.7307473 C128.178884,21.7027473 129.098884,23.3637473 129.098884,23.3637473 L129.832884,22.2287473 L134.344884,22.2327473 C134.344884,22.2357473 125.922884,36.5307473 125.249884,37.6047473 Z M99.8798835,31.9617473 C99.8008835,31.9367473 98.8238835,31.4887473 97.8068835,30.6397473 C96.7928835,29.7947473 96.2808835,28.8247473 96.2418835,28.7497473 C96.2018835,28.6777473 96.1558835,28.7317473 96.1118835,28.7927473 C96.0698835,28.8527473 95.8868835,29.0147473 94.2718835,31.3777473 C92.6608835,33.7447473 90.1938835,38.6217473 92.4318835,39.4527473 C93.8638835,39.9827473 96.2488835,37.4757473 97.5518835,35.8147473 C98.7618835,34.2707473 99.8908835,32.3047473 99.9518835,32.1617473 C100.015884,32.0257473 99.9618835,31.9937473 99.8798835,31.9617473 L99.8798835,31.9617473 Z M102.163884,27.9717473 C102.579884,26.8837473 103.109884,24.7457473 102.006884,23.9077473 C100.821884,23.0127473 97.8068835,25.1077473 97.7888835,27.2487473 C97.7708835,29.4437473 99.9118835,30.4357473 100.430884,30.5757473 C100.724884,30.6547473 100.824884,30.6437473 100.967884,30.4077473 C101.053884,30.2537473 101.744884,29.0607473 102.163884,27.9727473 L102.163884,27.9717473 Z M128.074884,24.9677473 C128.164884,24.8077473 128.207884,24.6637473 128.207884,24.6637473 C128.207884,24.6637473 128.124884,24.0477473 127.537884,24.0187473 C126.842884,23.9867473 125.886884,24.1187473 123.394884,26.8807473 C120.913884,29.6307473 119.401884,32.0187473 118.091884,34.4067473 C116.662884,37.0167473 116.086884,38.9617473 116.906884,39.4597473 C117.135884,39.5997473 117.486884,39.6167473 117.769884,39.5497473 C118.327884,39.4127473 118.954884,38.8937473 119.917884,37.7877473 C120.365884,37.2677473 120.866884,36.5307473 121.460884,35.7137473 C123.104884,33.4687473 127.254884,26.3937473 128.074884,24.9677473 L128.074884,24.9677473 Z M137.825884,4.33874726 C134.652884,6.37674726 130.255884,8.22474726 126.033884,7.81574726 C124.966884,8.92274726 123.820884,10.2007473 122.674884,11.5937473 C129.997884,13.0407473 136.410884,8.50674726 139.819884,4.64374726 C141.950884,2.23374726 142.999884,0.0817472566 142.999884,0.0817472566 C142.999884,0.0817472566 140.965884,2.31974726 137.825884,4.33874726 L137.825884,4.33874726 Z M117.239884,9.63874726 C113.776884,7.86274726 111.244884,5.69274726 108.609884,4.33874726 C106.095884,3.04674726 104.469884,2.50874726 102.439884,2.77874726 C102.103884,2.82474726 101.601884,2.98574726 101.601884,2.98574726 C101.601884,2.98574726 102.647884,6.55874726 98.4868835,12.5637473 C94.2688835,18.6477473 90.4408835,18.6117473 89.3558835,16.9327473 C88.2168835,15.1677473 89.6858835,11.5687473 92.1418835,8.37074726 C94.7118835,5.02274726 99.2348835,2.24474726 99.2348835,2.24474726 C99.2348835,2.24474726 97.7918835,1.36374726 94.2548835,3.36874726 C90.8058835,5.31674726 84.8508835,9.96474726 79.3478835,17.8067473 C73.8438835,25.6447473 72.7448835,29.9637473 71.9458835,33.3577473 C71.1468835,36.7557473 71.8738835,40.3907473 75.6408835,40.3947473 C79.4108835,40.3977473 83.7948835,34.6507473 85.0308835,32.6527473 C87.3288835,28.9327473 88.8288835,23.2277473 85.6998835,24.0127473 C84.1558835,24.3987473 82.9098835,26.1067473 82.1228835,27.7467473 C81.3128835,29.4367473 80.9868835,31.0487473 80.9868835,31.0487473 C80.9868835,31.0487473 79.6838835,31.5137473 77.9368835,32.8247473 C76.1858835,34.1347473 75.0398835,35.3807473 75.0398835,35.3807473 C75.0398835,35.3807473 75.0498835,32.6667473 77.2168835,28.2727473 C79.3798835,23.8797473 83.3538835,21.8707473 85.6028835,21.6847473 C87.6328835,21.5197473 90.2688835,23.2417473 88.0338835,29.5977473 C85.7998835,35.9537473 79.2038835,43.6597473 72.2718835,43.7567473 C65.8758835,43.8467473 61.6898835,35.6817473 70.5918835,21.4407473 C80.4398835,5.69274726 92.0058835,0.861747257 95.7548835,0.324747257 C99.5108835,-0.212252743 100.724884,1.44174726 100.724884,1.44174726 C100.724884,1.44174726 103.868884,-0.0082527434 107.857884,0.263747257 C112.440884,0.575747257 115.985884,3.81974726 120.655884,6.09674726 C119.448884,7.28274726 118.284884,8.49674726 117.239884,9.63874726 Z M100.176884,3.45474726 C100.176884,3.45474726 97.4948835,4.52174726 94.3798835,7.95474726 C91.2498835,11.4007473 89.4448835,15.2567473 90.7878835,16.2807473 C91.3038835,16.6707473 92.4928835,16.7357473 94.6558835,14.7947473 C96.3418835,13.2807473 98.0608835,11.2967473 99.2278835,8.45674726 C100.620884,5.05474726 100.176884,3.49674726 100.176884,3.45474726 Z" id="Shape"></path>
        </g>
    </g>
</svg>