<?xml version="1.0" encoding="UTF-8"?>
<svg width="125px" height="57px" viewBox="0 0 125 57" version="1.1" xmlns="http://www.w3.org/2000/svg" xmlns:xlink="http://www.w3.org/1999/xlink">
    <title>Logo / Primary</title>
    <defs>
        <polygon id="path-1" points="0 0.05521875 36.011244 0.05521875 36.011244 11.4246406 0 11.4246406"></polygon>
        <polygon id="path-3" points="0.538397129 0.5092 51.0382775 0.5092 51.0382775 17.3200437 0.538397129 17.3200437"></polygon>
    </defs>
    <g id="Symbols" stroke="none" stroke-width="1" fill="none" fill-rule="evenodd">
        <g id="Footer-/-Desktop" transform="translate(-20.000000, -52.000000)">
            <g id="Group-61" transform="translate(20.000000, 52.000000)">
                <path d="M87.4807416,12.8925094 L87.5363636,13.8971344 L87.5363636,13.8751656 L91.8485646,13.8751656 L91.8485646,13.8959469 L91.8988038,12.8794469 C91.8988038,12.8794469 90.9771531,13.1139781 89.6266746,13.1139781 C88.3802632,13.1139781 87.4807416,12.8925094 87.4807416,12.8925094" id="Fill-1" fill="#FDD009"></path>
                <path d="M78.4136962,13.0269938 L78.4136962,13.9348375 C79.6858254,13.4117438 84.2330742,11.9255875 85.1882177,16.9683063 C85.2575957,17.3554313 85.2964713,17.7781813 85.2964713,18.253775 L85.2964713,17.346525 C85.2964713,16.871525 85.2575957,16.4481813 85.1882177,16.0610563 C84.2330742,11.0183375 79.6858254,12.5039 78.4136962,13.0269938" id="Fill-3" fill="#FDD009"></path>
                <path d="M102.949821,13.512325 C102.190849,12.9001687 101.121471,12.457825 99.6776914,12.457825 C97.230323,12.457825 95.1113038,13.840075 94.0855861,16.3231375 C93.8816388,16.7773562 93.6812799,17.3633875 93.584988,18.0539187 L93.5819976,18.067575 L93.5837919,18.0616375 C93.4647727,18.9255437 93.508433,19.9491687 93.9133373,21.074325 L93.924701,21.1034187 C93.8672847,20.9193562 93.8230263,20.7335125 93.7913278,20.5441062 L93.7913278,20.532825 C93.7769737,20.4627625 93.765012,20.3944812 93.7542464,20.323825 L93.7524522,20.2911687 C93.7470694,20.2591062 93.7416866,20.22645 93.7392943,20.195575 C93.7345096,20.1730125 93.7321172,20.1534187 93.730323,20.1296687 C93.7255383,20.0952312 93.7225478,20.0607937 93.7183612,20.0275437 C93.716567,19.996075 93.7141746,19.9616375 93.7111842,19.9283875 L93.7075957,19.8761375 C93.7040072,19.8458562 93.7022129,19.8143875 93.6998206,19.7817312 L93.695634,19.7294812 C93.695634,19.6962312 93.695634,19.6641687 93.6944378,19.630325 L93.6920455,19.5869812 C93.6920455,19.5359187 93.6920455,19.4890125 93.6920455,19.440325 C93.6920455,19.1761062 93.7087919,18.91545 93.7416866,18.6601375 C93.7590311,18.5170437 93.7823565,18.3787 93.8086722,18.2415437 C93.8397727,18.0853875 93.8780502,17.9327938 93.9205144,17.7819812 C93.9312799,17.7433875 93.9420455,17.7047937 93.9546053,17.6667937 C93.9976675,17.5201375 94.0455144,17.374075 94.1005383,17.2321687 L94.1208732,17.1834812 C94.1705144,17.0587937 94.2243421,16.937075 94.2823565,16.8165437 C94.3044856,16.7702312 94.3272129,16.7239187 94.3493421,16.6776062 C94.4055622,16.5677625 94.4641746,16.4597 94.5263756,16.3534187 C94.5610646,16.2946375 94.5969498,16.2370437 94.6340311,16.17945 C94.6824761,16.1022625 94.7327153,16.0262625 94.7841507,15.95145 C94.8266148,15.8914813 94.8684809,15.8315125 94.9127392,15.7721375 C94.9558014,15.716325 95.0000598,15.6617 95.0437201,15.6064812 C95.1328349,15.4966375 95.2249402,15.3903562 95.3212321,15.28645 C95.3505383,15.2543875 95.3804426,15.2217312 95.4103469,15.1902625 C95.4797249,15.1190125 95.5491029,15.0495437 95.6214713,14.9812625 L95.6322368,14.9723562 C95.7907297,14.823325 95.9581938,14.6832 96.1328349,14.5519812 L96.1537679,14.53595 C96.425299,14.3328875 96.7129785,14.1523875 97.0174043,13.9962312 L97.0197967,13.9885125 C97.0664474,13.96595 97.1125,13.9416062 97.1603469,13.9202312 L97.1657297,13.91845 C97.2243421,13.8905437 97.2835526,13.8656062 97.3433612,13.8388875 C97.4229067,13.8038562 97.5030502,13.7706062 97.5837919,13.7385437 C97.6430024,13.7153875 97.7022129,13.6916375 97.7614234,13.6702625 C97.8870215,13.6251375 98.0162081,13.5847625 98.1453947,13.54795 C98.1962321,13.5337 98.2482656,13.5206375 98.300299,13.507575 C98.4145335,13.4784812 98.529366,13.4523562 98.6465909,13.4292 C98.681878,13.4226687 98.7171651,13.4143562 98.7524522,13.407825 C98.9019737,13.3817 99.0538876,13.3621062 99.2075957,13.3472625 C99.2476675,13.3431062 99.2871411,13.3401375 99.3266148,13.336575 C99.4880981,13.3241063 99.6489833,13.3152 99.8146531,13.3152 C101.220156,13.3152 102.26262,13.6898563 103.001854,14.2087937 C103.111902,14.286575 103.214175,14.3685125 103.312261,14.4522312 L103.346352,14.4807312 C103.437261,14.5608875 103.522787,14.6434187 103.601734,14.7271375 L103.640012,14.7675125 C103.716567,14.8506375 103.788337,14.93495 103.854725,15.02045 L103.884031,15.0590437 C103.949821,15.1469187 104.010227,15.2353875 104.065251,15.3238562 L104.078409,15.3440437 C104.253648,15.6332 104.371471,15.9193875 104.434868,16.1788562 L104.436065,16.1824187 C104.457596,16.2697 104.473744,16.3540125 104.483313,16.4347625 L104.485706,16.3819187 C104.485706,15.616575 104.037141,14.3904812 102.949821,13.512325" id="Fill-5" fill="#FDD009"></path>
                <path d="M123.366507,12.4005281 L117.361124,16.7639969 C116.580024,14.2833094 114.26244,12.4842469 111.523804,12.4842469 C108.144019,12.4842469 105.557297,15.2255906 105.557297,18.6075906 C105.557297,19.1158406 105.619498,19.6092469 105.735526,20.0806844 L105.753469,20.0646531 C105.732536,19.8598094 105.720574,19.6525906 105.720574,19.4400281 C105.720574,16.0586219 108.459809,13.3154969 111.843182,13.3154969 C114.268421,13.3154969 116.361722,14.7226844 117.354545,16.7681531 L123.677512,13.6034656 L123.366507,12.4005281 Z" id="Fill-7" fill="#FDD009"></path>
                <polygon id="Fill-9" fill="#FDD009" points="78.4136962 8.8252625 74.1242225 7.9488875 74.1074761 8.767075 78.4136962 9.631575"></polygon>
                <path d="M11.4767943,8.75365625 L11.4672249,9.6436875 L12.8135167,9.90078125 L14.676555,10.2564375 L16.1861244,10.545 L16.1861244,9.9025625 C15.8386364,9.80934375 15.5114833,9.720875 15.2022727,9.63715625 C13.6663876,9.22034375 12.579067,8.9264375 11.4767943,8.75365625" id="Fill-11" fill="#FDD009"></path>
                <g id="Group-15" transform="translate(0.000000, 0.538709)">
                    <mask id="mask-2" fill="white">
                        <use xlink:href="#path-1"></use>
                    </mask>
                    <g id="Clip-14"></g>
                    <path d="M29.3162679,5.31317187 C29.6673445,5.31317187 30.0106459,5.30129687 30.337799,5.27635937 C31.517823,5.18967187 32.5417464,4.94148437 33.3958134,4.54307812 C34.8007177,3.88282812 35.4161483,2.96785937 35.823445,2.36282813 C35.8563397,2.31414062 35.8868421,2.27020312 35.9125598,2.22982812 L36.011244,2.08673437 C31.0746411,7.60682812 21.5339713,2.42042187 13.8659091,0.711609375 L13.8736842,0.708640625 C12.1745215,0.293015625 10.7032297,0.054921875 8.60873206,0.054921875 C6.309689,0.054921875 4.14700957,0.953265625 2.52021531,2.58014063 C0.895813397,4.20642187 -0.000119617225,6.36767187 -0.000119617225,8.67023437 C-0.000119617225,9.62260937 0.155382775,10.5494531 0.450239234,11.4246406 C0.422129187,11.2376094 0.402392344,11.0487969 0.387440191,10.8587969 L0.386842105,10.8576094 C0.384449761,10.8225781 0.382057416,10.7875469 0.379066986,10.7519219 C0.365311005,10.5506406 0.355741627,10.3481719 0.355741627,10.1439219 C0.355741627,7.84135937 1.25167464,5.68010937 2.87607656,4.05382812 C4.50287081,2.42635938 6.66555024,1.52860938 8.96399522,1.52860938 C9.13385167,1.52860938 9.29832536,1.53039063 9.45980861,1.53335937 L9.4604067,1.53335937 C9.51363636,1.53454687 9.56447368,1.53632812 9.61650718,1.53751563 L9.61710526,1.53751563 C9.72476077,1.54048437 9.8312201,1.54345312 9.93588517,1.54760937 L9.9388756,1.54760937 C10.0578947,1.55235937 10.1745215,1.55829687 10.2911483,1.56482812 C10.3252392,1.56660937 10.3605263,1.56839062 10.3946172,1.57076562 L10.3976077,1.57076562 C10.455622,1.57432812 10.5136364,1.57789062 10.5710526,1.58204687 L10.5740431,1.58204687 C10.6655502,1.58857812 10.7558612,1.59570312 10.8461722,1.60342187 C11.0782297,1.62301562 11.3049043,1.64557812 11.5267943,1.67229687 L11.5495215,1.67526562 C11.7564593,1.70079687 11.9604067,1.72870312 12.1625598,1.76017188 C12.1828947,1.76314062 12.2038278,1.76610937 12.2241627,1.76967187 L12.2247608,1.76967187 C12.2947368,1.78035937 12.3641148,1.79223437 12.4334928,1.80410937 C12.4950957,1.81420312 12.5572967,1.82489062 12.6194976,1.83617188 L12.6254785,1.83735937 C12.6900718,1.84923437 12.7558612,1.86051562 12.8204545,1.87298437 L12.823445,1.87357812 C12.8856459,1.88545312 12.948445,1.89792187 13.0106459,1.91039063 L13.0166268,1.91157812 C13.0842105,1.92464063 13.1517943,1.93829687 13.2199761,1.95195312 L13.2211722,1.95254687 C13.2726077,1.96323437 13.3246411,1.97451562 13.3754785,1.98579687 L13.3814593,1.98698437 C13.5752392,2.02854687 13.7714115,2.07248437 13.969378,2.11939062 L13.9723684,2.11998437 C14.0997608,2.15026562 14.2277512,2.18173437 14.3575359,2.21379687 L14.3712919,2.21735937 L14.37189,2.21735937 C14.462799,2.23992187 14.5555024,2.26307812 14.6482057,2.28682813 L14.6595694,2.28979687 C14.6942584,2.29870312 14.7289474,2.30760937 14.7636364,2.31651562 L14.7660287,2.31710937 C14.8736842,2.34501562 14.9819378,2.37292187 15.0919856,2.40201562 L15.094378,2.40260937 L15.1051435,2.40557812 C15.2923445,2.45485938 15.4837321,2.50592188 15.6799043,2.55876562 L15.6888756,2.56054687 L15.7008373,2.56410937 C15.7379187,2.57420312 15.7755981,2.58429687 15.8126794,2.59439063 C16.0130383,2.64842187 16.2169856,2.70364062 16.4293062,2.76123437 C18.3366029,3.27482812 20.9442584,3.98376562 25.0106459,4.82510937 C26.5818182,5.14751562 28.0297847,5.31317187 29.3162679,5.31317187" id="Fill-13" fill="#FDD009" mask="url(#mask-2)"></path>
                </g>
                <path d="M51.777512,12.4840094 C50.4940191,12.4840094 49.3038278,12.8800406 48.3199761,13.5551344 L48.3205742,13.5539469 L43.9563397,16.6913219 C43.152512,14.2486344 40.8546651,12.4840094 38.1441388,12.4840094 C36.8606459,12.4840094 35.6704545,12.8800406 34.6866029,13.5551344 L34.687201,13.5539469 L30.3385167,16.7245719 C29.5442584,14.2640719 27.2380383,12.4840094 24.5149522,12.4840094 C21.1345694,12.4840094 18.3947368,15.2259469 18.3947368,18.6073531 C18.3947368,19.4237594 18.555622,20.2021656 18.8456938,20.9146656 C18.847488,20.8440094 18.8522727,20.7739469 18.8564593,20.7032906 L18.8564593,20.7015094 L18.8564593,20.7009156 C18.8373206,20.6100719 18.8211722,20.5186344 18.805622,20.4260094 L18.8044258,20.4176969 L18.8026316,20.4087906 L18.8002392,20.3927594 C18.7864833,20.3078531 18.7757177,20.2217594 18.7661483,20.1350719 L18.7643541,20.1196344 L18.7625598,20.1101344 L18.7619617,20.1041969 C18.7523923,20.0115719 18.7446172,19.9183531 18.7392344,19.8245406 L18.7374402,19.8108844 L18.7374402,19.8001969 C18.7302632,19.6808531 18.7260766,19.5615094 18.7260766,19.4403844 C18.7260766,16.0583844 21.4683014,13.3152594 24.8480861,13.3152594 C27.2547847,13.3152594 29.3349282,14.7034469 30.3355263,16.7263531 L35.6441388,14.0135094 C36.4934211,13.5670094 37.4569378,13.3152594 38.4826555,13.3152594 C40.8761962,13.3152594 42.9437799,14.6903844 43.9551435,16.6919156 L49.5155502,13.8941656 C50.3032297,13.5236656 51.187201,13.3152594 52.1184211,13.3152594 C52.2344498,13.3152594 52.3486842,13.3206031 52.4623206,13.3277281 C52.5466507,13.3324781 52.6297847,13.3390094 52.7129187,13.3473219 L52.7135167,13.3473219 L52.7165072,13.3479156 C52.812201,13.3568219 52.9090909,13.3651344 53.0041866,13.3787906 L53.0053828,13.3793844 C53.1489234,13.4001656 53.2906699,13.4262906 53.4312201,13.4571656 L53.4318182,13.4571656 C53.507177,13.4731969 53.5807416,13.4945719 53.6549043,13.5141656 C53.7194976,13.5307906 53.784689,13.5450406 53.8486842,13.5640406 L53.8492823,13.5640406 C53.9019139,13.5794781 53.9521531,13.5984781 54.0041866,13.6151031 C54.0639952,13.6352906 54.125,13.6536969 54.1836124,13.6756656 C54.284689,13.7118844 54.3833732,13.7516656 54.4814593,13.7926344 L54.4844498,13.7938219 L54.4910287,13.7967906 L54.5203349,13.8086656 C54.6196172,13.8514156 54.7165072,13.8959469 54.812201,13.9434469 L54.8570574,13.9654156 C55.1244019,14.0996031 55.3809809,14.2527906 55.6244019,14.4237906 L55.625,14.4237906 L55.6519139,14.4421969 L55.652512,14.4427906 C55.7625598,14.5211656 55.8696172,14.6025094 55.9742823,14.6874156 C56.0795455,14.7735094 56.1812201,14.8619781 56.2799043,14.9540094 L56.2852871,14.9587594 C56.312201,14.9836969 56.3409091,15.0074469 56.3672249,15.0329781 C56.4605263,15.1232281 56.5496411,15.2164469 56.6369617,15.3120406 L56.6423445,15.3167906 L56.6566986,15.3322281 L56.6566986,15.3328219 C56.7266746,15.4100094 56.7930622,15.4901656 56.8582536,15.5709156 L56.8600478,15.5726969 L56.8995215,15.6196031 L56.8995215,15.6201969 C56.9730861,15.7116344 57.0430622,15.8060406 57.111244,15.9022281 L57.1118421,15.9040094 L57.1136364,15.9057906 L57.1393541,15.9414156 L57.1399522,15.9420094 C57.2111244,16.0441344 57.27811,16.1480406 57.3433014,16.2543219 C57.361244,16.2840094 57.3803828,16.3125094 57.3983254,16.3421969 L57.3983254,16.3427906 C57.4509569,16.4318531 57.5,16.5250719 57.548445,16.6176969 C57.562201,16.6450094 57.5783493,16.6711344 57.5927033,16.6990406 C56.7906699,14.2516031 54.4910287,12.4840094 51.777512,12.4840094" id="Fill-16" fill="#FDD009"></path>
                <path d="M89.5828349,4.89861563 C88.0158493,4.89861563 86.7443182,6.16983438 86.7443182,7.73733438 C86.7443182,7.91783438 86.7622608,8.09358438 86.7951555,8.26399063 C86.8077153,8.19511563 86.8250598,8.12802188 86.8430024,8.06092813 L86.8430024,8.05974063 L86.8430024,8.05914688 L86.8555622,8.00927188 C86.874701,7.94336563 86.8968301,7.87983438 86.9195574,7.81630313 L86.9297249,7.78780313 C86.9548445,7.72249063 86.9811603,7.65895938 87.0104665,7.59602188 L87.0104665,7.59542813 C87.0218301,7.57286563 87.0319976,7.55089688 87.0433612,7.52892813 C87.0744617,7.46658438 87.1073565,7.40542813 87.1432416,7.34605313 L87.1432416,7.34486563 L87.166567,7.30686563 L87.1677632,7.30567813 C87.1982656,7.25639688 87.2281699,7.20711563 87.2622608,7.16020938 L87.2622608,7.15961563 L87.2813995,7.13349063 C87.3250598,7.07352188 87.3693182,7.01533438 87.416567,6.95892813 L87.4201555,6.95595938 L87.4213517,6.95417813 C87.5170455,6.84136563 87.6211124,6.73745938 87.7323565,6.64127188 L87.7329545,6.64067813 C87.7772129,6.60267813 87.8244617,6.56645938 87.8711124,6.53083438 L87.8717105,6.53024063 L87.8723086,6.52964688 L87.8788876,6.52430313 C88.0308014,6.40970938 88.194677,6.31114688 88.368122,6.22861563 L88.3693182,6.22802188 C88.3884569,6.21911563 88.4063995,6.20902188 88.4255383,6.20011563 C88.4620215,6.18467813 88.4973086,6.16983438 88.5331938,6.15558438 L88.5331938,6.15499063 L88.534988,6.15499063 C88.5678828,6.14192813 88.6007775,6.13005313 88.6348684,6.11817813 C88.7233852,6.08611563 88.8154904,6.05939688 88.9081938,6.03683438 L88.909988,6.03624063 C89.0026914,6.01308438 89.097189,5.99527188 89.1940789,5.98220938 L89.194677,5.98220938 L89.2186005,5.97805313 L89.2215909,5.97805313 C89.249701,5.97389688 89.277811,5.96914688 89.3065191,5.96617813 L89.3077153,5.96617813 L89.3083134,5.96617813 C89.3980263,5.95786563 89.4901316,5.95252188 89.5828349,5.95252188 C89.6755383,5.95252188 89.7670455,5.95786563 89.8573565,5.96617813 L89.8585526,5.96617813 C89.8872608,5.96914688 89.9153708,5.97389688 89.9440789,5.97805313 L89.9458732,5.97805313 L89.9464713,5.97805313 L89.9703947,5.98220938 L89.9709928,5.98220938 C90.0607057,5.99408438 90.1474282,6.01011563 90.2347488,6.03030313 L90.2371411,6.03089688 C90.3220694,6.05108438 90.4069976,6.07542813 90.4901316,6.10333438 L90.4913278,6.10333438 C90.5385766,6.11936563 90.5846292,6.13658438 90.6306818,6.15439688 L90.6312799,6.15499063 C90.6671651,6.16924063 90.7030502,6.18408438 90.7383373,6.20011563 L90.7395335,6.20011563 L90.7933612,6.22683438 C90.8872608,6.27077188 90.9769737,6.32005313 91.0642943,6.37349063 L91.0672847,6.37527188 C91.1426435,6.42158438 91.215012,6.47145938 91.2861842,6.52430313 L91.2927632,6.52964688 L91.2933612,6.53024063 L91.2939593,6.53083438 C91.3412081,6.56645938 91.3878589,6.60267813 91.4321172,6.64067813 L91.4327153,6.64127188 C91.5439593,6.73745938 91.6486244,6.84136563 91.7437201,6.95417813 L91.7455144,6.95595938 L91.7491029,6.95892813 C91.7957536,7.01533438 91.840012,7.07352188 91.8830742,7.13349063 L91.902811,7.15961563 L91.9034091,7.15961563 L91.9034091,7.16020938 C92.03439,7.34605313 92.1420455,7.54852188 92.2263756,7.76345938 L92.2269737,7.76405313 L92.2365431,7.79136563 C92.2628589,7.86261563 92.2873804,7.93505313 92.3095096,8.00927188 L92.3226675,8.05914688 L92.3226675,8.05974063 L92.3226675,8.06092813 C92.340012,8.12802188 92.3573565,8.19511563 92.3699163,8.26399063 C92.402811,8.09358438 92.4207536,7.91783438 92.4207536,7.73733438 C92.4207536,6.16983438 91.1498206,4.89861563 89.5828349,4.89861563" id="Fill-18" fill="#FDD009"></path>
                <path d="M61.1246411,13.965475 L57.6210526,16.7531313 L60.8782297,15.1221 L62.4200957,14.350225 C62.6252392,13.5302563 62.8913876,12.7245375 63.2221292,11.9401938 C64.0349282,10.013475 65.2005981,8.28625625 66.6838517,6.80188125 C68.1659091,5.31988125 69.8931818,4.15494375 71.8166268,3.33913125 C73.8088517,2.4966 75.9260766,2.06731875 78.1078947,2.06731875 C80.8489234,2.06731875 83.5600478,2.76913125 85.9404306,4.0926 L86.0163876,4.13535 C83.5720096,2.21456875 80.3632775,1.3292875 77.0570574,1.3292875 C69.3578947,1.3292875 62.9039474,6.75735 61.1246411,13.965475" id="Fill-20" fill="#FDD009"></path>
                <path d="M24.0584928,9.97102188 C25.9328947,10.3587406 27.6978469,10.5546781 29.3061005,10.5546781 C31.2397129,10.5546781 32.9897129,10.2702719 34.5106459,9.71095937 L34.5148325,9.70858438 L34.5184211,9.70561563 C34.5566986,9.68839688 34.594378,9.66999062 34.6314593,9.65395937 C36.0297847,8.98361563 36.9394737,7.80205312 37.1912679,6.33014687 C37.4161483,5.01202187 37.059689,3.57930313 36.3252392,2.84720937 C36.2869617,2.80802188 36.2235646,2.75695937 36.1751196,2.72608438 L36.0214115,2.61089688 L35.9131579,2.76883438 C35.8868421,2.80920938 35.8569378,2.85255312 35.8240431,2.90183437 C35.4161483,3.50627187 34.8013158,4.42124063 33.3958134,5.08149063 C32.5417464,5.47989688 31.5184211,5.72867813 30.337799,5.81477188 C30.011244,5.83970938 29.6673445,5.85217813 29.316866,5.85217813 C28.0297847,5.85217813 26.5818182,5.68652188 25.0106459,5.36352187 C20.9442584,4.52217813 18.337201,3.81324063 16.4293062,3.30024063 C13.6045455,2.53192813 11.8964115,2.06702188 8.9645933,2.06702188 C6.66555024,2.06702188 4.50287081,2.96536562 2.87607656,4.59283438 C1.25167464,6.21911562 0.356339713,8.37977187 0.356339713,10.6823344 C0.356339713,12.9854906 1.25167464,15.1461469 2.87607656,16.7730219 C4.50287081,18.3998969 6.66555024,19.2970531 8.9645933,19.2970531 L9.15059809,19.2970531 L9.15059809,16.2386469 C6.56028708,16.2101469 4.47057416,14.1053031 4.47057416,11.5076469 C4.47057416,9.77330313 5.4041866,8.26042813 6.78935407,7.43630312 C7.42930622,7.00464688 8.17990431,6.77367812 8.9645933,6.77367812 C9.03576555,6.77367812 9.10394737,6.77486563 9.1715311,6.77486563 L9.20083732,6.77486563 L9.26961722,6.77486563 C11.3904306,6.80752187 12.7026316,7.16139688 15.2026316,7.84064688 C17.1673445,8.37086563 19.8539474,9.10058438 24.0584928,9.97102188" id="Fill-22" fill="#FFFFFF"></path>
                <path d="M89.5828349,11.6296031 C91.1498206,11.6296031 92.4207536,10.3583844 92.4207536,8.79088438 C92.4207536,7.22338438 91.1498206,5.95216563 89.5828349,5.95216563 C88.0158493,5.95216563 86.7443182,7.22338438 86.7443182,8.79088438 C86.7443182,10.3583844 88.0158493,11.6296031 89.5828349,11.6296031" id="Fill-24" fill="#FFFFFF"></path>
                <path d="M88.1436603,27.1665563 C88.0049043,27.1570563 87.8619617,27.150525 87.7208134,27.150525 C87.6269139,27.150525 87.5276316,27.1523063 87.4295455,27.1582438 C87.3870813,27.1612125 87.3470096,27.1629938 87.3045455,27.1665563 L87.3003589,27.1665563 L87.2967703,27.1665563 C86.1370813,27.340525 84.9361244,27.6997438 83.7136364,28.2370875 C83.5497608,28.3160563 83.3805024,28.3914625 83.2118421,28.4650875 L83.1143541,28.5131813 C83.0132775,28.5624625 82.9217703,28.6064 82.8278708,28.6479625 C81.3416268,29.3224625 79.7543062,29.6674313 78.1083732,29.6674313 C75.0563397,29.6674313 72.1861244,28.4751813 70.0276316,26.3174938 C68.0892344,24.3771188 66.933134,21.8596188 66.7202153,19.1527125 C66.6448565,18.6088375 66.6005981,18.0524938 66.6005981,17.4848688 C66.6005981,10.89365 71.9438995,5.55286875 78.5294258,5.55286875 C80.6358852,5.55286875 82.6155502,6.1009 84.3338517,7.05980625 L86.037799,4.1474625 L85.9397129,4.0928375 C83.5599282,2.768775 80.8488038,2.06755625 78.1083732,2.06755625 C75.9259569,2.06755625 73.8087321,2.4968375 71.8165072,3.33936875 C69.8930622,4.15518125 68.1663876,5.32011875 66.6837321,6.80211875 C65.2010766,8.28649375 64.0342105,10.0137125 63.2220096,11.9404313 C62.8912679,12.724775 62.6251196,13.5304938 62.4199761,14.3498688 L57.620933,16.7533688 C56.6257177,14.7185875 54.5366029,13.3155563 52.1185407,13.3155563 C51.1873206,13.3155563 50.3033493,13.522775 49.5156699,13.8938688 L43.9552632,16.6916188 C42.9444976,14.6900875 40.8763158,13.3155563 38.4827751,13.3155563 C37.4570574,13.3155563 36.4935407,13.5667125 35.6442584,14.0138063 L30.3356459,16.7260563 C29.3350478,14.7037438 27.2549043,13.3155563 24.8482057,13.3155563 C21.4684211,13.3155563 18.7261962,16.0586813 18.7261962,19.4400875 C18.7261962,22.823275 21.4684211,25.5675875 24.8482057,25.5675875 C28.2297847,25.5675875 30.9690191,22.823275 30.9690191,19.4400875 C30.9690191,19.2411813 30.9606459,19.0464313 30.9421053,18.8528688 L32.3577751,18.4894938 L32.3577751,29.87465 L36.6687799,29.87465 L36.6687799,25.2926813 C37.2411483,25.4714 37.85,25.5675875 38.4827751,25.5675875 C41.8631579,25.5675875 44.6059809,22.823275 44.6059809,19.4400875 C44.6059809,19.2310875 44.5940191,19.0250563 44.5748804,18.8214 L46.0784689,18.43665 C46.0246411,18.7644 45.9947368,19.099275 45.9947368,19.4400875 C45.9947368,22.823275 48.7351675,25.5675875 52.1185407,25.5675875 C55.4989234,25.5675875 58.2411483,22.823275 58.2411483,19.4400875 C58.2411483,19.2447438 58.2315789,19.0482125 58.211244,18.8576188 L61.9552632,17.8969313 C61.9528708,18.0085563 61.9498804,18.1195875 61.9498804,18.2341813 C61.9498804,20.415025 62.3787081,22.53115 63.2220096,24.52615 C64.0342105,26.4516813 65.2010766,28.181275 66.6837321,29.6638688 C68.1663876,31.14765 69.8930622,32.3119938 71.8165072,33.1272125 C73.8087321,33.9703375 75.9259569,34.3978375 78.1083732,34.3978375 C80.4343301,34.3978375 82.6807416,33.9127438 84.7836124,32.9556188 C85.0270335,32.8451813 85.2680622,32.7305875 85.50311,32.6076813 L85.5114833,32.6053063 C86.5916268,32.1178375 87.6161483,31.84115 88.5533493,31.7799938 C88.6873206,31.7728688 88.8183014,31.7663375 88.9480861,31.7663375 C90.2967703,31.7663375 91.1550239,32.2128375 91.7842105,32.5382125 C91.8356459,32.5625563 91.8816986,32.5880875 91.9247608,32.6112438 L92.0808612,32.6896188 L92.1544258,32.5287125 C92.1891148,32.4568688 92.2142344,32.3939313 92.2279904,32.3505875 C92.5198565,31.3507125 92.141866,29.9132438 91.3027512,28.8551813 C90.5114833,27.8576813 89.4211722,27.2734313 88.1436603,27.1665563 M25.2662679,21.7664 C23.8906699,21.7664 22.7776316,20.65015 22.7776316,19.2756188 C22.7776316,18.2282438 23.4205742,17.3328688 24.3350478,16.9623688 C24.2997608,17.1357438 24.2788278,17.3120875 24.2788278,17.493775 C24.2788278,18.8724625 25.3936603,19.987525 26.7674641,19.987525 C27.0964115,19.987525 27.4116029,19.9216188 27.697488,19.807025 C27.4552632,20.9250563 26.4582536,21.7664 25.2662679,21.7664 M27.5407895,18.1546188 L27.4169856,18.2169625 C27.2997608,18.2644625 27.1687799,18.291775 27.0336124,18.291775 C26.4917464,18.291775 26.0473684,17.8518063 26.0473684,17.3043688 C26.0473684,16.7610875 26.4917464,16.3175563 27.0336124,16.3175563 C27.5820574,16.3175563 28.0222488,16.7610875 28.0222488,17.3043688 C28.0222488,17.6677438 27.8284689,17.9812438 27.5407895,18.1546188 M38.9995215,21.91365 C37.5282297,21.91365 36.3368421,20.7219938 36.3368421,19.25365 C36.3368421,17.7847125 37.5282297,16.59365 38.9995215,16.59365 C40.4660287,16.59365 41.6574163,17.7847125 41.6574163,19.25365 C41.6574163,20.7219938 40.4660287,21.91365 38.9995215,21.91365 M52.5336124,21.7664 C51.1598086,21.7664 50.044378,20.65015 50.044378,19.2756188 C50.044378,18.2282438 50.6921053,17.3328688 51.6059809,16.9623688 C51.5694976,17.1357438 51.5485646,17.3120875 51.5485646,17.493775 C51.5485646,18.8724625 52.6633971,19.987525 54.0366029,19.987525 C54.3661483,19.987525 54.6801435,19.9216188 54.967823,19.807025 C54.7238038,20.9250563 53.7297847,21.7664 52.5336124,21.7664 M54.3033493,18.291775 C53.7578947,18.291775 53.3165072,17.8518063 53.3165072,17.3043688 C53.3165072,16.7610875 53.7578947,16.3175563 54.3033493,16.3175563 C54.8494019,16.3175563 55.2925837,16.7610875 55.2925837,17.3043688 C55.2925837,17.8518063 54.8494019,18.291775 54.3033493,18.291775" id="Fill-26" fill="#FFFFFF"></path>
                <polygon id="Fill-28" fill="#FFFFFF" points="96.4812799 29.2446813 95.6152512 29.2446813 95.6152512 31.3934625 95.2749402 31.3934625 95.2749402 29.2446813 94.4089115 29.2446813 94.4089115 28.9377125 96.4812799 28.9377125"></polygon>
                <polygon id="Fill-30" fill="#FFFFFF" points="99.6013158 31.3935219 99.2705742 31.3935219 99.2705742 29.3533969 98.3405502 31.3424594 98.1049043 31.3424594 97.1844498 29.3884281 97.1844498 31.3935219 96.8543062 31.3935219 96.8543062 28.9377719 97.3142344 28.9377719 98.227512 30.8918031 99.1407895 28.9377719 99.6013158 28.9377719"></polygon>
                <g id="Group-34" transform="translate(73.564593, 8.257459)">
                    <mask id="mask-4" fill="white">
                        <use xlink:href="#path-3"></use>
                    </mask>
                    <g id="Clip-33"></g>
                    <path d="M51.0383971,8.8977 L50.1125598,5.34648125 L43.7901914,8.5117625 C42.7967703,6.4645125 40.704067,5.057325 38.2782297,5.057325 C34.8954545,5.057325 32.155622,7.80045 32.155622,11.1830437 C32.155622,11.3944187 32.1675837,11.602825 32.1891148,11.807075 C30.704067,13.3074812 28.1574163,14.2788562 25.8177033,13.056325 L25.8177033,13.05395 C25.0013158,12.6448562 24.4427033,11.8035125 24.4427033,10.8267937 C24.4427033,9.945075 24.9032297,9.16845 25.592823,8.72610625 C25.9163876,8.520075 26.2913876,8.38648125 26.6915072,8.3467 L26.7184211,8.34491875 C26.7471292,8.34135625 26.7776316,8.34135625 26.8045455,8.34016875 L26.8440191,8.3383875 L26.8948565,8.34016875 L26.9462919,8.3383875 C27.9104067,8.3383875 28.6921053,9.1221375 28.6921053,10.0834187 C28.6921053,10.4473875 28.5814593,10.785825 28.3924641,11.0637 C28.759689,11.0429187 29.1089713,10.9508875 29.4241627,10.7988875 C30.3171053,10.3642625 30.9337321,9.4475125 30.9337321,8.3835125 C30.9337321,7.7351375 30.495933,6.696075 29.4367225,5.9515125 C28.6980861,5.432575 27.6562201,5.057325 26.2495215,5.057325 C23.2794258,5.057325 20.7979665,7.175825 20.2441388,9.98366875 C20.2172249,10.1214187 20.1944976,10.2597625 20.176555,10.4022625 C20.1442584,10.6581687 20.127512,10.918825 20.127512,11.1830437 C20.127512,11.2317312 20.127512,11.2786375 20.12811,11.3297 L20.1305024,11.3730437 C20.1316986,11.4068875 20.1316986,11.4383562 20.1316986,11.4727937 L20.1358852,11.52445 C20.1382775,11.5571062 20.1388756,11.5879812 20.1430622,11.6188562 L20.1466507,11.6711062 C20.1496411,11.7043562 20.1526316,11.7382 20.1544258,11.7702625 C20.1580144,11.8035125 20.1610048,11.8373562 20.1657895,11.8723875 C20.1675837,11.8961375 20.169378,11.9157312 20.1741627,11.9382937 C20.176555,11.9691687 20.1825359,12.001825 20.1879187,12.0327 L20.1891148,12.0665437 C20.1998804,12.1366062 20.2118421,12.2054812 20.2261962,12.27495 L20.2261962,12.2862312 C20.2584928,12.4756375 20.3027512,12.6626687 20.3601675,12.8455437 C20.1610048,13.1697312 19.8099282,13.38645 19.4026316,13.38645 C18.7848086,13.38645 18.2836124,12.8835437 18.2836124,12.2648562 L18.2836124,5.61841875 L13.9714115,5.61841875 L13.9714115,12.1330437 L13.9648325,12.1176062 C13.9702153,12.1651062 13.9714115,12.2132 13.9714115,12.2648562 C13.9714115,12.8835437 13.4708134,13.38645 12.8505981,13.38645 C12.2333732,13.38645 11.7315789,12.8835437 11.7315789,12.2648562 L11.7315789,9.99673125 C11.7315789,9.52173125 11.6927033,9.0983875 11.6233254,8.7112625 C10.6687799,3.66795 6.12093301,5.1535125 4.84880383,5.6772 L4.84880383,1.37429375 L0.538397129,0.5092 L0.538397129,16.7530125 L4.84880383,16.7530125 L4.84880383,9.90529375 C4.84880383,9.1957625 5.42356459,8.61566875 6.13648325,8.61566875 C6.84521531,8.61566875 7.42236842,9.1957625 7.42236842,9.90529375 L7.42236842,13.9386375 L7.42236842,13.9427937 C7.42236842,15.806575 9.01507177,17.3152937 10.9773923,17.3152937 C12.2381579,17.3152937 13.3416268,16.69245 13.9714115,15.7555125 C14.0814593,15.5946062 14.1735646,15.426575 14.2519139,15.2478562 C14.5240431,15.8665437 14.9833732,16.3890437 15.5635167,16.7530125 C16.1293062,17.1068875 16.8033493,17.3152937 17.5258373,17.3152937 C19.3458134,17.3152937 20.8422249,16.0185437 21.0557416,14.3477312 C22.2094498,16.1272 24.329067,17.3200437 26.648445,17.3200437 C26.7471292,17.3200437 26.7644737,17.317075 26.8326555,17.3200437 C28.3188995,17.3200437 31.0019139,17.041575 33.329067,14.7865125 C34.4391148,16.3160125 36.2429426,17.3105437 38.2782297,17.3105437 C41.6610048,17.3105437 44.3996411,14.5656375 44.3996411,11.1830437 C44.3996411,10.9882937 44.3906699,10.7988875 44.3769139,10.6094812 L51.0383971,8.8977 Z M38.6962919,13.5093562 C37.3206938,13.5093562 36.2046651,12.3931062 36.2046651,11.0179812 C36.2046651,9.97179375 36.8529904,9.07523125 37.7656699,8.70591875 C37.7291866,8.87929375 37.7088517,9.0556375 37.7088517,9.2361375 C37.7088517,10.6160125 38.8230861,11.7298875 40.1992823,11.7298875 C40.5264354,11.7298875 40.8434211,11.6639812 41.1316986,11.5499812 C40.8882775,12.6686062 39.8906699,13.5093562 38.6962919,13.5093562 L38.6962919,13.5093562 Z M40.4636364,10.0341375 C39.9187799,10.0341375 39.4791866,9.5947625 39.4791866,9.047325 C39.4791866,8.50345 39.9187799,8.05991875 40.4636364,8.05991875 C41.0108852,8.05991875 41.4534689,8.50345 41.4534689,9.047325 C41.4534689,9.5947625 41.0108852,10.0341375 40.4636364,10.0341375 L40.4636364,10.0341375 Z" id="Fill-32" fill="#FFFFFF" mask="url(#mask-4)"></path>
                </g>
                <path d="M16.2001794,27.1897719 L16.2001794,10.5475531 L11.4585526,9.64208437 L11.4585526,23.8754594 L11.4585526,29.1248031 C11.4585526,31.1049594 13.1481459,32.7146156 15.2264952,32.7146156 C16.5171651,32.7146156 17.7067584,32.0953344 18.4041268,31.0598344 C18.6912081,30.6329281 18.8754187,30.1597094 18.9537679,29.6686781 C18.8682416,29.6787719 18.7797249,29.6841156 18.6912081,29.6841156 C17.3138158,29.6841156 16.2001794,28.5666781 16.2001794,27.1897719" id="Fill-35" fill="#FFFFFF"></path>
                <path d="M29.1913278,45.6783156 C29.1913278,45.7768781 29.1494617,45.8326906 29.0788876,45.8754406 L28.5166866,46.1984406 L28.5166866,49.8280344 C28.5166866,50.5731906 28.4742225,50.6016906 27.7152512,50.6016906 C27.4760167,50.6016906 27.2936005,50.6016906 27.1668062,50.5874406 C26.8157297,50.5595344 26.8575957,50.2501906 26.8575957,49.8701906 L26.8438397,47.4221594 C26.8438397,47.1834719 26.8294856,46.9863469 26.7876196,46.8456281 C26.6751794,46.4519719 26.0705144,46.5077844 25.6626196,46.5362844 C25.255323,46.5641906 25.297189,46.9293469 25.297189,47.3235969 L25.297189,49.8844406 C25.297189,50.5452844 25.2409689,50.6016906 24.5519737,50.6016906 C24.0741029,50.6016906 23.8348684,50.6159406 23.7230263,50.5031281 C23.6243421,50.3903156 23.6243421,50.2074406 23.6243421,49.7009719 L23.6243421,46.1984406 L23.0621411,45.8754406 C22.991567,45.8326906 22.949701,45.7768781 22.949701,45.6783156 C22.949701,45.5934094 22.991567,45.5233469 23.0621411,45.4811906 L23.6243421,45.1575969 L23.6243421,41.4157844 C23.6243421,41.0642844 23.6524522,40.8671594 23.7230263,40.7970969 C23.8629785,40.6706281 24.706878,40.6842844 24.9742225,40.7127844 C25.3534091,40.7412844 25.297189,41.0642844 25.297189,41.4858469 L25.297189,43.8216594 C25.297189,44.2717219 25.2690789,44.5525656 25.4239833,44.7075344 C25.5926435,44.8625031 26.0842703,44.8625031 26.450299,44.8060969 C26.8719498,44.7639406 26.8438397,44.3281281 26.8438397,43.9196281 L26.8438397,42.6680031 C26.8438397,42.1193781 26.8438397,41.6972219 26.8575957,41.4157844 C26.8575957,41.0642844 26.8857057,40.8671594 26.9562799,40.7970969 C27.0824761,40.6706281 27.9263756,40.6842844 28.193122,40.7127844 C28.5729067,40.7412844 28.5166866,41.0642844 28.5166866,41.4300344 L28.5166866,45.1575969 L29.0788876,45.4811906 C29.1494617,45.5233469 29.1913278,45.5934094 29.1913278,45.6783156" id="Fill-37" fill="#FFFFFF"></path>
                <path d="M35.5938397,50.5170813 C35.4676435,50.64355 34.4694378,50.6019875 34.3563995,50.6019875 C34.2164474,50.5871438 34.1315191,50.5592375 34.075299,50.503425 C33.9491029,50.3900188 33.9347488,50.1798313 33.8785287,49.729175 C33.8504187,49.5183938 33.8366627,49.3497688 33.8085526,49.2369563 C33.7941986,49.0962375 33.7660885,48.4211438 33.2744617,48.4068938 C33.2038876,48.3926438 33.1620215,48.3926438 33.1620215,48.3926438 C32.4305622,48.3926438 32.318122,48.4211438 32.2337919,49.1383938 C32.2200359,49.2506125 32.1494617,49.6306125 32.0370215,50.2783938 C31.9951555,50.4885813 31.8827153,50.5871438 31.685945,50.5871438 C31.2499402,50.6019875 30.8845096,50.6019875 30.589055,50.5871438 C30.1955144,50.5734875 30.2936005,50.2783938 30.3504187,49.8698938 C30.6877392,47.9568313 30.8845096,46.7610188 30.9688397,46.2688 C30.9688397,46.2266438 30.9825957,46.1844875 30.9825957,46.1702375 L30.4903708,45.8757375 C30.4060407,45.8329875 30.3641746,45.777175 30.3641746,45.6786125 C30.3641746,45.5937063 30.4060407,45.52305 30.4903708,45.4820813 L31.16561,45.0872375 C31.4748206,43.3433938 31.685945,42.076925 31.8121411,41.3032688 C31.8964713,40.83955 32.0089115,40.7552375 32.4586722,40.7552375 L33.7379785,40.7552375 C33.8785287,40.7688938 33.9909689,40.7968 34.047189,40.83955 C34.1458732,40.9375188 34.2020933,41.19105 34.2439593,41.4160813 C34.6380981,43.7507063 34.8486244,44.988675 34.8629785,45.1014875 L35.5232656,45.4820813 C35.5938397,45.52305 35.6357057,45.5937063 35.6357057,45.6786125 C35.6357057,45.777175 35.5938397,45.8329875 35.5232656,45.8757375 L35.0453947,46.1565813 C35.4251794,48.4496438 35.6357057,49.6448625 35.6500598,49.7570813 C35.7200359,50.1655813 35.7062799,50.4185188 35.5938397,50.5170813 M33.4287679,46.4237688 C33.4006579,46.1702375 33.2463517,45.4250813 33.2463517,45.3835188 C33.2319976,45.3265188 33.2038876,45.2564563 33.1620215,45.17155 C33.0776914,45.017175 32.9227871,45.0735813 32.866567,45.17155 C32.7684809,45.4393313 32.6835526,45.8757375 32.6416866,46.465925 C32.6273325,46.5359875 32.6273325,46.6066438 32.6273325,46.6488 C32.6273325,46.8595813 33.415012,46.845925 33.443122,46.6624563 C33.443122,46.63455 33.443122,46.5502375 33.4287679,46.4237688" id="Fill-39" fill="#FFFFFF"></path>
                <path d="M42.2341507,50.3060031 C42.2622608,50.4467219 42.1779306,50.5731906 42.0236244,50.5880344 C41.6438397,50.6295969 41.222189,50.6295969 40.7580742,50.6010969 C40.4488636,50.5589406 40.4063995,50.2353469 40.3220694,49.8416906 C40.2802033,49.6309094 40.1815191,49.2515031 40.0409689,48.7022844 L39.7742225,47.5628781 C39.7180024,47.2956906 39.6474282,46.9299406 39.2395335,46.9863469 C38.8322368,47.0427531 38.8603469,47.4227531 38.8459928,47.8585656 L38.8459928,49.8416906 C38.8459928,50.2638469 38.9022129,50.5880344 38.5086722,50.6010969 C38.1851077,50.6153469 37.8477871,50.6153469 37.5104665,50.6010969 C37.1306818,50.5880344 37.1875,50.2495969 37.1875,49.7852844 L37.1875,46.2126906 L36.624701,45.9033469 C36.5547249,45.8469406 36.5122608,45.7911281 36.5122608,45.6919719 C36.5122608,45.6076594 36.5547249,45.5375969 36.624701,45.4954406 L37.1875,45.1724406 L37.1875,41.4721906 C37.1875,41.1206906 37.21561,40.9099094 37.2855861,40.8392531 C37.4123804,40.7127844 37.819677,40.7412844 38.6354665,40.7412844 L39.3800837,40.7412844 C39.7317584,40.7264406 40.1396531,40.7828469 40.5894139,40.9099094 C41.3483852,41.0921906 41.9105861,41.7536281 41.9386962,42.5415344 C41.9530502,42.9209406 41.9530502,43.7510031 41.9386962,45.0459719 C41.9386962,45.3689719 41.7981459,45.7062219 41.5313995,46.0440656 C41.3346292,46.2839406 41.2921651,46.5784406 41.3764952,46.9299406 C41.5032895,47.3800031 41.7562799,48.3371281 42.1354665,49.8274406 C42.1916866,50.0109094 42.2203947,50.1795344 42.2341507,50.3060031 M39.7036483,42.4708781 C39.6055622,42.4566281 39.548744,42.4429719 39.4925239,42.4287219 C38.7054426,42.3301594 38.8603469,42.7101594 38.8603469,43.8774719 C38.8603469,44.4967531 38.8741029,44.8904094 38.8741029,44.9183156 C38.8741029,45.1575969 38.9865431,45.2983156 39.2257775,45.3689719 C39.7455144,45.4954406 40.2377392,45.1855031 40.3501794,44.6653781 C40.3645335,44.5810656 40.3782895,44.5246594 40.3782895,44.4967531 L40.3782895,43.2302844 C40.3501794,42.7808156 40.1677632,42.5830969 39.7036483,42.4708781" id="Fill-41" fill="#FFFFFF"></path>
                <path d="M49.3665072,45.6644219 C49.3665072,45.7629844 49.3246411,45.8187969 49.254067,45.8615469 L48.691866,46.1845469 L48.691866,48.1961719 C48.691866,48.7020469 48.5650718,49.1390469 48.3264354,49.5178594 C47.4406699,50.8407344 46.9065789,50.6008594 44.3617225,50.6008594 L44.3055024,50.6008594 C44.1649522,50.6008594 44.0662679,50.5587031 44.0244019,50.5177344 C43.9119617,50.4043281 43.9119617,50.2357031 43.9119617,49.7298281 L43.9119617,46.1845469 L43.3497608,45.8615469 C43.2791866,45.8187969 43.2373206,45.7629844 43.2373206,45.6644219 C43.2373206,45.5795156 43.2791866,45.5094531 43.3497608,45.4672969 L43.9119617,45.1442969 L43.9119617,41.5147031 C43.9119617,41.3033281 43.9263158,41.1347031 43.9263158,41.0224844 C43.9681818,40.6840469 44.2773923,40.7125469 44.5447368,40.7125469 C45.8521531,40.6988906 46.5124402,40.6988906 46.5411483,40.6988906 C47.0471292,40.6988906 47.4825359,40.8675156 47.8342105,41.2326719 C48.5232057,41.9368594 48.691866,42.4011719 48.691866,43.0335156 L48.691866,45.1442969 L49.254067,45.4672969 C49.3246411,45.5094531 49.3665072,45.5795156 49.3665072,45.6644219 M47.0190191,43.1184219 C46.976555,42.6541094 46.7235646,42.4148281 46.2738038,42.3863281 C45.7397129,42.3441719 45.5710526,42.4706406 45.5848086,42.9919531 L45.5848086,48.1534219 C45.5848086,48.4918594 45.5710526,48.7727031 45.837799,48.8855156 C46.37189,49.0826406 47.0327751,48.7168906 47.0327751,48.1682656 L47.0327751,43.4984219 C47.0327751,43.3155469 47.0327751,43.1878906 47.0190191,43.1184219" id="Fill-43" fill="#FFFFFF"></path>
                <path d="M59.4752392,48.6743188 C59.4190191,49.1243812 59.2222488,49.5322875 58.9130383,49.8986313 C58.2802632,50.6437875 58.0129187,50.545225 57.057177,50.6016313 C56.5230861,50.6295375 56.0589713,50.5173188 55.6654306,50.2780375 C55.4261962,50.1230688 55.2437799,49.9681 55.1313397,49.8000688 C54.7940191,49.2799438 54.5972488,48.7865375 54.5266746,48.3228188 C54.4985646,48.1114438 54.4566986,47.7599438 54.751555,47.7177875 C55.2156699,47.647725 55.5386364,47.604975 55.6935407,47.604975 C55.9746411,47.5913187 56.0733254,47.6756313 56.1576555,47.970725 C56.1576555,47.999225 56.1857656,48.0550375 56.1995215,48.1536 C56.2419856,48.3228188 56.2700957,48.4071313 56.3400718,48.54785 C56.5649522,48.9415063 56.8460526,49.096475 57.1977273,49.0121625 C57.5350478,48.9272562 57.8161483,48.5621 57.8161483,48.1821 C57.8305024,47.3520375 57.5350478,47.2261625 56.8041866,46.4798187 L56.6773923,46.35335 L55.9184211,46.35335 C55.7360048,46.3676 55.6229665,46.170475 55.7072967,46.0161 L55.9327751,45.62185 L55.5386364,45.2281938 C54.8639952,44.4966938 54.5547847,43.6393188 54.6247608,42.69585 C54.709689,41.5986 55.3980861,40.8112875 56.2982057,40.5862563 C58.3645933,40.0655375 59.2922249,41.444225 59.4327751,42.6257875 C59.4608852,42.7944125 59.3909091,42.878725 59.2503589,42.9351313 C58.8705742,43.0616 58.5051435,43.1322563 58.167823,43.1322563 C57.9991627,43.1322563 57.8867225,43.0616 57.8305024,42.907225 L57.6899522,42.541475 C57.3526316,41.795725 56.4949761,41.9506938 56.3962919,42.7380063 C56.3263158,43.272975 56.4949761,43.7794438 56.9166268,44.2580063 C56.9584928,44.3138188 57.1558612,44.5109438 57.2539474,44.6231625 L57.9285885,44.6231625 C58.1116029,44.6231625 58.2240431,44.8060375 58.1253589,44.9604125 L57.9710526,45.24185 C58.2240431,45.4668813 58.3783493,45.6076 58.6319378,45.9032875 C59.3490431,46.7191 59.6157895,47.647725 59.4752392,48.6743188" id="Fill-45" fill="#FFFFFF"></path>
                <path d="M65.5460526,50.2921094 C65.5179426,50.6293594 65.180622,50.6014531 64.8851675,50.6014531 L61.8343301,50.6014531 C61.6375598,50.6014531 61.3989234,50.6014531 61.2721292,50.4892344 C61.145933,50.3764219 61.159689,50.1935469 61.159689,49.6734219 L61.159689,46.1982031 L60.597488,45.8752031 C60.5269139,45.8330469 60.4850478,45.7766406 60.4850478,45.6780781 C60.4850478,45.5937656 60.5269139,45.5237031 60.597488,45.4809531 L61.159689,45.1579531 L61.159689,41.4862031 C61.159689,40.7826094 61.1740431,40.7552969 61.8624402,40.7552969 L64.8995215,40.7552969 C65.222488,40.7552969 65.4055024,40.7974531 65.4754785,40.8532656 C65.6022727,40.9797344 65.5879187,41.6833281 65.5592105,42.0069219 C65.5316986,42.3447656 65.236244,42.3156719 64.8289474,42.3156719 L63.437201,42.3156719 C62.9730861,42.3305156 62.84689,42.4712344 62.8181818,42.9070469 C62.8044258,43.3856094 62.8044258,43.8493281 62.8325359,44.2999844 C62.8325359,44.4828594 62.888756,44.6235781 62.9593301,44.7078906 C63.1279904,44.8616719 63.437201,44.8486094 63.8732057,44.8486094 C64.0980861,44.8486094 64.2667464,44.8486094 64.3642344,44.8616719 C64.7027512,44.8616719 64.7858852,44.9608281 64.8008373,45.2986719 C64.8151914,45.5937656 64.8151914,45.8894531 64.7858852,46.1845469 C64.7858852,46.3816719 64.6746411,46.4802344 64.4778708,46.4944844 C64.2667464,46.5081406 63.9431818,46.5081406 63.5358852,46.5081406 C63.0011962,46.5081406 62.8606459,46.5787969 62.8325359,47.1838281 C62.8044258,47.5210781 62.8044258,47.9010781 62.8181818,48.3368906 C62.84689,48.7869531 62.9730861,48.9276719 63.437201,48.9419219 L64.8151914,48.9419219 C65.236244,48.9555781 65.5179426,48.9140156 65.5592105,49.2370156 C65.5879187,49.6027656 65.5879187,49.9542656 65.5460526,50.2921094" id="Fill-47" fill="#FFFFFF"></path>
                <path d="M71.354067,50.2781562 C71.3397129,50.6575625 71.0167464,50.60175 70.7075359,50.60175 L67.8253589,50.60175 C67.1925837,50.60175 67.1638756,50.57325 67.1638756,49.9403125 L67.1638756,46.18425 L66.6022727,45.86125 C66.5173445,45.8048438 66.4892344,45.7490313 66.4892344,45.664125 C66.4892344,45.5655625 66.5173445,45.50975 66.6022727,45.4533438 L67.1638756,45.12975 L67.1638756,41.4300938 C67.1638756,40.7413438 67.1788278,40.7128438 67.867823,40.7128438 C68.1489234,40.7128438 68.3456938,40.7128438 68.4856459,40.7270938 C68.8791866,40.755 68.8235646,41.06375 68.8235646,41.5993125 L68.8235646,45.12975 L69.3857656,45.4533438 C69.4557416,45.50975 69.4976077,45.5655625 69.4976077,45.664125 C69.4976077,45.7490313 69.4557416,45.8048438 69.3857656,45.86125 L68.8235646,46.18425 L68.8235646,47.8722813 C68.8235646,48.1537187 68.8379187,48.3365937 68.8379187,48.4351562 C68.8941388,49.0401875 69.062799,48.9137188 70.270933,48.941625 C71.1854067,48.941625 71.3397129,48.8715625 71.354067,49.278875 C71.367823,49.6173125 71.367823,49.9403125 71.354067,50.2781562" id="Fill-49" fill="#FFFFFF"></path>
                <path d="M76.3379187,41.4159625 C76.3379187,41.6974 76.3379187,41.9081813 76.3241627,42.0209938 C76.3241627,42.1474625 76.2954545,42.231775 76.2529904,42.2881813 C76.1411483,42.3867438 75.944378,42.3867438 75.6913876,42.3867438 C75.4102871,42.3867438 75.1148325,42.3724938 74.9461722,42.5417125 C74.777512,42.6960875 74.791866,42.9353688 74.791866,43.4839938 L74.791866,45.143525 L75.4102871,45.495025 C75.4796651,45.5514313 75.5227273,45.6078375 75.5227273,45.69215 C75.5227273,45.7907125 75.4796651,45.860775 75.4102871,45.903525 L74.791866,46.255025 L74.791866,49.7433063 C74.791866,50.249775 74.833134,50.5733688 74.4964115,50.601275 C74.1309809,50.615525 73.7793062,50.615525 73.4419856,50.601275 C73.076555,50.587025 73.1327751,50.249775 73.1327751,49.8276188 L73.1327751,46.269275 L72.486244,45.903525 C72.4150718,45.860775 72.3875598,45.7907125 72.3875598,45.69215 C72.3875598,45.6078375 72.4150718,45.5514313 72.486244,45.495025 L73.1327751,45.1298687 L73.1327751,43.343275 C73.1327751,42.8647125 73.1327751,42.6824313 73.0059809,42.5417125 C72.8648325,42.3867438 72.5843301,42.3867438 72.3032297,42.3867438 C72.1483254,42.3867438 72.0358852,42.3867438 71.9796651,42.3724938 C71.6985646,42.3582437 71.6004785,42.2881813 71.5861244,42.0067438 C71.5717703,41.71165 71.5717703,41.3880562 71.5861244,41.0644625 C71.5861244,40.95165 71.6285885,40.8673375 71.6698565,40.8251812 C71.7828947,40.7266188 71.951555,40.7551188 72.2751196,40.7551188 L75.6489234,40.7551188 C76.3098086,40.7551188 76.3379187,40.7551188 76.3379187,41.4159625" id="Fill-51" fill="#FFFFFF"></path>
                <path d="M81.8305024,49.4339031 C81.8448565,49.7010906 81.8448565,49.9825281 81.8305024,50.2639656 C81.8173445,50.3761844 81.7886364,50.4604969 81.7324163,50.5032469 C81.6337321,50.6012156 81.4794258,50.6012156 81.029067,50.6012156 L77.9794258,50.6012156 C77.6833732,50.6012156 77.3460526,50.6297156 77.3322967,50.3482781 C77.2898325,49.5746219 77.3179426,49.0402469 77.4309809,48.7588094 L78.5272727,46.0014344 L78.3299043,45.8892156 C78.2599282,45.8328094 78.2174641,45.7769969 78.2174641,45.6784344 C78.2174641,45.5935281 78.2599282,45.5377156 78.3299043,45.4813094 L78.8508373,45.1856219 L79.6797847,43.0896844 L79.7641148,42.8931531 C79.9327751,42.3581844 79.4124402,42.3866844 79.0188995,42.3866844 L77.9644737,42.3866844 C77.6690191,42.3866844 77.3322967,42.4288406 77.3179426,42.0630906 C77.3041866,41.7252469 77.3041866,41.3879969 77.3179426,41.0644031 C77.3460526,40.6844031 77.6971292,40.7265594 78.0206938,40.7265594 L81.1277512,40.7265594 C81.7599282,40.7265594 81.8173445,40.7829656 81.8448565,41.4159031 C81.8729665,41.9645281 81.7742823,42.4852469 81.5631579,42.9917156 C81.2964115,43.6668094 81.015311,44.3276531 80.6074163,45.3684969 L80.8041866,45.4813094 C80.8747608,45.5377156 80.9172249,45.5935281 80.9172249,45.6784344 C80.9172249,45.7769969 80.8747608,45.8328094 80.8041866,45.8892156 L80.2844498,46.1843094 C79.9471292,47.0428719 79.6241627,47.8586844 79.4830144,48.2380906 C79.3705742,48.5195281 79.1175837,48.9274344 79.6797847,49.0117469 C79.876555,49.0539031 80.1720096,49.0539031 80.8466507,49.0539031 L81.4513158,49.0539031 C81.7186603,49.0681531 81.8173445,49.1524656 81.8305024,49.4339031" id="Fill-53" fill="#FFFFFF"></path>
                <path d="M87.8230263,50.2921094 C87.7949163,50.6293594 87.4575957,50.6014531 87.1621411,50.6014531 L84.1113038,50.6014531 C83.9145335,50.6014531 83.675299,50.6014531 83.5491029,50.4892344 C83.4229067,50.3764219 83.4366627,50.1935469 83.4366627,49.6734219 L83.4366627,46.1982031 L82.8744617,45.8752031 C82.8032895,45.8330469 82.7620215,45.7766406 82.7620215,45.6780781 C82.7620215,45.5937656 82.8032895,45.5237031 82.8744617,45.4809531 L83.4366627,45.1579531 L83.4366627,41.4862031 C83.4366627,40.7826094 83.4504187,40.7552969 84.1394139,40.7552969 L87.1764952,40.7552969 C87.4994617,40.7552969 87.6824761,40.7974531 87.7524522,40.8532656 C87.8792464,40.9797344 87.8642943,41.6833281 87.8361842,42.0069219 C87.8086722,42.3447656 87.5132177,42.3156719 87.1059211,42.3156719 L85.7141746,42.3156719 C85.2494617,42.3305156 85.1232656,42.4712344 85.0951555,42.9070469 C85.0813995,43.3856094 85.0813995,43.8493281 85.1095096,44.2999844 C85.1095096,44.4828594 85.1657297,44.6235781 85.2363038,44.7078906 C85.4049641,44.8616719 85.7141746,44.8486094 86.1501794,44.8486094 C86.3750598,44.8486094 86.543122,44.8486094 86.6412081,44.8616719 C86.9797249,44.8616719 87.0628589,44.9608281 87.077811,45.2986719 C87.091567,45.5937656 87.091567,45.8894531 87.0628589,46.1845469 C87.0628589,46.3816719 86.9516148,46.4802344 86.7548445,46.4944844 C86.543122,46.5081406 86.2195574,46.5081406 85.8128589,46.5081406 C85.2781699,46.5081406 85.1376196,46.5787969 85.1095096,47.1838281 C85.0813995,47.5210781 85.0813995,47.9010781 85.0951555,48.3368906 C85.1232656,48.7869531 85.2494617,48.9276719 85.7141746,48.9419219 L87.091567,48.9419219 C87.5132177,48.9555781 87.7949163,48.9140156 87.8361842,49.2370156 C87.8642943,49.6027656 87.8642943,49.9542656 87.8230263,50.2921094" id="Fill-55" fill="#FFFFFF"></path>
                <path d="M94.5024522,50.3060031 C94.5305622,50.4467219 94.4462321,50.5731906 94.2913278,50.5880344 C93.9121411,50.6295969 93.4904904,50.6295969 93.0263756,50.6010969 C92.7171651,50.5589406 92.6741029,50.2353469 92.5903708,49.8416906 C92.5479067,49.6309094 92.4498206,49.2515031 92.3092703,48.7022844 L92.0425239,47.5628781 C91.9863038,47.2956906 91.9157297,46.9299406 91.5078349,46.9863469 C91.1005383,47.0427531 91.1280502,47.4227531 91.1142943,47.8585656 L91.1142943,49.8416906 C91.1142943,50.2638469 91.1705144,50.5880344 90.7769737,50.6010969 C90.4534091,50.6153469 90.1160885,50.6153469 89.7787679,50.6010969 C89.3995813,50.5880344 89.4558014,50.2495969 89.4558014,49.7852844 L89.4558014,46.2126906 L88.8936005,45.9033469 C88.8230263,45.8469406 88.7805622,45.7911281 88.7805622,45.6919719 C88.7805622,45.6076594 88.8230263,45.5375969 88.8936005,45.4954406 L89.4558014,45.1724406 L89.4558014,41.4721906 C89.4558014,41.1206906 89.4833134,40.9099094 89.5538876,40.8392531 C89.6800837,40.7127844 90.0879785,40.7412844 90.9031699,40.7412844 L91.6483852,40.7412844 C91.9994617,40.7264406 92.4079545,40.7828469 92.8577153,40.9099094 C93.6166866,41.0921906 94.1788876,41.7536281 94.2069976,42.5415344 C94.2213517,42.9209406 94.2213517,43.7510031 94.2069976,45.0459719 C94.2069976,45.3689719 94.0664474,45.7062219 93.799701,46.0440656 C93.6029306,46.2839406 93.5604665,46.5784406 93.6441986,46.9299406 C93.7709928,47.3800031 94.0245813,48.3371281 94.4037679,49.8274406 C94.4605861,50.0109094 94.4886962,50.1795344 94.5024522,50.3060031 M91.9719498,42.4708781 C91.8732656,42.4566281 91.8176435,42.4429719 91.7614234,42.4287219 C90.973744,42.3301594 91.1280502,42.7101594 91.1280502,43.8774719 C91.1280502,44.4967531 91.1424043,44.8904094 91.1424043,44.9183156 C91.1424043,45.1575969 91.2548445,45.2983156 91.4940789,45.3689719 C92.0144139,45.4954406 92.5060407,45.1855031 92.6184809,44.6653781 C92.6328349,44.5810656 92.6459928,44.5246594 92.6459928,44.4967531 L92.6459928,43.2302844 C92.6184809,42.7808156 92.4360646,42.5830969 91.9719498,42.4708781" id="Fill-57" fill="#FFFFFF"></path>
                <path d="M25.7599282,54.7574063 C26.0595694,55.126125 26.1714115,55.5459063 26.1133971,56.009625 C26.0894737,56.2132813 26.0075359,56.3979375 25.8777512,56.563 C25.612201,56.8996563 25.5003589,56.855125 25.1002392,56.8806563 C24.8759569,56.8937188 24.682177,56.84325 24.5165072,56.7351875 C24.4172249,56.665125 24.3400718,56.5950625 24.292823,56.5184688 C24.1522727,56.28275 24.0691388,56.0606875 24.0404306,55.8510938 C24.0278708,55.7560938 24.0105263,55.596375 24.1337321,55.5779688 C24.32811,55.5459063 24.4638756,55.5269063 24.529067,55.5269063 C24.64689,55.520375 24.6875598,55.5589688 24.723445,55.6919688 C24.723445,55.7050313 24.7348086,55.7305625 24.7407895,55.7745 C24.7587321,55.8510938 24.7700957,55.8890938 24.8,55.9532188 C24.8938995,56.13075 25.0117225,56.2008125 25.1588517,56.1622188 C25.3005981,56.1242188 25.4184211,55.9591563 25.4184211,55.7869688 C25.4238038,55.4123125 25.3005981,55.3553125 24.9937799,55.0180625 L24.9411483,54.9610625 L24.6229665,54.9610625 C24.5464115,54.9675938 24.4991627,54.8779375 24.5350478,54.8084688 L24.6283493,54.6303438 L24.4638756,54.4522188 C24.1809809,54.1220938 24.0517943,53.7337813 24.0811005,53.3080625 C24.1163876,52.8122813 24.4046651,52.4560313 24.7820574,52.3539063 C25.6480861,52.119375 26.036244,52.741625 26.0954545,53.2765938 C26.1074163,53.3525938 26.07811,53.3905938 26.0188995,53.416125 C25.8598086,53.473125 25.7066986,53.5051875 25.5649522,53.5051875 C25.4949761,53.5051875 25.4477273,53.473125 25.4238038,53.4030625 L25.3651914,53.238 C25.2240431,52.9013438 24.8645933,52.9708125 24.8233254,53.3270625 C24.7940191,53.5687188 24.8645933,53.7973125 25.0410287,54.0134375 C25.0589713,54.0389688 25.1415072,54.1274375 25.182177,54.1785 L25.4656699,54.1785 C25.5416268,54.1785 25.5888756,54.261625 25.5476077,54.3310938 L25.4830144,54.45875 C25.5888756,54.560875 25.6534689,54.6238125 25.7599282,54.7574063 L25.7599282,54.7574063 Z M28.7748804,53.3525938 C28.7802632,53.3715938 28.7802632,53.5307188 28.7802632,53.829375 L28.7802632,54.2550938 C28.7629187,54.6808125 28.515311,55.0370625 28.1444976,55.1896563 C28.0858852,55.2151875 28.0027512,55.22825 27.89689,55.2341875 C27.7617225,55.2341875 27.6732057,55.240125 27.6438995,55.24725 C27.4435407,55.2727813 27.473445,55.425375 27.473445,55.6290313 L27.473445,56.6265313 C27.473445,56.741125 27.4549043,56.8177188 27.4315789,56.84325 C27.3789474,56.8996563 27.0900718,56.8937188 26.9076555,56.8806563 C26.7665072,56.8687813 26.7778708,56.7280625 26.7778708,56.5760625 L26.7778708,52.7356875 C26.7778708,52.4239688 26.7838517,52.4180313 27.0787081,52.4180313 L27.4196172,52.4180313 L27.7557416,52.4180313 C28.1092105,52.4180313 28.7156699,52.5830938 28.7748804,53.3525938 L28.7748804,53.3525938 Z M27.7204545,53.181 C27.4082536,53.1554688 27.473445,53.3015313 27.473445,53.829375 L27.4794258,53.829375 L27.4794258,54.3310938 C27.4848086,54.4332188 27.5380383,54.4973438 27.6438995,54.5163438 C27.8675837,54.55375 28.0799043,54.3952188 28.1151914,54.1410938 C28.167823,53.7076563 28.1564593,53.2184063 27.7204545,53.181 L27.7204545,53.181 Z M31.4549043,56.4994688 C31.4842105,56.6835313 31.4794258,56.7987188 31.4315789,56.84325 C31.3783493,56.8996563 30.9602871,56.8806563 30.9130383,56.8806563 C30.8544258,56.874125 30.8185407,56.8616563 30.7952153,56.8367188 C30.7425837,56.7850625 30.7366029,56.6906563 30.7126794,56.4864063 C30.7013158,56.3914063 30.6953349,56.3154063 30.6833732,56.2643438 C30.6779904,56.2008125 30.6654306,55.895625 30.459689,55.8890938 C30.4303828,55.8831563 30.4124402,55.8831563 30.4124402,55.8831563 C30.1062201,55.8831563 30.0589713,55.895625 30.0236842,56.2198125 C30.0183014,56.270875 29.9883971,56.4424688 29.9411483,56.7351875 C29.9238038,56.8295938 29.876555,56.874125 29.7946172,56.874125 C29.6110048,56.8806563 29.4584928,56.8806563 29.334689,56.874125 C29.1696172,56.8687813 29.2108852,56.7351875 29.2342105,56.5505313 C29.3759569,55.6854375 29.7946172,53.0284063 29.8472488,52.6786875 C29.8825359,52.4690938 29.9297847,52.4305 30.1181818,52.4305 L30.654067,52.4305 C30.7126794,52.4370313 30.7599282,52.4495 30.7838517,52.4690938 C30.8245215,52.5130313 30.848445,52.627625 30.8663876,52.7291563 C31.0308612,53.7848438 31.4495215,56.449 31.4549043,56.4994688 L31.4549043,56.4994688 Z M30.5302632,55.1005938 C30.5302632,55.088125 30.5302632,55.050125 30.5242823,54.9925313 C30.5129187,54.8779375 30.4483254,54.541875 30.4483254,54.5222813 C30.4417464,54.4973438 30.4303828,54.4652813 30.4124402,54.4266875 C30.3771531,54.3572188 30.3125598,54.3821563 30.2892344,54.4266875 C30.2473684,54.5472188 30.2120813,54.7449375 30.1947368,55.012125 C30.188756,55.0435938 30.188756,55.0756563 30.188756,55.0940625 C30.188756,55.1896563 30.5188995,55.1837188 30.5302632,55.1005938 L30.5302632,55.1005938 Z M34.1660287,56.5315313 C34.1893541,56.6140625 34.2007177,56.6906563 34.2066986,56.7476563 C34.2186603,56.8111875 34.1833732,56.8687813 34.1187799,56.874125 C33.959689,56.8937188 33.7832536,56.8937188 33.5882775,56.8806563 C33.4590909,56.8616563 33.4411483,56.7155938 33.4058612,56.5374688 C33.3879187,56.4424688 33.3466507,56.270875 33.2874402,56.0226875 L33.1755981,55.5079063 C33.1522727,55.387375 33.1229665,55.2217188 32.9519139,55.24725 C32.7814593,55.2727813 32.792823,55.444375 32.7874402,55.6409063 L32.7874402,56.5374688 C32.7874402,56.7280625 32.8107656,56.874125 32.6462919,56.8806563 C32.5105263,56.8871875 32.369378,56.8871875 32.2276316,56.8806563 C32.0685407,56.874125 32.0924641,56.722125 32.0924641,56.5125313 L32.0924641,52.7546875 C32.0924641,52.5955625 32.1038278,52.5005625 32.1337321,52.4690938 C32.1863636,52.4115 32.3574163,52.4239688 32.6989234,52.4239688 L33.0111244,52.4239688 C33.1582536,52.4180313 33.3293062,52.4435625 33.5177033,52.5005625 C33.8358852,52.5830938 34.0715311,52.8823438 34.0834928,53.238 C34.0888756,53.4095938 34.0888756,53.7848438 34.0834928,54.3696875 C34.0834928,54.5163438 34.0242823,54.6689375 33.9124402,54.8209375 C33.8299043,54.929 33.8119617,55.0625938 33.8472488,55.2217188 C33.9004785,55.425375 34.0069378,55.857625 34.1660287,56.5315313 L34.1660287,56.5315313 Z M33.4291866,53.5497188 C33.417823,53.3460625 33.3412679,53.2575938 33.14689,53.2065313 C33.1050239,53.1994063 33.0816986,53.1934688 33.0583732,53.1869375 C32.7282297,53.1424063 32.792823,53.314 32.792823,53.8418438 C32.792823,54.1220938 32.7994019,54.299625 32.7994019,54.3120938 C32.7994019,54.42075 32.8466507,54.4836875 32.9465311,54.5163438 C33.1642344,54.57275 33.3705742,54.4332188 33.417823,54.1980938 C33.4232057,54.1600938 33.4291866,54.1345625 33.4291866,54.1220938 L33.4291866,53.5497188 Z M36.2401914,54.7764063 C36.1809809,54.617875 36.1283493,54.4902188 36.0870813,54.3886875 C36.0458134,54.2936875 36.0458134,54.1980938 36.0924641,54.0965625 C36.0870813,54.1155625 36.1104067,54.0645 36.1696172,53.9439688 C36.4698565,53.295 36.6642344,52.8823438 36.7407895,52.7101563 C36.7700957,52.646625 36.7994019,52.5830938 36.8173445,52.5320313 C36.8352871,52.4875 36.8113636,52.4435625 36.7700957,52.4370313 C36.6050239,52.4180313 36.411244,52.4180313 36.1929426,52.4370313 C36.0870813,52.4435625 36.0577751,52.551625 35.9866029,52.6852188 C35.9572967,52.74875 35.9160287,52.8502813 35.8448565,52.9898125 C35.786244,53.116875 35.7395933,53.2184063 35.7037081,53.2884688 C35.6630383,53.3840625 35.6211722,53.4481875 35.591866,53.473125 C35.5446172,53.511125 35.4746411,53.492125 35.4626794,53.435125 C35.4273923,53.3015313 35.4327751,53.1869375 35.4327751,52.9898125 L35.4327751,52.7356875 C35.4327751,52.5830938 35.4447368,52.4435625 35.3095694,52.4370313 C35.1738038,52.4305 35.0440191,52.4305 34.9148325,52.4370313 C34.7730861,52.4435625 34.7850478,52.589625 34.7850478,52.78675 L34.7850478,56.4864063 C34.7850478,56.601 34.7850478,56.677 34.7910287,56.7155938 C34.7964115,56.8295938 34.8322967,56.874125 34.932177,56.874125 C35.0440191,56.8806563 35.1618421,56.8806563 35.2742823,56.8806563 C35.3861244,56.8687813 35.4214115,56.8295938 35.4327751,56.7025313 L35.4327751,56.2768125 C35.438756,55.8510938 35.438756,55.6409063 35.438756,55.6539688 C35.438756,55.539375 35.4626794,55.4568438 35.5093301,55.3927188 C35.5392344,55.3553125 35.6038278,55.3553125 35.6337321,55.3927188 C35.6630383,55.4313125 35.6983254,55.4948438 35.7330144,55.5898438 C35.7569378,55.6480313 35.8400718,55.876625 35.980622,56.2643438 C36.063756,56.4935313 36.1050239,56.6140625 36.1104067,56.6395938 C36.1696172,56.8177188 36.2814593,56.8937188 36.4405502,56.8806563 L36.6050239,56.8806563 C36.7880383,56.8806563 36.8113636,56.8806563 36.9058612,56.8687813 C36.952512,56.855125 36.9818182,56.8046563 36.9704545,56.7535938 C36.9584928,56.6965938 36.9405502,56.6395938 36.9172249,56.582 C36.6761962,55.9460938 36.4519139,55.34225 36.2401914,54.7764063 L36.2401914,54.7764063 Z M38.897488,56.13075 C38.3909091,56.1182813 38.3203349,56.1752813 38.2970096,55.9015625 C38.2970096,55.857625 38.2910287,55.7745 38.2910287,55.6480313 L38.2910287,52.8122813 C38.2910287,52.570625 38.3143541,52.4305 38.1492823,52.4180313 C38.0906699,52.4115 38.008134,52.4115 37.8909091,52.4115 C37.6014354,52.4115 37.5960526,52.4239688 37.5960526,52.7356875 L37.5960526,56.582 C37.5960526,56.8687813 37.6074163,56.8806563 37.8723684,56.8806563 L39.0799043,56.8806563 C39.2102871,56.8806563 39.3454545,56.9061875 39.3514354,56.7351875 C39.3568182,56.582 39.3568182,56.4359375 39.3514354,56.28275 C39.3454545,56.0986875 39.2802632,56.13075 38.897488,56.13075 L38.897488,56.13075 Z M40.5392344,52.4180313 C40.4267943,52.4115 40.0739234,52.3984375 40.0147129,52.4625625 C39.9907895,52.4875 39.9794258,52.5830938 39.9794258,52.7356875 L39.9794258,56.525 C39.9794258,56.7025313 39.9620813,56.8616563 40.1211722,56.874125 C40.1797847,56.8806563 40.2623206,56.8806563 40.3741627,56.8806563 C40.6630383,56.8806563 40.6744019,56.874125 40.6744019,56.5564688 L40.6744019,52.7926875 C40.6744019,52.5765625 40.6983254,52.4370313 40.5392344,52.4180313 L40.5392344,52.4180313 Z M43.4710526,52.4239688 C43.3825359,52.4115 43.2886364,52.4115 43.188756,52.4115 C42.8998804,52.4115 42.8885167,52.4239688 42.8885167,52.7356875 C42.8885167,52.7101563 42.8885167,53.1685313 42.8825359,54.1155625 C42.8825359,54.3245625 42.8885167,54.34475 42.8526316,54.4652813 C42.8412679,54.541875 42.7527512,54.55375 42.723445,54.47775 C42.7108852,54.4522188 42.6995215,54.42075 42.6875598,54.3821563 C42.6289474,54.1535625 42.4106459,53.3715938 42.3167464,53.0349375 C42.3047847,52.9773438 42.2814593,52.8942188 42.2521531,52.7926875 C42.2162679,52.6786875 42.1929426,52.5955625 42.1809809,52.551625 C42.1576555,52.4625625 42.1044258,52.4180313 42.0338517,52.4180313 L41.4746411,52.4180313 C41.3388756,52.4239688 41.3502392,52.5765625 41.3502392,52.7736875 L41.3502392,56.4935313 C41.3502392,56.6965938 41.3269139,56.855125 41.5093301,56.8806563 L41.7156699,56.8806563 C42.0452153,56.8806563 42.0511962,56.8806563 42.0511962,56.5374688 L42.0511962,55.1581875 C42.0511962,55.0245938 42.0577751,54.9355313 42.0751196,54.8844688 C42.1044258,54.8084688 42.1809809,54.7894688 42.2162679,54.8660625 L42.2868421,55.0756563 C42.2754785,55.0435938 42.4226077,55.5269063 42.723445,56.5374688 L42.7527512,56.6265313 C42.7700957,56.6716563 42.7760766,56.7025313 42.7814593,56.7280625 C42.8412679,56.9251875 43.112201,56.8806563 43.2533493,56.8806563 C43.5655502,56.8806563 43.5828947,56.8687813 43.5828947,56.5315313 L43.5828947,52.7356875 C43.5828947,52.589625 43.5948565,52.4305 43.4710526,52.4239688 L43.4710526,52.4239688 Z M46.2479665,54.3382188 C46.230622,54.3192188 46.1947368,54.299625 46.1415072,54.299625 C46.0888756,54.2936875 45.9830144,54.2936875 45.8233254,54.2936875 C45.6175837,54.2936875 45.487799,54.2936875 45.4345694,54.299625 C45.3406699,54.3055625 45.2940191,54.3572188 45.2880383,54.4522188 C45.2814593,54.4902188 45.2814593,54.6238125 45.2814593,54.8464688 C45.2814593,54.9610625 45.3287081,55.0245938 45.4232057,55.0370625 C45.5057416,55.050125 45.5589713,55.0940625 45.5703349,55.1706563 C45.6175837,55.3998438 45.6175837,55.6349688 45.5763158,55.8831563 C45.5703349,55.8890938 45.5643541,55.9080938 45.5589713,55.9276875 C45.4172249,56.20675 45.0990431,56.1942813 45.0105263,55.8831563 C44.9752392,55.7745 44.9632775,55.6539688 44.9632775,55.520375 L44.9632775,53.7403125 C44.9632775,53.435125 45.0404306,53.1934688 45.2467703,53.1614063 C45.452512,53.1299375 45.5942584,53.3395313 45.5996411,53.5497188 C45.6175837,53.9944375 45.5763158,53.9819688 45.7354067,53.9944375 C45.876555,54.0009688 46.0123206,54.0009688 46.147488,53.9944375 C46.3239234,53.9819688 46.2892344,53.8228438 46.2892344,53.6381875 C46.2892344,53.5497188 46.2892344,53.4855938 46.2946172,53.4410625 C46.3065789,53.2124688 46.2419856,53.002875 46.1002392,52.7992188 C45.917823,52.5450938 45.6881579,52.4180313 45.4172249,52.4115 L45.2055024,52.4115 C44.6690191,52.4049688 44.3155502,52.9518125 44.3155502,53.4291875 L44.3215311,55.876625 C44.3215311,56.0292188 44.3334928,56.1432188 44.362799,56.2198125 C44.6690191,56.9827813 45.4704545,57.0967813 45.9351675,56.6835313 C46.4064593,56.270875 46.2946172,55.9971563 46.2946172,54.6238125 C46.2946172,54.45875 46.2946172,54.3886875 46.2479665,54.3382188 L46.2479665,54.3382188 Z M51.6845694,52.4305 C51.5787081,52.4239688 51.4608852,52.4239688 51.3311005,52.4239688 C51.1427033,52.4305 51.119378,52.4495 51.0900718,52.646625 C51.0721292,52.7356875 51.0547847,52.8431563 51.0368421,52.983875 C50.9895933,53.3715938 50.9662679,53.5497188 50.925,53.810375 C50.9070574,53.9113125 50.8011962,53.9249688 50.7712919,53.8228438 C50.7479665,53.7593125 50.7366029,53.7076563 50.7366029,53.6767813 C50.7066986,53.4855938 50.6480861,53.0349375 50.6247608,52.8823438 C50.6247608,52.8502813 50.5948565,52.4370313 50.4184211,52.4305 C50.2473684,52.4239688 50.1002392,52.4239688 49.9824163,52.4305 C49.8998804,52.4305 49.8532297,52.4815625 49.8412679,52.5646875 C49.8179426,52.6911563 49.7880383,52.91975 49.7413876,53.2575938 C49.7354067,53.3205313 49.6941388,53.6637188 49.6702153,53.8038438 C49.6642344,53.8798438 49.6110048,53.9374375 49.5763158,53.9249688 C49.5350478,53.9113125 49.5111244,53.8739063 49.4991627,53.8038438 C49.4758373,53.6577813 49.4291866,53.3080625 49.4172249,53.2124688 L49.3167464,52.570625 C49.2934211,52.3930938 49.2282297,52.4305 48.945933,52.4305 L48.945933,52.4239688 L48.8514354,52.4239688 C48.6157895,52.4180313 48.5685407,52.4560313 48.6157895,52.7291563 C48.6923445,53.2184063 49.1163876,56.009625 49.1582536,56.2453438 L49.2401914,56.7351875 C49.2700957,56.9251875 49.4644737,56.8871875 49.6343301,56.8871875 C49.917823,56.8871875 49.9351675,56.874125 49.9764354,56.5760625 C49.9997608,56.4104063 50.0470096,56.0606875 50.112201,55.539375 C50.1295455,55.444375 50.147488,55.3743125 50.1708134,55.3487813 C50.2066986,55.30425 50.2593301,55.3107813 50.2826555,55.3553125 C50.3065789,55.4378438 50.3299043,55.5524375 50.3478469,55.6985 C50.3592105,55.8000313 50.3885167,55.9650938 50.4303828,56.2198125 C50.4656699,56.4359375 50.4889952,56.6140625 50.5009569,56.741125 C50.5129187,56.8295938 50.5535885,56.874125 50.6421053,56.8806563 C50.7772727,56.8871875 50.9130383,56.8871875 51.0368421,56.8871875 C51.1726077,56.8806563 51.2072967,56.84325 51.2312201,56.6906563 L51.2312201,56.6514688 C51.237201,56.6395938 51.237201,56.6265313 51.237201,56.6140625 C51.3490431,55.8190313 51.6433014,53.8739063 51.7611244,53.0539375 C51.7964115,52.7926875 51.8197368,52.646625 51.8197368,52.608625 C51.8322967,52.4875 51.7964115,52.4305 51.6845694,52.4305 L51.6845694,52.4305 Z M54.425,56.4994688 C54.4543062,56.6835313 54.4489234,56.7987188 54.4016746,56.84325 C54.348445,56.8996563 53.9303828,56.8806563 53.883134,56.8806563 C53.8239234,56.874125 53.7892344,56.8616563 53.765311,56.8367188 C53.7120813,56.7850625 53.7066986,56.6906563 53.6833732,56.4864063 C53.6708134,56.3914063 53.6654306,56.3154063 53.6534689,56.2643438 C53.647488,56.2008125 53.6361244,55.895625 53.4297847,55.8890938 C53.3998804,55.8831563 53.3825359,55.8831563 53.3825359,55.8831563 C53.0763158,55.8831563 53.029067,55.895625 52.9937799,56.2198125 C52.987799,56.270875 52.9584928,56.4424688 52.911244,56.7351875 C52.8938995,56.8295938 52.8466507,56.874125 52.7641148,56.874125 C52.5816986,56.8806563 52.4285885,56.8806563 52.3041866,56.874125 C52.1397129,56.8687813 52.1809809,56.7351875 52.2049043,56.5505313 C52.3460526,55.6854375 52.7641148,53.0284063 52.8173445,52.6786875 C52.8526316,52.4690938 52.8998804,52.4305 53.0882775,52.4305 L53.6235646,52.4305 C53.6833732,52.4370313 53.730622,52.4495 53.7539474,52.4690938 C53.7952153,52.5130313 53.8185407,52.627625 53.8364833,52.7291563 C54.0009569,53.7848438 54.4190191,56.449 54.425,56.4994688 L54.425,56.4994688 Z M53.5003589,55.1005938 C53.5003589,55.088125 53.5003589,55.050125 53.494378,54.9925313 C53.4830144,54.8779375 53.417823,54.541875 53.417823,54.5222813 C53.4118421,54.4973438 53.3998804,54.4652813 53.3825359,54.4266875 C53.3472488,54.3572188 53.2826555,54.3821563 53.2593301,54.4266875 C53.2174641,54.5472188 53.182177,54.7449375 53.1642344,55.012125 C53.1588517,55.0435938 53.1588517,55.0756563 53.1588517,55.0940625 C53.1588517,55.1896563 53.4883971,55.1837188 53.5003589,55.1005938 L53.5003589,55.1005938 Z M56.4812201,52.4305 L55.0673445,52.4305 C54.9315789,52.4305 54.8616029,52.4180313 54.8143541,52.4625625 C54.7964115,52.4815625 54.779067,52.5189688 54.779067,52.570625 C54.7730861,52.7160938 54.7730861,52.86275 54.779067,52.9963438 C54.7844498,53.1234063 54.8257177,53.1554688 54.9435407,53.1614063 C54.9674641,53.1685313 55.0147129,53.1685313 55.0793062,53.1685313 C55.1971292,53.1685313 55.3149522,53.1685313 55.3735646,53.238 C55.4267943,53.3015313 55.4267943,53.3840625 55.4267943,53.6001875 L55.4267943,56.5315313 C55.4267943,56.722125 55.4034689,56.874125 55.5565789,56.8806563 C55.6977273,56.8871875 55.8448565,56.8871875 55.9985646,56.8806563 C56.1391148,56.8687813 56.1217703,56.722125 56.1217703,56.4935313 L56.1217703,53.6637188 C56.1217703,53.416125 56.1157895,53.3080625 56.1869617,53.238 C56.2569378,53.1614063 56.3813397,53.1685313 56.4991627,53.1685313 C56.6050239,53.1685313 56.6869617,53.1685313 56.7348086,53.1234063 C56.7521531,53.097875 56.7641148,53.0604688 56.7641148,53.002875 C56.7694976,52.9518125 56.7694976,52.8568125 56.7694976,52.7291563 C56.7694976,52.4305 56.758134,52.4305 56.4812201,52.4305 L56.4812201,52.4305 Z M58.8938995,56.13075 L58.3173445,56.13075 C58.1223684,56.1242188 58.0691388,56.0606875 58.0577751,55.857625 C58.0517943,55.6605 58.0517943,55.4883125 58.063756,55.3363125 C58.0751196,55.0625938 58.1343301,55.031125 58.3586124,55.031125 C58.529067,55.031125 58.6648325,55.031125 58.7527512,55.0245938 C58.8352871,55.0180625 58.8825359,54.9735313 58.8825359,54.8844688 C58.8938995,54.750875 58.8938995,54.617875 58.8885167,54.4836875 C58.8825359,54.3310938 58.8466507,54.2865625 58.7055024,54.2865625 C58.6648325,54.280625 58.5930622,54.280625 58.4997608,54.280625 C58.3173445,54.280625 58.1869617,54.2865625 58.1169856,54.2170938 C58.0870813,54.1785 58.063756,54.1155625 58.063756,54.0330313 C58.0517943,53.829375 58.0517943,53.6191875 58.0577751,53.4030625 C58.0691388,53.2065313 58.1223684,53.1424063 58.3173445,53.1364688 L58.8998804,53.1364688 C59.070933,53.1364688 59.1941388,53.1489375 59.2061005,52.9963438 C59.2180622,52.8502813 59.2240431,52.5320313 59.1708134,52.4750313 C59.1415072,52.4495 59.0649522,52.4305 58.9297847,52.4305 L57.6570574,52.4305 C57.3687799,52.4305 57.362799,52.4435625 57.362799,52.7612188 L57.362799,56.4614688 C57.362799,56.6965938 57.3568182,56.779125 57.4094498,56.8295938 C57.4626794,56.8806563 57.5631579,56.8806563 57.6456938,56.8806563 L58.9238038,56.8806563 C59.0476077,56.8806563 59.188756,56.8937188 59.2007177,56.741125 C59.2180622,56.5885313 59.2180622,56.4294063 59.2061005,56.2643438 C59.188756,56.1182813 59.070933,56.1372813 58.8938995,56.13075 L58.8938995,56.13075 Z M61.9082536,56.5315313 C61.9315789,56.6140625 61.9435407,56.6906563 61.9495215,56.7476563 C61.9608852,56.8111875 61.9255981,56.8687813 61.8610048,56.874125 C61.7019139,56.8937188 61.5254785,56.8937188 61.3305024,56.8806563 C61.2013158,56.8616563 61.1839713,56.7155938 61.1480861,56.5374688 C61.1301435,56.4424688 61.0894737,56.270875 61.0302632,56.0226875 L60.9184211,55.5079063 C60.8950957,55.387375 60.8657895,55.2217188 60.6947368,55.24725 C60.5236842,55.2727813 60.5356459,55.444375 60.5296651,55.6409063 L60.5296651,56.5374688 C60.5296651,56.7280625 60.5529904,56.874125 60.3879187,56.8806563 C60.2527512,56.8871875 60.1116029,56.8871875 59.9698565,56.8806563 C59.8107656,56.874125 59.834689,56.722125 59.834689,56.5125313 L59.834689,52.7546875 C59.834689,52.5955625 59.8466507,52.5005625 59.8759569,52.4690938 C59.9291866,52.4115 60.0996411,52.4239688 60.4411483,52.4239688 L60.7533493,52.4239688 C60.9004785,52.4180313 61.0721292,52.4435625 61.2599282,52.5005625 C61.57811,52.5830938 61.813756,52.8823438 61.8251196,53.238 C61.8316986,53.4095938 61.8316986,53.7848438 61.8251196,54.3696875 C61.8251196,54.5163438 61.7665072,54.6689375 61.6546651,54.8209375 C61.5721292,54.929 61.5547847,55.0625938 61.5900718,55.2217188 C61.6433014,55.425375 61.7491627,55.857625 61.9082536,56.5315313 L61.9082536,56.5315313 Z M61.1714115,53.5497188 C61.1594498,53.3460625 61.0834928,53.2575938 60.8891148,53.2065313 C60.8478469,53.1994063 60.8239234,53.1934688 60.8005981,53.1869375 C60.4710526,53.1424063 60.5356459,53.314 60.5356459,53.8418438 C60.5356459,54.1220938 60.5416268,54.299625 60.5416268,54.3120938 C60.5416268,54.42075 60.5888756,54.4836875 60.688756,54.5163438 C60.9064593,54.57275 61.112799,54.4332188 61.1594498,54.1980938 C61.1654306,54.1600938 61.1714115,54.1345625 61.1714115,54.1220938 L61.1714115,53.5497188 Z M67.0505981,52.4305 C66.9447368,52.4239688 66.8269139,52.4239688 66.6971292,52.4239688 C66.5087321,52.4305 66.4854067,52.4495 66.4561005,52.646625 C66.4381579,52.7356875 66.4202153,52.8431563 66.4028708,52.983875 C66.355622,53.3715938 66.3322967,53.5497188 66.2910287,53.810375 C66.2730861,53.9113125 66.167823,53.9249688 66.1385167,53.8228438 C66.1145933,53.7593125 66.1026316,53.7076563 66.1026316,53.6767813 C66.0727273,53.4855938 66.0147129,53.0349375 65.9907895,52.8823438 C65.9907895,52.8502813 65.9608852,52.4370313 65.7844498,52.4305 C65.6139952,52.4239688 65.4662679,52.4239688 65.348445,52.4305 C65.2665072,52.4305 65.2192584,52.4815625 65.2072967,52.5646875 C65.1833732,52.6911563 65.154067,52.91975 65.1074163,53.2575938 C65.1014354,53.3205313 65.0601675,53.6637188 65.036244,53.8038438 C65.0308612,53.8798438 64.9770335,53.9374375 64.9423445,53.9249688 C64.9004785,53.9113125 64.8771531,53.8739063 64.8657895,53.8038438 C64.8424641,53.6577813 64.7952153,53.3080625 64.7832536,53.2124688 L64.6827751,52.570625 C64.6588517,52.3930938 64.5948565,52.4305 64.3125598,52.4305 L64.3125598,52.4239688 L64.2180622,52.4239688 C63.9818182,52.4180313 63.9351675,52.4560313 63.9818182,52.7291563 C64.0589713,53.2184063 64.4824163,56.009625 64.5236842,56.2453438 L64.6062201,56.7351875 C64.6355263,56.9251875 64.8305024,56.8871875 65.0009569,56.8871875 C65.2838517,56.8871875 65.3011962,56.874125 65.3430622,56.5760625 C65.3669856,56.4104063 65.4136364,56.0606875 65.4782297,55.539375 C65.4955742,55.444375 65.5135167,55.3743125 65.5374402,55.3487813 C65.5721292,55.30425 65.6253589,55.3107813 65.6486842,55.3553125 C65.6720096,55.4378438 65.695933,55.5524375 65.7138756,55.6985 C65.7252392,55.8000313 65.7545455,55.9650938 65.7958134,56.2198125 C65.8316986,56.4359375 65.855622,56.6140625 65.8669856,56.741125 C65.8789474,56.8295938 65.9196172,56.874125 66.008134,56.8806563 C66.1438995,56.8871875 66.279067,56.8871875 66.4028708,56.8871875 C66.5386364,56.8806563 66.5739234,56.84325 66.5972488,56.6906563 L66.5972488,56.6514688 C66.6032297,56.6395938 66.6032297,56.6265313 66.6032297,56.6140625 C66.7150718,55.8190313 67.0093301,53.8739063 67.1277512,53.0539375 C67.1630383,52.7926875 67.1869617,52.646625 67.1869617,52.608625 C67.1983254,52.4875 67.1630383,52.4305 67.0505981,52.4305 L67.0505981,52.4305 Z M68.3855263,52.4180313 C68.2736842,52.4115 67.9202153,52.3984375 67.8616029,52.4625625 C67.8376794,52.4875 67.8257177,52.5830938 67.8257177,52.7356875 L67.8257177,56.525 C67.8257177,56.7025313 67.8083732,56.8616563 67.9674641,56.874125 C68.0266746,56.8806563 68.1092105,56.8806563 68.2210526,56.8806563 C68.5099282,56.8806563 68.5212919,56.874125 68.5212919,56.5564688 L68.5212919,52.7926875 C68.5212919,52.5765625 68.5446172,52.4370313 68.3855263,52.4180313 L68.3855263,52.4180313 Z M70.8245215,52.4305 L69.4106459,52.4305 C69.2754785,52.4305 69.2049043,52.4180313 69.1576555,52.4625625 C69.1397129,52.4815625 69.1217703,52.5189688 69.1217703,52.570625 C69.1157895,52.7160938 69.1157895,52.86275 69.1217703,52.9963438 C69.1277512,53.1234063 69.1690191,53.1554688 69.2868421,53.1614063 C69.3101675,53.1685313 69.3580144,53.1685313 69.4226077,53.1685313 C69.5404306,53.1685313 69.6576555,53.1685313 69.716866,53.238 C69.7700957,53.3015313 69.7700957,53.3840625 69.7700957,53.6001875 L69.7700957,56.5315313 C69.7700957,56.722125 69.7467703,56.874125 69.8998804,56.8806563 C70.0410287,56.8871875 70.1881579,56.8871875 70.3412679,56.8806563 C70.4824163,56.8687813 70.4650718,56.722125 70.4650718,56.4935313 L70.4650718,53.6637188 C70.4650718,53.416125 70.4590909,53.3080625 70.5296651,53.238 C70.6008373,53.1614063 70.7246411,53.1685313 70.841866,53.1685313 C70.9483254,53.1685313 71.0302632,53.1685313 71.077512,53.1234063 C71.0954545,53.097875 71.1068182,53.0604688 71.1068182,53.002875 C71.112799,52.9518125 71.112799,52.8568125 71.112799,52.7291563 C71.112799,52.4305 71.1014354,52.4305 70.8245215,52.4305 L70.8245215,52.4305 Z M73.6259569,52.4115 C73.5141148,52.3984375 73.1606459,52.3930938 73.1080144,52.4495 C73.07811,52.4815625 73.0667464,52.570625 73.0667464,52.7291563 C73.0607656,52.8568125 73.0607656,53.0474063 73.0607656,53.295 L73.0607656,53.8608438 C73.0607656,54.0455 73.0721292,54.242625 72.8962919,54.261625 C72.7425837,54.2865625 72.536244,54.2865625 72.4656699,54.2170938 C72.4010766,54.147625 72.4130383,54.0199688 72.4130383,53.8163125 L72.4130383,52.7612188 C72.4130383,52.570625 72.4363636,52.4239688 72.2772727,52.4115 C72.1654306,52.3984375 71.8119617,52.3930938 71.7527512,52.4495 C71.723445,52.4815625 71.7114833,52.570625 71.7114833,52.7291563 L71.7114833,56.4739375 C71.7114833,56.7025313 71.7114833,56.7850625 71.7527512,56.8367188 C71.8,56.8871875 71.8998804,56.8806563 72.1002392,56.8806563 C72.3897129,56.8806563 72.4130383,56.855125 72.4130383,56.5564688 L72.4130383,55.3998438 C72.4130383,55.2217188 72.3956938,55.0560625 72.5661483,55.0435938 C72.7366029,55.031125 72.9901914,55.0055938 73.0374402,55.1837188 C73.0547847,55.24725 73.0607656,55.3363125 73.0607656,55.444375 L73.0667464,56.5505313 C73.0667464,56.722125 73.0482057,56.8616563 73.195933,56.874125 C73.2485646,56.8806563 73.3257177,56.8806563 73.4255981,56.8806563 C73.7437799,56.8806563 73.7611244,56.8687813 73.7611244,56.5315313 L73.7611244,52.7356875 C73.7611244,52.570625 73.7850478,52.4239688 73.6259569,52.4115 L73.6259569,52.4115 Z M78.1444976,56.4994688 C78.1744019,56.6835313 78.167823,56.7987188 78.1211722,56.84325 C78.0679426,56.8996563 77.6498804,56.8806563 77.6026316,56.8806563 C77.5434211,56.874125 77.508134,56.8616563 77.4848086,56.8367188 C77.432177,56.7850625 77.4261962,56.6906563 77.4022727,56.4864063 C77.3909091,56.3914063 77.3843301,56.3154063 77.3723684,56.2643438 C77.3669856,56.2008125 77.3550239,55.895625 77.1486842,55.8890938 C77.119378,55.8831563 77.1020335,55.8831563 77.1020335,55.8831563 C76.7952153,55.8831563 76.7485646,55.895625 76.7132775,56.2198125 C76.7078947,56.270875 76.6785885,56.4424688 76.6307416,56.7351875 C76.612799,56.8295938 76.5661483,56.874125 76.4836124,56.874125 C76.3011962,56.8806563 76.1480861,56.8806563 76.0242823,56.874125 C75.8592105,56.8687813 75.9004785,56.7351875 75.9244019,56.5505313 C76.0649522,55.6854375 76.4836124,53.0284063 76.5356459,52.6786875 C76.5715311,52.4690938 76.6187799,52.4305 76.8077751,52.4305 L77.3430622,52.4305 C77.4022727,52.4370313 77.4495215,52.4495 77.473445,52.4690938 C77.5141148,52.5130313 77.5374402,52.627625 77.5553828,52.7291563 C77.7204545,53.7848438 78.1385167,56.449 78.1444976,56.4994688 L78.1444976,56.4994688 Z M77.2198565,55.1005938 C77.2198565,55.088125 77.2198565,55.050125 77.2138756,54.9925313 C77.202512,54.8779375 77.1367225,54.541875 77.1367225,54.5222813 C77.1313397,54.4973438 77.119378,54.4652813 77.1020335,54.4266875 C77.0661483,54.3572188 77.0021531,54.3821563 76.9788278,54.4266875 C76.9369617,54.5472188 76.9022727,54.7449375 76.8837321,55.012125 C76.8783493,55.0435938 76.8783493,55.0756563 76.8783493,55.0940625 C76.8783493,55.1896563 77.2078947,55.1837188 77.2198565,55.1005938 L77.2198565,55.1005938 Z M80.1068182,56.13075 C79.6008373,56.1182813 79.5296651,56.1752813 79.5063397,55.9015625 C79.5063397,55.857625 79.5003589,55.7745 79.5003589,55.6480313 L79.5003589,52.8122813 C79.5003589,52.570625 79.5248804,52.4305 79.3592105,52.4180313 C79.3011962,52.4115 79.2180622,52.4115 79.1002392,52.4115 C78.8119617,52.4115 78.8053828,52.4239688 78.8053828,52.7356875 L78.8053828,56.582 C78.8053828,56.8687813 78.8173445,56.8806563 79.0822967,56.8806563 L80.2904306,56.8806563 C80.4202153,56.8806563 80.5553828,56.9061875 80.5607656,56.7351875 C80.5667464,56.582 80.5667464,56.4359375 80.5607656,56.28275 C80.5553828,56.0986875 80.4901914,56.13075 80.1068182,56.13075 L80.1068182,56.13075 Z M81.9429426,53.2629375 C82.0021531,53.1934688 82.0721292,53.1554688 82.1552632,53.1554688 C82.3197368,53.1554688 82.466866,53.3205313 82.4794258,53.5621875 C82.4848086,53.9629688 82.4555024,53.9885 82.6199761,54.0009688 C82.744378,54.0069063 82.8616029,54.0069063 82.9860048,54.0009688 C83.126555,54.0009688 83.167823,53.9629688 83.1744019,53.810375 C83.1797847,53.6191875 83.209689,53.1234063 83.0332536,52.8942188 C82.8388756,52.646625 82.6672249,52.5005625 82.5260766,52.4435625 C82.4794258,52.4239688 82.4202153,52.4180313 82.3669856,52.4115 C82.2910287,52.4115 82.1672249,52.4049688 81.9961722,52.4115 C81.9375598,52.4115 81.8717703,52.4239688 81.7952153,52.4560313 C81.4136364,52.608625 81.1660287,53.0284063 81.1773923,53.416125 L81.1833732,55.933625 C81.1833732,56.1432188 81.2186603,56.308875 81.3065789,56.4294063 C81.9136364,57.3188438 82.9973684,56.9631875 83.1564593,56.07375 C83.1797847,55.9460938 83.1863636,55.7109688 83.167823,55.3553125 C83.167823,55.2656563 83.1205742,55.2151875 83.0392344,55.20925 C82.9028708,55.2027188 82.7677033,55.2027188 82.6438995,55.20925 C82.5200957,55.20925 82.4907895,55.2537813 82.4794258,55.3927188 L82.4794258,55.7424375 C82.4728469,55.9781563 82.3197368,56.1622188 82.1373206,56.14975 C81.9549043,56.1372813 81.8663876,55.9591563 81.848445,55.8000313 C81.8370813,55.7240313 81.8370813,55.6409063 81.8370813,55.5524375 C81.8311005,55.0560625 81.8311005,54.4462813 81.8370813,53.7076563 C81.8370813,53.5497188 81.8251196,53.4030625 81.9429426,53.2629375 L81.9429426,53.2629375 Z M85.8466507,53.57525 L85.8526316,55.6795 C85.8526316,55.7495625 85.834689,55.914625 85.7880383,56.1752813 C85.7814593,56.2322813 85.7587321,56.28275 85.7288278,56.3403438 C85.2635167,57.14725 84.2856459,57.0967813 83.9088517,56.3344063 C83.8376794,56.1942813 83.8089713,56.0292188 83.8089713,55.8261563 L83.8089713,53.4410625 C83.7964115,53.0658125 83.9620813,52.74875 84.3035885,52.4815625 C84.3741627,52.4239688 84.438756,52.3930938 84.515311,52.3794375 C84.9812201,52.3034375 85.2754785,52.3735 85.5230861,52.627625 C85.7700957,52.8758125 85.8466507,53.238 85.8466507,53.57525 L85.8466507,53.57525 Z M85.1098086,53.5497188 C85.1098086,53.4600625 85.098445,53.3905938 85.0811005,53.3270625 C84.9866029,53.0153438 84.5511962,53.0539375 84.5093301,53.378125 C84.5045455,53.416125 84.5045455,53.48025 84.5045455,53.5817813 L84.5045455,55.6539688 C84.5045455,55.781625 84.5093301,55.876625 84.5338517,55.9276875 C84.6277512,56.18775 84.9692584,56.1942813 85.0751196,55.9401563 C85.098445,55.8831563 85.1098086,55.8000313 85.1098086,55.6985 L85.1098086,53.5497188 Z M88.4052632,52.4115 C88.2940191,52.3984375 87.9405502,52.3930938 87.8873206,52.4495 C87.8580144,52.4815625 87.8466507,52.570625 87.8466507,52.7291563 C87.8400718,52.8568125 87.8400718,53.0474063 87.8400718,53.295 L87.8400718,53.8608438 C87.8400718,54.0455 87.8520335,54.242625 87.675,54.261625 C87.522488,54.2865625 87.3161483,54.2865625 87.2455742,54.2170938 C87.1803828,54.147625 87.1923445,54.0199688 87.1923445,53.8163125 L87.1923445,52.7612188 C87.1923445,52.570625 87.2162679,52.4239688 87.0565789,52.4115 C86.9447368,52.3984375 86.5912679,52.3930938 86.5326555,52.4495 C86.5033493,52.4815625 86.4913876,52.570625 86.4913876,52.7291563 L86.4913876,56.4739375 C86.4913876,56.7025313 86.4913876,56.7850625 86.5326555,56.8367188 C86.5793062,56.8871875 86.6791866,56.8806563 86.8801435,56.8806563 C87.1684211,56.8806563 87.1923445,56.855125 87.1923445,56.5564688 L87.1923445,55.3998438 C87.1923445,55.2217188 87.175,55.0560625 87.3454545,55.0435938 C87.5165072,55.031125 87.7694976,55.0055938 87.8173445,55.1837188 C87.834689,55.24725 87.8400718,55.3363125 87.8400718,55.444375 L87.8466507,56.5505313 C87.8466507,56.722125 87.8287081,56.8616563 87.9752392,56.874125 C88.0284689,56.8806563 88.1050239,56.8806563 88.2055024,56.8806563 C88.5230861,56.8806563 88.5416268,56.8687813 88.5416268,56.5315313 L88.5416268,52.7356875 C88.5416268,52.570625 88.5649522,52.4239688 88.4052632,52.4115 L88.4052632,52.4115 Z M91.2078947,53.57525 L91.2132775,55.6795 C91.2132775,55.7495625 91.1953349,55.914625 91.1486842,56.1752813 C91.1427033,56.2322813 91.119378,56.28275 91.0894737,56.3403438 C90.6247608,57.14725 89.6462919,57.0967813 89.2694976,56.3344063 C89.1989234,56.1942813 89.1696172,56.0292188 89.1696172,55.8261563 L89.1696172,53.4410625 C89.1576555,53.0658125 89.3227273,52.74875 89.6642344,52.4815625 C89.7348086,52.4239688 89.8,52.3930938 89.876555,52.3794375 C90.341866,52.3034375 90.6367225,52.3735 90.8843301,52.627625 C91.1313397,52.8758125 91.2078947,53.238 91.2078947,53.57525 L91.2078947,53.57525 Z M90.4710526,53.5497188 C90.4710526,53.4600625 90.459689,53.3905938 90.4417464,53.3270625 C90.3478469,53.0153438 89.9118421,53.0539375 89.8705742,53.378125 C89.8651914,53.416125 89.8651914,53.48025 89.8651914,53.5817813 L89.8651914,55.6539688 C89.8651914,55.781625 89.8705742,55.876625 89.8938995,55.9276875 C89.9889952,56.18775 90.3299043,56.1942813 90.4363636,55.9401563 C90.459689,55.8831563 90.4710526,55.8000313 90.4710526,55.6985 L90.4710526,53.5497188 Z M93.1773923,56.13075 C92.6708134,56.1182813 92.6002392,56.1752813 92.5763158,55.9015625 C92.5763158,55.857625 92.570933,55.7745 92.570933,55.6480313 L92.570933,52.8122813 C92.570933,52.570625 92.5948565,52.4305 92.4291866,52.4180313 C92.3705742,52.4115 92.2880383,52.4115 92.1702153,52.4115 C91.8819378,52.4115 91.8759569,52.4239688 91.8759569,52.7356875 L91.8759569,56.582 C91.8759569,56.8687813 91.8873206,56.8806563 92.1528708,56.8806563 L93.3604067,56.8806563 C93.4895933,56.8806563 93.6253589,56.9061875 93.6307416,56.7351875 C93.6367225,56.582 93.6367225,56.4359375 93.6307416,56.28275 C93.6253589,56.0986875 93.5601675,56.13075 93.1773923,56.13075 L93.1773923,56.13075 Z" id="Fill-59" fill="#FFFFFF"></path>
            </g>
        </g>
    </g>
</svg>