<?xml version="1.0" encoding="UTF-8"?>
<svg width="125px" height="58px" viewBox="0 0 125 58" version="1.1" xmlns="http://www.w3.org/2000/svg" xmlns:xlink="http://www.w3.org/1999/xlink">
    <title>Logo / Primary</title>
    <defs>
        <polygon id="path-1" points="0 0.0561875 36.011244 0.0561875 36.011244 11.6250729 0 11.6250729"></polygon>
        <polygon id="path-3" points="0.538397129 0.518133333 51.0382775 0.518133333 51.0382775 17.6239042 0.538397129 17.6239042"></polygon>
    </defs>
    <g id="Symbols" stroke="none" stroke-width="1" fill="none" fill-rule="evenodd">
        <g id="Nav" transform="translate(-20.000000, -16.000000)">
            <g id="Group-61" transform="translate(20.000000, 16.000000)">
                <path d="M87.4807416,13.1186938 L87.5363636,14.1409437 L87.5363636,14.1185896 L91.8485646,14.1185896 L91.8485646,14.1397354 L91.8988038,13.1054021 C91.8988038,13.1054021 90.9771531,13.3440479 89.6266746,13.3440479 C88.3802632,13.3440479 87.4807416,13.1186938 87.4807416,13.1186938" id="Fill-1" fill="#FDD009"></path>
                <path d="M78.4136962,13.2555375 L78.4136962,14.1793083 C79.6858254,13.6470375 84.2330742,12.1348083 85.1882177,17.2659958 C85.2575957,17.6599125 85.2964713,18.0900792 85.2964713,18.5740167 L85.2964713,17.65085 C85.2964713,17.1675167 85.2575957,16.7367458 85.1882177,16.3428292 C84.2330742,11.2116417 79.6858254,12.7232667 78.4136962,13.2555375" id="Fill-3" fill="#FDD009"></path>
                <path d="M102.949821,13.7493833 C102.190849,13.1264875 101.121471,12.6763833 99.6776914,12.6763833 C97.230323,12.6763833 95.1113038,14.0828833 94.0855861,16.6095083 C93.8816388,17.0716958 93.6812799,17.6680083 93.584988,18.3706542 L93.5819976,18.38455 L93.5837919,18.3785083 C93.4647727,19.2575708 93.508433,20.2991542 93.9133373,21.44405 L93.924701,21.4736542 C93.8672847,21.2863625 93.8230263,21.0972583 93.7913278,20.9045292 L93.7913278,20.89305 C93.7769737,20.8217583 93.765012,20.7522792 93.7542464,20.6803833 L93.7524522,20.6471542 C93.7470694,20.6145292 93.7416866,20.5813 93.7392943,20.5498833 C93.7345096,20.526925 93.7321172,20.5069875 93.730323,20.4828208 C93.7255383,20.4477792 93.7225478,20.4127375 93.7183612,20.3789042 C93.716567,20.3468833 93.7141746,20.3118417 93.7111842,20.2780083 L93.7075957,20.2248417 C93.7040072,20.1940292 93.7022129,20.1620083 93.6998206,20.1287792 L93.695634,20.0756125 C93.695634,20.0417792 93.695634,20.0091542 93.6944378,19.9747167 L93.6920455,19.9306125 C93.6920455,19.8786542 93.6920455,19.830925 93.6920455,19.7813833 C93.6920455,19.5125292 93.7087919,19.2473 93.7416866,18.9875083 C93.7590311,18.8419042 93.7823565,18.7011333 93.8086722,18.5615708 C93.8397727,18.402675 93.8780502,18.2474042 93.9205144,18.0939458 C93.9312799,18.054675 93.9420455,18.0154042 93.9546053,17.9767375 C93.9976675,17.8275083 94.0455144,17.6788833 94.1005383,17.5344875 L94.1208732,17.4849458 C94.1705144,17.3580708 94.2243421,17.2342167 94.2823565,17.1115708 C94.3044856,17.0644458 94.3272129,17.0173208 94.3493421,16.9701958 C94.4055622,16.858425 94.4641746,16.7484667 94.5263756,16.6403208 C94.5610646,16.5805083 94.5969498,16.5219042 94.6340311,16.4633 C94.6824761,16.3847583 94.7327153,16.307425 94.7841507,16.2313 C94.8266148,16.1702792 94.8684809,16.1092583 94.9127392,16.0488417 C94.9558014,15.99205 95.0000598,15.9364667 95.0437201,15.8802792 C95.1328349,15.7685083 95.2249402,15.6603625 95.3212321,15.5546333 C95.3505383,15.5220083 95.3804426,15.4887792 95.4103469,15.4567583 C95.4797249,15.3842583 95.5491029,15.3135708 95.6214713,15.2440917 L95.6322368,15.2350292 C95.7907297,15.0833833 95.9581938,14.9408 96.1328349,14.8072792 L96.1537679,14.7909667 C96.425299,14.5843417 96.7129785,14.400675 97.0174043,14.2417792 L97.0197967,14.233925 C97.0664474,14.2109667 97.1125,14.1861958 97.1603469,14.1644458 L97.1657297,14.1626333 C97.2243421,14.1342375 97.2835526,14.1088625 97.3433612,14.081675 C97.4229067,14.0460292 97.5030502,14.0121958 97.5837919,13.9795708 C97.6430024,13.9560083 97.7022129,13.9318417 97.7614234,13.9100917 C97.8870215,13.864175 98.0162081,13.8230917 98.1453947,13.7856333 C98.1962321,13.7711333 98.2482656,13.7578417 98.300299,13.74455 C98.4145335,13.7149458 98.529366,13.6883625 98.6465909,13.6648 C98.681878,13.6581542 98.7171651,13.6496958 98.7524522,13.64305 C98.9019737,13.6164667 99.0538876,13.5965292 99.2075957,13.581425 C99.2476675,13.5771958 99.2871411,13.574175 99.3266148,13.57055 C99.4880981,13.5578625 99.6489833,13.5488 99.8146531,13.5488 C101.220156,13.5488 102.26262,13.9300292 103.001854,14.4580708 C103.111902,14.5372167 103.214175,14.6205917 103.312261,14.7057792 L103.346352,14.7347792 C103.437261,14.8163417 103.522787,14.9003208 103.601734,14.9855083 L103.640012,15.0265917 C103.716567,15.111175 103.788337,15.1969667 103.854725,15.2839667 L103.884031,15.3232375 C103.949821,15.4126542 104.010227,15.502675 104.065251,15.5926958 L104.078409,15.6132375 C104.253648,15.9074667 104.371471,16.198675 104.434868,16.4626958 L104.436065,16.4663208 C104.457596,16.5551333 104.473744,16.640925 104.483313,16.7230917 L104.485706,16.6693208 C104.485706,15.89055 104.037141,14.6429458 102.949821,13.7493833" id="Fill-5" fill="#FDD009"></path>
                <path d="M123.366507,12.6180813 L117.361124,17.0581021 C116.580024,14.5338938 114.26244,12.7032688 111.523804,12.7032688 C108.144019,12.7032688 105.557297,15.4927063 105.557297,18.9340396 C105.557297,19.4512063 105.619498,19.9532687 105.735526,20.4329771 L105.753469,20.4166646 C105.732536,20.2082271 105.720574,19.9973729 105.720574,19.7810813 C105.720574,16.3403521 108.459809,13.5491021 111.843182,13.5491021 C114.268421,13.5491021 116.361722,14.9809771 117.354545,17.0623312 L123.677512,13.8421229 L123.366507,12.6180813 Z" id="Fill-7" fill="#FDD009"></path>
                <polygon id="Fill-9" fill="#FDD009" points="78.4136962 8.98009167 74.1242225 8.08834167 74.1074761 8.92088333 78.4136962 9.80055"></polygon>
                <path d="M11.4767943,8.90722917 L11.4672249,9.812875 L12.8135167,10.0744792 L14.676555,10.436375 L16.1861244,10.73 L16.1861244,10.0762917 C15.8386364,9.9814375 15.5114833,9.89141667 15.2022727,9.80622917 C13.6663876,9.38210417 12.579067,9.08304167 11.4767943,8.90722917" id="Fill-11" fill="#FDD009"></path>
                <g id="Group-15" transform="translate(0.000000, 0.548160)">
                    <mask id="mask-2" fill="white">
                        <use xlink:href="#path-1"></use>
                    </mask>
                    <g id="Clip-14"></g>
                    <path d="M29.3162679,5.40638542 C29.6673445,5.40638542 30.0106459,5.39430208 30.337799,5.36892708 C31.517823,5.28071875 32.5417464,5.02817708 33.3958134,4.62278125 C34.8007177,3.95094792 35.4161483,3.01992708 35.823445,2.40428125 C35.8563397,2.35473958 35.8868421,2.31003125 35.9125598,2.26894792 L36.011244,2.12334375 C31.0746411,7.74028125 21.5339713,2.46288542 13.8659091,0.72409375 L13.8736842,0.721072917 C12.1745215,0.29815625 10.7032297,0.0558854167 8.60873206,0.0558854167 C6.309689,0.0558854167 4.14700957,0.969989583 2.52021531,2.62540625 C0.895813397,4.28021875 -0.000119617225,6.47938542 -0.000119617225,8.82234375 C-0.000119617225,9.79142708 0.155382775,10.7345312 0.450239234,11.6250729 C0.422129187,11.4347604 0.402392344,11.2426354 0.387440191,11.0493021 L0.386842105,11.0480937 C0.384449761,11.0124479 0.382057416,10.9768021 0.379066986,10.9405521 C0.365311005,10.7357396 0.355741627,10.5297187 0.355741627,10.3218854 C0.355741627,7.97892708 1.25167464,5.77976042 2.87607656,4.12494792 C4.50287081,2.46892708 6.66555024,1.55542708 8.96399522,1.55542708 C9.13385167,1.55542708 9.29832536,1.55723958 9.45980861,1.56026042 L9.4604067,1.56026042 C9.51363636,1.56146875 9.56447368,1.56328125 9.61650718,1.56448958 L9.61710526,1.56448958 C9.72476077,1.56751042 9.8312201,1.57053125 9.93588517,1.57476042 L9.9388756,1.57476042 C10.0578947,1.57959375 10.1745215,1.58563542 10.2911483,1.59228125 C10.3252392,1.59409375 10.3605263,1.59590625 10.3946172,1.59832292 L10.3976077,1.59832292 C10.455622,1.60194792 10.5136364,1.60557292 10.5710526,1.60980208 L10.5740431,1.60980208 C10.6655502,1.61644792 10.7558612,1.62369792 10.8461722,1.63155208 C11.0782297,1.65148958 11.3049043,1.67444792 11.5267943,1.70163542 L11.5495215,1.70465625 C11.7564593,1.73063542 11.9604067,1.75903125 12.1625598,1.79105208 C12.1828947,1.79407292 12.2038278,1.79709375 12.2241627,1.80071875 L12.2247608,1.80071875 C12.2947368,1.81159375 12.3641148,1.82367708 12.4334928,1.83576042 C12.4950957,1.84603125 12.5572967,1.85690625 12.6194976,1.86838542 L12.6254785,1.86959375 C12.6900718,1.88167708 12.7558612,1.89315625 12.8204545,1.90584375 L12.823445,1.90644792 C12.8856459,1.91853125 12.948445,1.93121875 13.0106459,1.94390625 L13.0166268,1.94511458 C13.0842105,1.95840625 13.1517943,1.97230208 13.2199761,1.98619792 L13.2211722,1.98680208 C13.2726077,1.99767708 13.3246411,2.00915625 13.3754785,2.02063542 L13.3814593,2.02184375 C13.5752392,2.06413542 13.7714115,2.10884375 13.969378,2.15657292 L13.9723684,2.15717708 C14.0997608,2.18798958 14.2277512,2.22001042 14.3575359,2.25263542 L14.3712919,2.25626042 L14.37189,2.25626042 C14.462799,2.27921875 14.5555024,2.30278125 14.6482057,2.32694792 L14.6595694,2.32996875 C14.6942584,2.33903125 14.7289474,2.34809375 14.7636364,2.35715625 L14.7660287,2.35776042 C14.8736842,2.38615625 14.9819378,2.41455208 15.0919856,2.44415625 L15.094378,2.44476042 L15.1051435,2.44778125 C15.2923445,2.49792708 15.4837321,2.54988542 15.6799043,2.60365625 L15.6888756,2.60546875 L15.7008373,2.60909375 C15.7379187,2.61936458 15.7755981,2.62963542 15.8126794,2.63990625 C16.0130383,2.69488542 16.2169856,2.75107292 16.4293062,2.80967708 C18.3366029,3.33228125 20.9442584,4.05365625 25.0106459,4.90976042 C26.5818182,5.23782292 28.0297847,5.40638542 29.3162679,5.40638542" id="Fill-13" fill="#FDD009" mask="url(#mask-2)"></path>
                </g>
                <path d="M51.777512,12.7030271 C50.4940191,12.7030271 49.3038278,13.1060062 48.3199761,13.7929437 L48.3205742,13.7917354 L43.9563397,16.9841521 C43.152512,14.4986104 40.8546651,12.7030271 38.1441388,12.7030271 C36.8606459,12.7030271 35.6704545,13.1060062 34.6866029,13.7929437 L34.687201,13.7917354 L30.3385167,17.0179854 C29.5442584,14.5143187 27.2380383,12.7030271 24.5149522,12.7030271 C21.1345694,12.7030271 18.3947368,15.4930687 18.3947368,18.9337979 C18.3947368,19.7645271 18.555622,20.5565896 18.8456938,21.2815896 C18.847488,21.2096937 18.8522727,21.1384021 18.8564593,21.0665062 L18.8564593,21.0646937 L18.8564593,21.0640896 C18.8373206,20.9716521 18.8211722,20.8786104 18.805622,20.7843604 L18.8044258,20.7759021 L18.8026316,20.7668396 L18.8002392,20.7505271 C18.7864833,20.6641312 18.7757177,20.5765271 18.7661483,20.4883187 L18.7643541,20.4726104 L18.7625598,20.4629437 L18.7619617,20.4569021 C18.7523923,20.3626521 18.7446172,20.2677979 18.7392344,20.1723396 L18.7374402,20.1584437 L18.7374402,20.1475687 C18.7302632,20.0261312 18.7260766,19.9046937 18.7260766,19.7814437 C18.7260766,16.3401104 21.4683014,13.5488604 24.8480861,13.5488604 C27.2547847,13.5488604 29.3349282,14.9614021 30.3355263,17.0197979 L35.6441388,14.2593604 C36.4934211,13.8050271 37.4569378,13.5488604 38.4826555,13.5488604 C40.8761962,13.5488604 42.9437799,14.9481104 43.9551435,16.9847562 L49.5155502,14.1379229 C50.3032297,13.7609229 51.187201,13.5488604 52.1184211,13.5488604 C52.2344498,13.5488604 52.3486842,13.5542979 52.4623206,13.5615479 C52.5466507,13.5663812 52.6297847,13.5730271 52.7129187,13.5814854 L52.7135167,13.5814854 L52.7165072,13.5820896 C52.812201,13.5911521 52.9090909,13.5996104 53.0041866,13.6135063 L53.0053828,13.6141104 C53.1489234,13.6352563 53.2906699,13.6618396 53.4312201,13.6932562 L53.4318182,13.6932562 C53.507177,13.7095687 53.5807416,13.7313187 53.6549043,13.7512562 C53.7194976,13.7681729 53.784689,13.7826729 53.8486842,13.8020062 L53.8492823,13.8020062 C53.9019139,13.8177146 53.9521531,13.8370479 54.0041866,13.8539646 C54.0639952,13.8745063 54.125,13.8932354 54.1836124,13.9155896 C54.284689,13.9524437 54.3833732,13.9929229 54.4814593,14.0346104 L54.4844498,14.0358187 L54.4910287,14.0388396 L54.5203349,14.0509229 C54.6196172,14.0944229 54.7165072,14.1397354 54.812201,14.1880687 L54.8570574,14.2104229 C55.1244019,14.3469646 55.3809809,14.5028396 55.6244019,14.6768396 L55.625,14.6768396 L55.6519139,14.6955687 L55.652512,14.6961729 C55.7625598,14.7759229 55.8696172,14.8586937 55.9742823,14.9450896 C56.0795455,15.0326937 56.1812201,15.1227146 56.2799043,15.2163604 L56.2852871,15.2211938 C56.312201,15.2465687 56.3409091,15.2707354 56.3672249,15.2967146 C56.4605263,15.3885479 56.5496411,15.4834021 56.6369617,15.5806729 L56.6423445,15.5855062 L56.6566986,15.6012146 L56.6566986,15.6018187 C56.7266746,15.6803604 56.7930622,15.7619229 56.8582536,15.8440896 L56.8600478,15.8459021 L56.8995215,15.8936313 L56.8995215,15.8942354 C56.9730861,15.9872771 57.0430622,16.0833396 57.111244,16.1812146 L57.1118421,16.1830271 L57.1136364,16.1848396 L57.1393541,16.2210896 L57.1399522,16.2216937 C57.2111244,16.3256104 57.27811,16.4313396 57.3433014,16.5394854 C57.361244,16.5696937 57.3803828,16.5986937 57.3983254,16.6289021 L57.3983254,16.6295062 C57.4509569,16.7201312 57.5,16.8149854 57.548445,16.9092354 C57.562201,16.9370271 57.5783493,16.9636104 57.5927033,16.9920062 C56.7906699,14.5016312 54.4910287,12.7030271 51.777512,12.7030271" id="Fill-16" fill="#FDD009"></path>
                <path d="M89.5828349,4.98455625 C88.0158493,4.98455625 86.7443182,6.27807708 86.7443182,7.87307708 C86.7443182,8.05674375 86.7622608,8.23557708 86.7951555,8.40897292 C86.8077153,8.33888958 86.8250598,8.27061875 86.8430024,8.20234792 L86.8430024,8.20113958 L86.8430024,8.20053542 L86.8555622,8.14978542 C86.874701,8.08272292 86.8968301,8.01807708 86.9195574,7.95343125 L86.9297249,7.92443125 C86.9548445,7.85797292 86.9811603,7.79332708 87.0104665,7.72928542 L87.0104665,7.72868125 C87.0218301,7.70572292 87.0319976,7.68336875 87.0433612,7.66101458 C87.0744617,7.59757708 87.1073565,7.53534792 87.1432416,7.47493125 L87.1432416,7.47372292 L87.166567,7.43505625 L87.1677632,7.43384792 C87.1982656,7.38370208 87.2281699,7.33355625 87.2622608,7.28582708 L87.2622608,7.28522292 L87.2813995,7.25863958 C87.3250598,7.19761875 87.3693182,7.13841042 87.416567,7.08101458 L87.4201555,7.07799375 L87.4213517,7.07618125 C87.5170455,6.96138958 87.6211124,6.85566042 87.7323565,6.75778542 L87.7329545,6.75718125 C87.7772129,6.71851458 87.8244617,6.68166042 87.8711124,6.64541042 L87.8717105,6.64480625 L87.8723086,6.64420208 L87.8788876,6.63876458 C88.0308014,6.52216042 88.194677,6.42186875 88.368122,6.33788958 L88.3693182,6.33728542 C88.3884569,6.32822292 88.4063995,6.31795208 88.4255383,6.30888958 C88.4620215,6.29318125 88.4973086,6.27807708 88.5331938,6.26357708 L88.5331938,6.26297292 L88.534988,6.26297292 C88.5678828,6.24968125 88.6007775,6.23759792 88.6348684,6.22551458 C88.7233852,6.19288958 88.8154904,6.16570208 88.9081938,6.14274375 L88.909988,6.14213958 C89.0026914,6.11857708 89.097189,6.10045208 89.1940789,6.08716042 L89.194677,6.08716042 L89.2186005,6.08293125 L89.2215909,6.08293125 C89.249701,6.07870208 89.277811,6.07386875 89.3065191,6.07084792 L89.3077153,6.07084792 L89.3083134,6.07084792 C89.3980263,6.06238958 89.4901316,6.05695208 89.5828349,6.05695208 C89.6755383,6.05695208 89.7670455,6.06238958 89.8573565,6.07084792 L89.8585526,6.07084792 C89.8872608,6.07386875 89.9153708,6.07870208 89.9440789,6.08293125 L89.9458732,6.08293125 L89.9464713,6.08293125 L89.9703947,6.08716042 L89.9709928,6.08716042 C90.0607057,6.09924375 90.1474282,6.11555625 90.2347488,6.13609792 L90.2371411,6.13670208 C90.3220694,6.15724375 90.4069976,6.18201458 90.4901316,6.21041042 L90.4913278,6.21041042 C90.5385766,6.22672292 90.5846292,6.24424375 90.6306818,6.26236875 L90.6312799,6.26297292 C90.6671651,6.27747292 90.7030502,6.29257708 90.7383373,6.30888958 L90.7395335,6.30888958 L90.7933612,6.33607708 C90.8872608,6.38078542 90.9769737,6.43093125 91.0642943,6.48530625 L91.0672847,6.48711875 C91.1426435,6.53424375 91.215012,6.58499375 91.2861842,6.63876458 L91.2927632,6.64420208 L91.2933612,6.64480625 L91.2939593,6.64541042 C91.3412081,6.68166042 91.3878589,6.71851458 91.4321172,6.75718125 L91.4327153,6.75778542 C91.5439593,6.85566042 91.6486244,6.96138958 91.7437201,7.07618125 L91.7455144,7.07799375 L91.7491029,7.08101458 C91.7957536,7.13841042 91.840012,7.19761875 91.8830742,7.25863958 L91.902811,7.28522292 L91.9034091,7.28522292 L91.9034091,7.28582708 C92.03439,7.47493125 92.1420455,7.68095208 92.2263756,7.89966042 L92.2269737,7.90026458 L92.2365431,7.92805625 C92.2628589,8.00055625 92.2873804,8.07426458 92.3095096,8.14978542 L92.3226675,8.20053542 L92.3226675,8.20113958 L92.3226675,8.20234792 C92.340012,8.27061875 92.3573565,8.33888958 92.3699163,8.40897292 C92.402811,8.23557708 92.4207536,8.05674375 92.4207536,7.87307708 C92.4207536,6.27807708 91.1498206,4.98455625 89.5828349,4.98455625" id="Fill-18" fill="#FDD009"></path>
                <path d="M61.1246411,14.2104833 L57.6210526,17.0470458 L60.8782297,15.3874 L62.4200957,14.6019833 C62.6252392,13.7676292 62.8913876,12.947775 63.2221292,12.1496708 C64.0349282,10.18915 65.2005981,8.43162917 66.6838517,6.9212125 C68.1659091,5.4132125 69.8931818,4.2278375 71.8166268,3.3977125 C73.8088517,2.5404 75.9260766,2.1035875 78.1078947,2.1035875 C80.8489234,2.1035875 83.5600478,2.8177125 85.9404306,4.1644 L86.0163876,4.2079 C83.5720096,2.25342083 80.3632775,1.35260833 77.0570574,1.35260833 C69.3578947,1.35260833 62.9039474,6.8759 61.1246411,14.2104833" id="Fill-20" fill="#FDD009"></path>
                <path d="M24.0584928,10.1459521 C25.9328947,10.5404729 27.6978469,10.7398479 29.3061005,10.7398479 C31.2397129,10.7398479 32.9897129,10.4504521 34.5106459,9.88132708 L34.5148325,9.87891042 L34.5184211,9.87588958 C34.5566986,9.85836875 34.594378,9.83963958 34.6314593,9.82332708 C36.0297847,9.14122292 36.9394737,7.93893125 37.1912679,6.44120208 C37.4161483,5.09995208 37.059689,3.64209792 36.3252392,2.89716042 C36.2869617,2.85728542 36.2235646,2.80532708 36.1751196,2.77391042 L36.0214115,2.65670208 L35.9131579,2.81741042 C35.8868421,2.85849375 35.8569378,2.90259792 35.8240431,2.95274375 C35.4161483,3.56778542 34.8013158,4.49880625 33.3958134,5.17063958 C32.5417464,5.57603542 31.5184211,5.82918125 30.337799,5.91678542 C30.011244,5.94216042 29.6673445,5.95484792 29.316866,5.95484792 C28.0297847,5.95484792 26.5818182,5.78628542 25.0106459,5.45761875 C20.9442584,4.60151458 18.337201,3.88013958 16.4293062,3.35813958 C13.6045455,2.57634792 11.8964115,2.10328542 8.9645933,2.10328542 C6.66555024,2.10328542 4.50287081,3.01738958 2.87607656,4.67341042 C1.25167464,6.32822292 0.356339713,8.52678542 0.356339713,10.8697437 C0.356339713,13.2133063 1.25167464,15.4118687 2.87607656,17.0672854 C4.50287081,18.7227021 6.66555024,19.6355979 8.9645933,19.6355979 L9.15059809,19.6355979 L9.15059809,16.5235354 C6.56028708,16.4945354 4.47057416,14.3527646 4.47057416,11.7095354 C4.47057416,9.94476458 5.4041866,8.40534792 6.78935407,7.56676458 C7.42930622,7.12753542 8.17990431,6.89251458 8.9645933,6.89251458 C9.03576555,6.89251458 9.10394737,6.89372292 9.1715311,6.89372292 L9.20083732,6.89372292 L9.26961722,6.89372292 C11.3904306,6.92695208 12.7026316,7.28703542 15.2026316,7.97820208 C17.1673445,8.51772292 19.8539474,9.26024375 24.0584928,10.1459521" id="Fill-22" fill="#004638"></path>
                <path d="M89.5828349,11.8336313 C91.1498206,11.8336313 92.4207536,10.5401104 92.4207536,8.94511042 C92.4207536,7.35011042 91.1498206,6.05658958 89.5828349,6.05658958 C88.0158493,6.05658958 86.7443182,7.35011042 86.7443182,8.94511042 C86.7443182,10.5401104 88.0158493,11.8336313 89.5828349,11.8336313" id="Fill-24" fill="#004638"></path>
                <path d="M88.1436603,27.6431625 C88.0049043,27.6334958 87.8619617,27.62685 87.7208134,27.62685 C87.6269139,27.62685 87.5276316,27.6286625 87.4295455,27.6347042 C87.3870813,27.637725 87.3470096,27.6395375 87.3045455,27.6431625 L87.3003589,27.6431625 L87.2967703,27.6431625 C86.1370813,27.8201833 84.9361244,28.1857042 83.7136364,28.732475 C83.5497608,28.8128292 83.3805024,28.8895583 83.2118421,28.964475 L83.1143541,29.0134125 C83.0132775,29.0635583 82.9217703,29.1082667 82.8278708,29.1505583 C81.3416268,29.8368917 79.7543062,30.1879125 78.1083732,30.1879125 C75.0563397,30.1879125 72.1861244,28.9747458 70.0276316,26.7792042 C68.0892344,24.8047875 66.933134,22.2431208 66.7202153,19.488725 C66.6448565,18.9353083 66.6005981,18.3692042 66.6005981,17.7916208 C66.6005981,11.0847667 71.9438995,5.6502875 78.5294258,5.6502875 C80.6358852,5.6502875 82.6155502,6.20793333 84.3338517,7.1836625 L86.037799,4.220225 L85.9397129,4.16464167 C83.5599282,2.81735 80.8488038,2.10382917 78.1083732,2.10382917 C75.9259569,2.10382917 73.8087321,2.54064167 71.8165072,3.39795417 C69.8930622,4.22807917 68.1663876,5.41345417 66.6837321,6.92145417 C65.2010766,8.43187083 64.0342105,10.1893917 63.2220096,12.1499125 C62.8912679,12.9480167 62.6251196,13.7678708 62.4199761,14.6016208 L57.620933,17.0472875 C56.6257177,14.9768083 54.5366029,13.5491625 52.1185407,13.5491625 C51.1873206,13.5491625 50.3033493,13.7600167 49.5156699,14.1376208 L43.9552632,16.9844542 C42.9444976,14.9478083 40.8763158,13.5491625 38.4827751,13.5491625 C37.4570574,13.5491625 36.4935407,13.804725 35.6442584,14.2596625 L30.3356459,17.0194958 C29.3350478,14.9617042 27.2549043,13.5491625 24.8482057,13.5491625 C21.4684211,13.5491625 18.7261962,16.3404125 18.7261962,19.7811417 C18.7261962,23.2236833 21.4684211,26.0161417 24.8482057,26.0161417 C28.2297847,26.0161417 30.9690191,23.2236833 30.9690191,19.7811417 C30.9690191,19.5787458 30.9606459,19.3805792 30.9421053,19.1836208 L32.3577751,18.8138708 L32.3577751,30.3987667 L36.6687799,30.3987667 L36.6687799,25.7364125 C37.2411483,25.9182667 37.85,26.0161417 38.4827751,26.0161417 C41.8631579,26.0161417 44.6059809,23.2236833 44.6059809,19.7811417 C44.6059809,19.568475 44.5940191,19.3588292 44.5748804,19.1516 L46.0784689,18.7601 C46.0246411,19.0936 45.9947368,19.43435 45.9947368,19.7811417 C45.9947368,23.2236833 48.7351675,26.0161417 52.1185407,26.0161417 C55.4989234,26.0161417 58.2411483,23.2236833 58.2411483,19.7811417 C58.2411483,19.5823708 58.2315789,19.3823917 58.211244,19.1884542 L61.9552632,18.2109125 C61.9528708,18.3244958 61.9498804,18.437475 61.9498804,18.5540792 C61.9498804,20.7731833 62.3787081,22.9264333 63.2220096,24.9564333 C64.0342105,26.9157458 65.2010766,28.6756833 66.6837321,30.1842875 C68.1663876,31.6941 69.8930622,32.8788708 71.8165072,33.7083917 C73.8087321,34.5663083 75.9259569,35.0013083 78.1083732,35.0013083 C80.4343301,35.0013083 82.6807416,34.5077042 84.7836124,33.5337875 C85.0270335,33.4214125 85.2680622,33.3048083 85.50311,33.1797458 L85.5114833,33.1773292 C86.5916268,32.6813083 87.6161483,32.3997667 88.5533493,32.3375375 C88.6873206,32.3302875 88.8183014,32.3236417 88.9480861,32.3236417 C90.2967703,32.3236417 91.1550239,32.777975 91.7842105,33.1090583 C91.8356459,33.1338292 91.8816986,33.1598083 91.9247608,33.1833708 L92.0808612,33.2631208 L92.1544258,33.0993917 C92.1891148,33.0262875 92.2142344,32.9622458 92.2279904,32.9181417 C92.5198565,31.900725 92.141866,30.4380375 91.3027512,29.3614125 C90.5114833,28.3464125 89.4211722,27.7519125 88.1436603,27.6431625 M25.2662679,22.1482667 C23.8906699,22.1482667 22.7776316,21.0124333 22.7776316,19.6137875 C22.7776316,18.5480375 23.4205742,17.6369542 24.3350478,17.2599542 C24.2997608,17.4363708 24.2788278,17.6158083 24.2788278,17.8006833 C24.2788278,19.2035583 25.3936603,20.3381833 26.7674641,20.3381833 C27.0964115,20.3381833 27.4116029,20.2711208 27.697488,20.1545167 C27.4552632,21.2921625 26.4582536,22.1482667 25.2662679,22.1482667 M27.5407895,18.4731208 L27.4169856,18.5365583 C27.2997608,18.5848917 27.1687799,18.6126833 27.0336124,18.6126833 C26.4917464,18.6126833 26.0473684,18.1649958 26.0473684,17.6079542 C26.0473684,17.0551417 26.4917464,16.6038292 27.0336124,16.6038292 C27.5820574,16.6038292 28.0222488,17.0551417 28.0222488,17.6079542 C28.0222488,17.9777042 27.8284689,18.2967042 27.5407895,18.4731208 M38.9995215,22.2981 C37.5282297,22.2981 36.3368421,21.0855375 36.3368421,19.5914333 C36.3368421,18.096725 37.5282297,16.8847667 38.9995215,16.8847667 C40.4660287,16.8847667 41.6574163,18.096725 41.6574163,19.5914333 C41.6574163,21.0855375 40.4660287,22.2981 38.9995215,22.2981 M52.5336124,22.1482667 C51.1598086,22.1482667 50.044378,21.0124333 50.044378,19.6137875 C50.044378,18.5480375 50.6921053,17.6369542 51.6059809,17.2599542 C51.5694976,17.4363708 51.5485646,17.6158083 51.5485646,17.8006833 C51.5485646,19.2035583 52.6633971,20.3381833 54.0366029,20.3381833 C54.3661483,20.3381833 54.6801435,20.2711208 54.967823,20.1545167 C54.7238038,21.2921625 53.7297847,22.1482667 52.5336124,22.1482667 M54.3033493,18.6126833 C53.7578947,18.6126833 53.3165072,18.1649958 53.3165072,17.6079542 C53.3165072,17.0551417 53.7578947,16.6038292 54.3033493,16.6038292 C54.8494019,16.6038292 55.2925837,17.0551417 55.2925837,17.6079542 C55.2925837,18.1649958 54.8494019,18.6126833 54.3033493,18.6126833" id="Fill-26" fill="#004638"></path>
                <polygon id="Fill-28" fill="#004438" points="96.4812799 29.7577458 95.6152512 29.7577458 95.6152512 31.944225 95.2749402 31.944225 95.2749402 29.7577458 94.4089115 29.7577458 94.4089115 29.4453917 96.4812799 29.4453917"></polygon>
                <polygon id="Fill-30" fill="#004438" points="99.6013158 31.9442854 99.2705742 31.9442854 99.2705742 29.8683687 98.3405502 31.8923271 98.1049043 31.8923271 97.1844498 29.9040146 97.1844498 31.9442854 96.8543062 31.9442854 96.8543062 29.4454521 97.3142344 29.4454521 98.227512 31.4337646 99.1407895 29.4454521 99.6013158 29.4454521"></polygon>
                <g id="Group-34" transform="translate(73.564593, 8.402327)">
                    <mask id="mask-4" fill="white">
                        <use xlink:href="#path-3"></use>
                    </mask>
                    <g id="Clip-33"></g>
                    <path d="M51.0383971,9.0538 L50.1125598,5.44027917 L43.7901914,8.66109167 C42.7967703,6.577925 40.704067,5.14605 38.2782297,5.14605 C34.8954545,5.14605 32.155622,7.9373 32.155622,11.3792375 C32.155622,11.5943208 32.1675837,11.8063833 32.1891148,12.0142167 C30.704067,13.5409458 28.1574163,14.5293625 25.8177033,13.2853833 L25.8177033,13.2829667 C25.0013158,12.8666958 24.4427033,12.0105917 24.4427033,11.0167375 C24.4427033,10.11955 24.9032297,9.3293 25.592823,8.87919583 C25.9163876,8.66955 26.2913876,8.5336125 26.6915072,8.49313333 L26.7184211,8.49132083 C26.7471292,8.48769583 26.7776316,8.48769583 26.8045455,8.4864875 L26.8440191,8.484675 L26.8948565,8.4864875 L26.9462919,8.484675 C27.9104067,8.484675 28.6921053,9.282175 28.6921053,10.2603208 C28.6921053,10.630675 28.5814593,10.97505 28.3924641,11.2578 C28.759689,11.2366542 29.1089713,11.1430083 29.4241627,10.9883417 C30.3171053,10.5460917 30.9337321,9.61325833 30.9337321,8.53059167 C30.9337321,7.87084167 30.495933,6.81355 29.4367225,6.055925 C28.6980861,5.52788333 27.6562201,5.14605 26.2495215,5.14605 C23.2794258,5.14605 20.7979665,7.30171667 20.2441388,10.1588208 C20.2172249,10.2989875 20.1944976,10.4397583 20.176555,10.5847583 C20.1442584,10.8451542 20.127512,11.1103833 20.127512,11.3792375 C20.127512,11.4287792 20.127512,11.4765083 20.12811,11.5284667 L20.1305024,11.5725708 C20.1316986,11.6070083 20.1316986,11.6390292 20.1316986,11.6740708 L20.1358852,11.7266333 C20.1382775,11.7598625 20.1388756,11.7912792 20.1430622,11.8226958 L20.1466507,11.8758625 C20.1496411,11.9096958 20.1526316,11.9441333 20.1544258,11.9767583 C20.1580144,12.0105917 20.1610048,12.0450292 20.1657895,12.080675 C20.1675837,12.1048417 20.169378,12.1247792 20.1741627,12.1477375 C20.176555,12.1791542 20.1825359,12.2123833 20.1879187,12.2438 L20.1891148,12.2782375 C20.1998804,12.3495292 20.2118421,12.4196125 20.2261962,12.4903 L20.2261962,12.5017792 C20.2584928,12.6945083 20.3027512,12.8848208 20.3601675,13.0709042 C20.1610048,13.4007792 19.8099282,13.6213 19.4026316,13.6213 C18.7848086,13.6213 18.2836124,13.1095708 18.2836124,12.4800292 L18.2836124,5.7169875 L13.9714115,5.7169875 L13.9714115,12.3459042 L13.9648325,12.3301958 C13.9702153,12.3785292 13.9714115,12.4274667 13.9714115,12.4800292 C13.9714115,13.1095708 13.4708134,13.6213 12.8505981,13.6213 C12.2333732,13.6213 11.7315789,13.1095708 11.7315789,12.4800292 L11.7315789,10.1721125 C11.7315789,9.68877917 11.6927033,9.25800833 11.6233254,8.86409167 C10.6687799,3.7323 6.12093301,5.243925 4.84880383,5.7768 L4.84880383,1.39840417 L0.538397129,0.518133333 L0.538397129,17.046925 L4.84880383,17.046925 L4.84880383,10.0790708 C4.84880383,9.35709167 5.42356459,8.76682083 6.13648325,8.76682083 C6.84521531,8.76682083 7.42236842,9.35709167 7.42236842,10.0790708 L7.42236842,14.183175 L7.42236842,14.1874042 C7.42236842,16.0838833 9.01507177,17.6190708 10.9773923,17.6190708 C12.2381579,17.6190708 13.3416268,16.9853 13.9714115,16.031925 C14.0814593,15.8681958 14.1735646,15.6972167 14.2519139,15.5153625 C14.5240431,16.1449042 14.9833732,16.6765708 15.5635167,17.046925 C16.1293062,17.4070083 16.8033493,17.6190708 17.5258373,17.6190708 C19.3458134,17.6190708 20.8422249,16.2995708 21.0557416,14.5994458 C22.2094498,16.4101333 24.329067,17.6239042 26.648445,17.6239042 C26.7471292,17.6239042 26.7644737,17.6208833 26.8326555,17.6239042 C28.3188995,17.6239042 31.0019139,17.34055 33.329067,15.045925 C34.4391148,16.6022583 36.2429426,17.6142375 38.2782297,17.6142375 C41.6610048,17.6142375 44.3996411,14.821175 44.3996411,11.3792375 C44.3996411,11.1810708 44.3906699,10.9883417 44.3769139,10.7956125 L51.0383971,9.0538 Z M38.6962919,13.7463625 C37.3206938,13.7463625 36.2046651,12.6105292 36.2046651,11.2112792 C36.2046651,10.1467375 36.8529904,9.23444583 37.7656699,8.85865417 C37.7291866,9.03507083 37.7088517,9.21450833 37.7088517,9.398175 C37.7088517,10.8022583 38.8230861,11.935675 40.1992823,11.935675 C40.5264354,11.935675 40.8434211,11.8686125 41.1316986,11.7526125 C40.8882775,12.8908625 39.8906699,13.7463625 38.6962919,13.7463625 L38.6962919,13.7463625 Z M40.4636364,10.210175 C39.9187799,10.210175 39.4791866,9.76309167 39.4791866,9.20605 C39.4791866,8.65263333 39.9187799,8.20132083 40.4636364,8.20132083 C41.0108852,8.20132083 41.4534689,8.65263333 41.4534689,9.20605 C41.4534689,9.76309167 41.0108852,10.210175 40.4636364,10.210175 L40.4636364,10.210175 Z" id="Fill-32" fill="#004638" mask="url(#mask-4)"></path>
                </g>
                <path d="M16.2001794,27.6667854 L16.2001794,10.7325979 L11.4585526,9.81124375 L11.4585526,24.2943271 L11.4585526,29.6357646 C11.4585526,31.6506604 13.1481459,33.2885562 15.2264952,33.2885562 C16.5171651,33.2885562 17.7067584,32.6584104 18.4041268,31.6047437 C18.6912081,31.1703479 18.8754187,30.6888271 18.9537679,30.1891812 C18.8682416,30.1994521 18.7797249,30.2048896 18.6912081,30.2048896 C17.3138158,30.2048896 16.2001794,29.0678479 16.2001794,27.6667854" id="Fill-35" fill="#004638"></path>
                <path d="M29.1913278,46.4796896 C29.1913278,46.5799812 29.1494617,46.6367729 29.0788876,46.6802729 L28.5166866,47.0089396 L28.5166866,50.7022104 C28.5166866,51.4604396 28.4742225,51.4894396 27.7152512,51.4894396 C27.4760167,51.4894396 27.2936005,51.4894396 27.1668062,51.4749396 C26.8157297,51.4465437 26.8575957,51.1317729 26.8575957,50.7451062 L26.8438397,48.2541271 C26.8438397,48.0112521 26.8294856,47.8106687 26.7876196,47.6674812 C26.6751794,47.2669187 26.0705144,47.3237104 25.6626196,47.3527104 C25.255323,47.3811063 25.297189,47.7526687 25.297189,48.1538354 L25.297189,50.7596062 C25.297189,51.4320437 25.2409689,51.4894396 24.5519737,51.4894396 C24.0741029,51.4894396 23.8348684,51.5039396 23.7230263,51.3891479 C23.6243421,51.2743562 23.6243421,51.0882729 23.6243421,50.5729187 L23.6243421,47.0089396 L23.0621411,46.6802729 C22.991567,46.6367729 22.949701,46.5799812 22.949701,46.4796896 C22.949701,46.3932937 22.991567,46.3220021 23.0621411,46.2791062 L23.6243421,45.9498354 L23.6243421,42.1423771 C23.6243421,41.7847104 23.6524522,41.5841271 23.7230263,41.5128354 C23.8629785,41.3841479 24.706878,41.3980437 24.9742225,41.4270437 C25.3534091,41.4560437 25.297189,41.7847104 25.297189,42.2136687 L25.297189,44.5904604 C25.297189,45.0484187 25.2690789,45.3341896 25.4239833,45.4918771 C25.5926435,45.6495646 26.0842703,45.6495646 26.450299,45.5921687 C26.8719498,45.5492729 26.8438397,45.1058146 26.8438397,44.6901479 L26.8438397,43.4165646 C26.8438397,42.8583146 26.8438397,42.4287521 26.8575957,42.1423771 C26.8575957,41.7847104 26.8857057,41.5841271 26.9562799,41.5128354 C27.0824761,41.3841479 27.9263756,41.3980437 28.193122,41.4270437 C28.5729067,41.4560437 28.5166866,41.7847104 28.5166866,42.1568771 L28.5166866,45.9498354 L29.0788876,46.2791062 C29.1494617,46.3220021 29.1913278,46.3932937 29.1913278,46.4796896" id="Fill-37" fill="#004438"></path>
                <path d="M35.5938397,51.4033458 C35.4676435,51.5320333 34.4694378,51.4897417 34.3563995,51.4897417 C34.2164474,51.4746375 34.1315191,51.4462417 34.075299,51.38945 C33.9491029,51.2740542 33.9347488,51.0601792 33.8785287,50.6016167 C33.8504187,50.3871375 33.8366627,50.2155542 33.8085526,50.1007625 C33.7941986,49.957575 33.7660885,49.2706375 33.2744617,49.2561375 C33.2038876,49.2416375 33.1620215,49.2416375 33.1620215,49.2416375 C32.4305622,49.2416375 32.318122,49.2706375 32.2337919,50.0004708 C32.2200359,50.1146583 32.1494617,50.501325 32.0370215,51.1604708 C31.9951555,51.3743458 31.8827153,51.4746375 31.685945,51.4746375 C31.2499402,51.4897417 30.8845096,51.4897417 30.589055,51.4746375 C30.1955144,51.4607417 30.2936005,51.1604708 30.3504187,50.7448042 C30.6877392,48.7981792 30.8845096,47.5813875 30.9688397,47.0805333 C30.9688397,47.0376375 30.9825957,46.9947417 30.9825957,46.9802417 L30.4903708,46.680575 C30.4060407,46.637075 30.3641746,46.5802833 30.3641746,46.4799917 C30.3641746,46.3935958 30.4060407,46.3217 30.4903708,46.2800125 L31.16561,45.8782417 C31.4748206,44.1038042 31.685945,42.8151167 31.8121411,42.0278875 C31.8964713,41.5560333 32.0089115,41.4702417 32.4586722,41.4702417 L33.7379785,41.4702417 C33.8785287,41.4841375 33.9909689,41.5125333 34.047189,41.5560333 C34.1458732,41.6557208 34.2020933,41.9137 34.2439593,42.1426792 C34.6380981,44.5182625 34.8486244,45.77795 34.8629785,45.8927417 L35.5232656,46.2800125 C35.5938397,46.3217 35.6357057,46.3935958 35.6357057,46.4799917 C35.6357057,46.5802833 35.5938397,46.637075 35.5232656,46.680575 L35.0453947,46.9663458 C35.4251794,49.2996375 35.6357057,50.515825 35.6500598,50.6300125 C35.7200359,51.0456792 35.7062799,51.3030542 35.5938397,51.4033458 M33.4287679,47.2382208 C33.4006579,46.9802417 33.2463517,46.2220125 33.2463517,46.1797208 C33.2319976,46.1217208 33.2038876,46.0504292 33.1620215,45.9640333 C33.0776914,45.80695 32.9227871,45.8643458 32.866567,45.9640333 C32.7684809,46.2365125 32.6835526,46.680575 32.6416866,47.2811167 C32.6273325,47.3524083 32.6273325,47.4243042 32.6273325,47.4672 C32.6273325,47.6816792 33.415012,47.6677833 33.443122,47.4810958 C33.443122,47.4527 33.443122,47.3669083 33.4287679,47.2382208" id="Fill-39" fill="#004438"></path>
                <path d="M42.2341507,51.1885646 C42.2622608,51.3317521 42.1779306,51.4604396 42.0236244,51.4755438 C41.6438397,51.5178354 41.222189,51.5178354 40.7580742,51.4888354 C40.4488636,51.4459396 40.4063995,51.1166688 40.3220694,50.7161063 C40.2802033,50.5016271 40.1815191,50.1155646 40.0409689,49.5567104 L39.7742225,48.3973146 C39.7180024,48.1254396 39.6474282,47.7532729 39.2395335,47.8106688 C38.8322368,47.8680646 38.8603469,48.2547313 38.8459928,48.6981896 L38.8459928,50.7161063 C38.8459928,51.1456688 38.9022129,51.4755438 38.5086722,51.4888354 C38.1851077,51.5033354 37.8477871,51.5033354 37.5104665,51.4888354 C37.1306818,51.4755438 37.1875,51.1311688 37.1875,50.6587104 L37.1875,47.0234396 L36.624701,46.7086688 C36.5547249,46.6512729 36.5122608,46.5944813 36.5122608,46.4935854 C36.5122608,46.4077938 36.5547249,46.3365021 36.624701,46.2936063 L37.1875,45.9649396 L37.1875,42.1997729 C37.1875,41.8421063 37.21561,41.6276271 37.2855861,41.5557313 C37.4123804,41.4270438 37.819677,41.4560438 38.6354665,41.4560438 L39.3800837,41.4560438 C39.7317584,41.4409396 40.1396531,41.4983354 40.5894139,41.6276271 C41.3483852,41.8131063 41.9105861,42.4861479 41.9386962,43.2878771 C41.9530502,43.6739396 41.9530502,44.5185646 41.9386962,45.8362521 C41.9386962,46.1649188 41.7981459,46.5080854 41.5313995,46.8518563 C41.3346292,47.0959396 41.2921651,47.3956063 41.3764952,47.7532729 C41.5032895,48.2112313 41.7562799,49.1851479 42.1354665,50.7016063 C42.1916866,50.8882938 42.2203947,51.0598771 42.2341507,51.1885646 M39.7036483,43.2159813 C39.6055622,43.2014813 39.548744,43.1875854 39.4925239,43.1730854 C38.7054426,43.0727938 38.8603469,43.4594604 38.8603469,44.6472521 C38.8603469,45.2773979 38.8741029,45.6779604 38.8741029,45.7063563 C38.8741029,45.9498354 38.9865431,46.0930229 39.2257775,46.1649188 C39.7455144,46.2936063 40.2377392,45.9782313 40.3501794,45.4489813 C40.3645335,45.3631896 40.3782895,45.3057938 40.3782895,45.2773979 L40.3782895,43.9887104 C40.3501794,43.5313563 40.1677632,43.3301688 39.7036483,43.2159813" id="Fill-41" fill="#004438"></path>
                <path d="M49.3665072,46.4655521 C49.3665072,46.5658437 49.3246411,46.6226354 49.254067,46.6661354 L48.691866,46.9948021 L48.691866,49.0417188 C48.691866,49.5564688 48.5650718,50.0011354 48.3264354,50.3865938 C47.4406699,51.7326771 46.9065789,51.4885937 44.3617225,51.4885937 L44.3055024,51.4885937 C44.1649522,51.4885937 44.0662679,51.4456979 44.0244019,51.4040104 C43.9119617,51.2886146 43.9119617,51.1170312 43.9119617,50.6022813 L43.9119617,46.9948021 L43.3497608,46.6661354 C43.2791866,46.6226354 43.2373206,46.5658437 43.2373206,46.4655521 C43.2373206,46.3791562 43.2791866,46.3078646 43.3497608,46.2649687 L43.9119617,45.9363021 L43.9119617,42.2430312 C43.9119617,42.0279479 43.9263158,41.8563646 43.9263158,41.7421771 C43.9681818,41.3978021 44.2773923,41.4268021 44.5447368,41.4268021 C45.8521531,41.4129062 46.5124402,41.4129062 46.5411483,41.4129062 C47.0471292,41.4129062 47.4825359,41.5844896 47.8342105,41.9560521 C48.5232057,42.6725937 48.691866,43.1450521 48.691866,43.7884896 L48.691866,45.9363021 L49.254067,46.2649687 C49.3246411,46.3078646 49.3665072,46.3791562 49.3665072,46.4655521 M47.0190191,43.8748854 C46.976555,43.4024271 46.7235646,43.1589479 46.2738038,43.1299479 C45.7397129,43.0870521 45.5710526,43.2157396 45.5848086,43.7461979 L45.5848086,48.9982187 C45.5848086,49.3425937 45.5710526,49.6283646 45.837799,49.7431562 C46.37189,49.9437396 47.0327751,49.5715729 47.0327751,49.0133229 L47.0327751,44.2615521 C47.0327751,44.0754687 47.0327751,43.9455729 47.0190191,43.8748854" id="Fill-43" fill="#004438"></path>
                <path d="M59.4752392,49.5282542 C59.4190191,49.9862125 59.2222488,50.401275 58.9130383,50.7740458 C58.2802632,51.532275 58.0129187,51.4319833 57.057177,51.4893792 C56.5230861,51.517775 56.0589713,51.4035875 55.6654306,51.1601083 C55.4261962,51.0024208 55.2437799,50.8447333 55.1313397,50.6737542 C54.7940191,50.1445042 54.5972488,49.6424417 54.5266746,49.1705875 C54.4985646,48.9555042 54.4566986,48.5978375 54.751555,48.5549417 C55.2156699,48.48365 55.5386364,48.44015 55.6935407,48.44015 C55.9746411,48.4262542 56.0733254,48.5120458 56.1576555,48.8123167 C56.1576555,48.8413167 56.1857656,48.8981083 56.1995215,48.9984 C56.2419856,49.1705875 56.2700957,49.2563792 56.3400718,49.3995667 C56.5649522,49.8001292 56.8460526,49.9578167 57.1977273,49.872025 C57.5350478,49.7856292 57.8161483,49.4140667 57.8161483,49.0274 C57.8305024,48.182775 57.5350478,48.0546917 56.8041866,47.2952542 L56.6773923,47.1665667 L55.9184211,47.1665667 C55.7360048,47.1810667 55.6229665,46.9804833 55.7072967,46.8234 L55.9327751,46.4222333 L55.5386364,46.0216708 C54.8639952,45.2773375 54.5547847,44.4049208 54.6247608,43.4449 C54.709689,42.3284 55.3980861,41.527275 56.2982057,41.2982958 C58.3645933,40.7684417 59.2922249,42.1713167 59.4327751,43.3736083 C59.4608852,43.5451917 59.3909091,43.6309833 59.2503589,43.6883792 C58.8705742,43.8170667 58.5051435,43.8889625 58.167823,43.8889625 C57.9991627,43.8889625 57.8867225,43.8170667 57.8305024,43.6599833 L57.6899522,43.2878167 C57.3526316,42.5289833 56.4949761,42.6866708 56.3962919,43.4877958 C56.3263158,44.03215 56.4949761,44.5475042 56.9166268,45.0344625 C56.9584928,45.0912542 57.1558612,45.2918375 57.2539474,45.406025 L57.9285885,45.406025 C58.1116029,45.406025 58.2240431,45.5921083 58.1253589,45.7491917 L57.9710526,46.0355667 C58.2240431,46.2645458 58.3783493,46.4077333 58.6319378,46.7086083 C59.3490431,47.5387333 59.6157895,48.48365 59.4752392,49.5282542" id="Fill-45" fill="#004438"></path>
                <path d="M65.5460526,51.1744271 C65.5179426,51.5175937 65.180622,51.4891979 64.8851675,51.4891979 L61.8343301,51.4891979 C61.6375598,51.4891979 61.3989234,51.4891979 61.2721292,51.3750104 C61.145933,51.2602187 61.159689,51.0741354 61.159689,50.5448854 L61.159689,47.0086979 L60.597488,46.6800312 C60.5269139,46.6371354 60.4850478,46.5797396 60.4850478,46.4794479 C60.4850478,46.3936562 60.5269139,46.3223646 60.597488,46.2788646 L61.159689,45.9501979 L61.159689,42.2140312 C61.159689,41.4980937 61.1740431,41.4703021 61.8624402,41.4703021 L64.8995215,41.4703021 C65.222488,41.4703021 65.4055024,41.5131979 65.4754785,41.5699896 C65.6022727,41.6986771 65.5879187,42.4146146 65.5592105,42.7438854 C65.5316986,43.0876562 65.236244,43.0580521 64.8289474,43.0580521 L63.437201,43.0580521 C62.9730861,43.0731562 62.84689,43.2163438 62.8181818,43.6598021 C62.8044258,44.1467604 62.8044258,44.6186146 62.8325359,45.0771771 C62.8325359,45.2632604 62.888756,45.4064479 62.9593301,45.4922396 C63.1279904,45.6487188 63.437201,45.6354271 63.8732057,45.6354271 C64.0980861,45.6354271 64.2667464,45.6354271 64.3642344,45.6487188 C64.7027512,45.6487188 64.7858852,45.7496146 64.8008373,46.0933854 C64.8151914,46.3936562 64.8151914,46.6945312 64.7858852,46.9948021 C64.7858852,47.1953854 64.6746411,47.2956771 64.4778708,47.3101771 C64.2667464,47.3240729 63.9431818,47.3240729 63.5358852,47.3240729 C63.0011962,47.3240729 62.8606459,47.3959687 62.8325359,48.0116146 C62.8044258,48.3547812 62.8044258,48.7414479 62.8181818,49.1849062 C62.84689,49.6428646 62.9730861,49.7860521 63.437201,49.8005521 L64.8151914,49.8005521 C65.236244,49.8144479 65.5179426,49.7721562 65.5592105,50.1008229 C65.5879187,50.4729896 65.5879187,50.8306562 65.5460526,51.1744271" id="Fill-47" fill="#004438"></path>
                <path d="M71.354067,51.1602292 C71.3397129,51.5462917 71.0167464,51.4895 70.7075359,51.4895 L67.8253589,51.4895 C67.1925837,51.4895 67.1638756,51.4605 67.1638756,50.8164583 L67.1638756,46.9945 L66.6022727,46.6658333 C66.5173445,46.6084375 66.4892344,46.5516458 66.4892344,46.46525 C66.4892344,46.3649583 66.5173445,46.3081667 66.6022727,46.2507708 L67.1638756,45.9215 L67.1638756,42.1569375 C67.1638756,41.4561042 67.1788278,41.4271042 67.867823,41.4271042 C68.1489234,41.4271042 68.3456938,41.4271042 68.4856459,41.4416042 C68.8791866,41.47 68.8235646,41.7841667 68.8235646,42.329125 L68.8235646,45.9215 L69.3857656,46.2507708 C69.4557416,46.3081667 69.4976077,46.3649583 69.4976077,46.46525 C69.4976077,46.5516458 69.4557416,46.6084375 69.3857656,46.6658333 L68.8235646,46.9945 L68.8235646,48.7121458 C68.8235646,48.9985208 68.8379187,49.1846042 68.8379187,49.2848958 C68.8941388,49.9005417 69.062799,49.7718542 70.270933,49.80025 C71.1854067,49.80025 71.3397129,49.7289583 71.354067,50.1434167 C71.367823,50.4877917 71.367823,50.8164583 71.354067,51.1602292" id="Fill-49" fill="#004438"></path>
                <path d="M76.3379187,42.1425583 C76.3379187,42.4289333 76.3379187,42.6434125 76.3241627,42.7582042 C76.3241627,42.8868917 76.2954545,42.9726833 76.2529904,43.0300792 C76.1411483,43.1303708 75.944378,43.1303708 75.6913876,43.1303708 C75.4102871,43.1303708 75.1148325,43.1158708 74.9461722,43.2880583 C74.777512,43.4451417 74.791866,43.6886208 74.791866,44.2468708 L74.791866,45.9355167 L75.4102871,46.2931833 C75.4796651,46.3505792 75.5227273,46.407975 75.5227273,46.4937667 C75.5227273,46.5940583 75.4796651,46.66535 75.4102871,46.70885 L74.791866,47.0665167 L74.791866,50.6159958 C74.791866,51.13135 74.833134,51.4606208 74.4964115,51.4890167 C74.1309809,51.5035167 73.7793062,51.5035167 73.4419856,51.4890167 C73.076555,51.4745167 73.1327751,51.13135 73.1327751,50.7017875 L73.1327751,47.0810167 L72.486244,46.70885 C72.4150718,46.66535 72.3875598,46.5940583 72.3875598,46.4937667 C72.3875598,46.407975 72.4150718,46.3505792 72.486244,46.2931833 L73.1327751,45.9216208 L73.1327751,44.1036833 C73.1327751,43.616725 73.1327751,43.4312458 73.0059809,43.2880583 C72.8648325,43.1303708 72.5843301,43.1303708 72.3032297,43.1303708 C72.1483254,43.1303708 72.0358852,43.1303708 71.9796651,43.1158708 C71.6985646,43.1013708 71.6004785,43.0300792 71.5861244,42.7437042 C71.5717703,42.4434333 71.5717703,42.1141625 71.5861244,41.7848917 C71.5861244,41.6701 71.6285885,41.5843083 71.6698565,41.5414125 C71.7828947,41.4411208 71.951555,41.4701208 72.2751196,41.4701208 L75.6489234,41.4701208 C76.3098086,41.4701208 76.3379187,41.4701208 76.3379187,42.1425583" id="Fill-51" fill="#004438"></path>
                <path d="M81.8305024,50.3011646 C81.8448565,50.5730396 81.8448565,50.8594146 81.8305024,51.1457896 C81.8173445,51.2599771 81.7886364,51.3457687 81.7324163,51.3892687 C81.6337321,51.4889563 81.4794258,51.4889563 81.029067,51.4889563 L77.9794258,51.4889563 C77.6833732,51.4889563 77.3460526,51.5179562 77.3322967,51.2315812 C77.2898325,50.4443521 77.3179426,49.9006021 77.4309809,49.6142271 L78.5272727,46.8084771 L78.3299043,46.6942896 C78.2599282,46.6368937 78.2174641,46.5801021 78.2174641,46.4798104 C78.2174641,46.3934146 78.2599282,46.3366229 78.3299043,46.2792271 L78.8508373,45.9783521 L79.6797847,43.8456438 L79.7641148,43.6456646 C79.9327751,43.1013104 79.4124402,43.1303104 79.0188995,43.1303104 L77.9644737,43.1303104 C77.6690191,43.1303104 77.3322967,43.1732062 77.3179426,42.8010396 C77.3041866,42.4572687 77.3041866,42.1141021 77.3179426,41.7848313 C77.3460526,41.3981646 77.6971292,41.4410604 78.0206938,41.4410604 L81.1277512,41.4410604 C81.7599282,41.4410604 81.8173445,41.4984563 81.8448565,42.1424979 C81.8729665,42.7007479 81.7742823,43.2306021 81.5631579,43.7459562 C81.2964115,44.4328938 81.015311,45.1053312 80.6074163,46.1644354 L80.8041866,46.2792271 C80.8747608,46.3366229 80.9172249,46.3934146 80.9172249,46.4798104 C80.9172249,46.5801021 80.8747608,46.6368937 80.8041866,46.6942896 L80.2844498,46.9945604 C79.9471292,47.8681854 79.6241627,48.6983104 79.4830144,49.0843729 C79.3705742,49.3707479 79.1175837,49.7858104 79.6797847,49.8716021 C79.876555,49.9144979 80.1720096,49.9144979 80.8466507,49.9144979 L81.4513158,49.9144979 C81.7186603,49.9289979 81.8173445,50.0147896 81.8305024,50.3011646" id="Fill-53" fill="#004438"></path>
                <path d="M87.8230263,51.1744271 C87.7949163,51.5175937 87.4575957,51.4891979 87.1621411,51.4891979 L84.1113038,51.4891979 C83.9145335,51.4891979 83.675299,51.4891979 83.5491029,51.3750104 C83.4229067,51.2602187 83.4366627,51.0741354 83.4366627,50.5448854 L83.4366627,47.0086979 L82.8744617,46.6800312 C82.8032895,46.6371354 82.7620215,46.5797396 82.7620215,46.4794479 C82.7620215,46.3936562 82.8032895,46.3223646 82.8744617,46.2788646 L83.4366627,45.9501979 L83.4366627,42.2140312 C83.4366627,41.4980937 83.4504187,41.4703021 84.1394139,41.4703021 L87.1764952,41.4703021 C87.4994617,41.4703021 87.6824761,41.5131979 87.7524522,41.5699896 C87.8792464,41.6986771 87.8642943,42.4146146 87.8361842,42.7438854 C87.8086722,43.0876562 87.5132177,43.0580521 87.1059211,43.0580521 L85.7141746,43.0580521 C85.2494617,43.0731562 85.1232656,43.2163438 85.0951555,43.6598021 C85.0813995,44.1467604 85.0813995,44.6186146 85.1095096,45.0771771 C85.1095096,45.2632604 85.1657297,45.4064479 85.2363038,45.4922396 C85.4049641,45.6487188 85.7141746,45.6354271 86.1501794,45.6354271 C86.3750598,45.6354271 86.543122,45.6354271 86.6412081,45.6487188 C86.9797249,45.6487188 87.0628589,45.7496146 87.077811,46.0933854 C87.091567,46.3936562 87.091567,46.6945312 87.0628589,46.9948021 C87.0628589,47.1953854 86.9516148,47.2956771 86.7548445,47.3101771 C86.543122,47.3240729 86.2195574,47.3240729 85.8128589,47.3240729 C85.2781699,47.3240729 85.1376196,47.3959687 85.1095096,48.0116146 C85.0813995,48.3547812 85.0813995,48.7414479 85.0951555,49.1849062 C85.1232656,49.6428646 85.2494617,49.7860521 85.7141746,49.8005521 L87.091567,49.8005521 C87.5132177,49.8144479 87.7949163,49.7721562 87.8361842,50.1008229 C87.8642943,50.4729896 87.8642943,50.8306562 87.8230263,51.1744271" id="Fill-55" fill="#004438"></path>
                <path d="M94.5024522,51.1885646 C94.5305622,51.3317521 94.4462321,51.4604396 94.2913278,51.4755438 C93.9121411,51.5178354 93.4904904,51.5178354 93.0263756,51.4888354 C92.7171651,51.4459396 92.6741029,51.1166688 92.5903708,50.7161063 C92.5479067,50.5016271 92.4498206,50.1155646 92.3092703,49.5567104 L92.0425239,48.3973146 C91.9863038,48.1254396 91.9157297,47.7532729 91.5078349,47.8106688 C91.1005383,47.8680646 91.1280502,48.2547313 91.1142943,48.6981896 L91.1142943,50.7161063 C91.1142943,51.1456688 91.1705144,51.4755438 90.7769737,51.4888354 C90.4534091,51.5033354 90.1160885,51.5033354 89.7787679,51.4888354 C89.3995813,51.4755438 89.4558014,51.1311688 89.4558014,50.6587104 L89.4558014,47.0234396 L88.8936005,46.7086688 C88.8230263,46.6512729 88.7805622,46.5944813 88.7805622,46.4935854 C88.7805622,46.4077938 88.8230263,46.3365021 88.8936005,46.2936063 L89.4558014,45.9649396 L89.4558014,42.1997729 C89.4558014,41.8421063 89.4833134,41.6276271 89.5538876,41.5557313 C89.6800837,41.4270438 90.0879785,41.4560438 90.9031699,41.4560438 L91.6483852,41.4560438 C91.9994617,41.4409396 92.4079545,41.4983354 92.8577153,41.6276271 C93.6166866,41.8131063 94.1788876,42.4861479 94.2069976,43.2878771 C94.2213517,43.6739396 94.2213517,44.5185646 94.2069976,45.8362521 C94.2069976,46.1649188 94.0664474,46.5080854 93.799701,46.8518563 C93.6029306,47.0959396 93.5604665,47.3956063 93.6441986,47.7532729 C93.7709928,48.2112313 94.0245813,49.1851479 94.4037679,50.7016063 C94.4605861,50.8882938 94.4886962,51.0598771 94.5024522,51.1885646 M91.9719498,43.2159813 C91.8732656,43.2014813 91.8176435,43.1875854 91.7614234,43.1730854 C90.973744,43.0727938 91.1280502,43.4594604 91.1280502,44.6472521 C91.1280502,45.2773979 91.1424043,45.6779604 91.1424043,45.7063563 C91.1424043,45.9498354 91.2548445,46.0930229 91.4940789,46.1649188 C92.0144139,46.2936063 92.5060407,45.9782313 92.6184809,45.4489813 C92.6328349,45.3631896 92.6459928,45.3057938 92.6459928,45.2773979 L92.6459928,43.9887104 C92.6184809,43.5313563 92.4360646,43.3301688 91.9719498,43.2159813" id="Fill-57" fill="#004438"></path>
                <path d="M25.7599282,55.7180625 C26.0595694,56.09325 26.1714115,56.5203958 26.1133971,56.99225 C26.0894737,57.1994792 26.0075359,57.387375 25.8777512,57.5553333 C25.612201,57.8978958 25.5003589,57.8525833 25.1002392,57.8785625 C24.8759569,57.8918542 24.682177,57.8405 24.5165072,57.7305417 C24.4172249,57.65925 24.3400718,57.5879583 24.292823,57.5100208 C24.1522727,57.2701667 24.0691388,57.0442083 24.0404306,56.8309375 C24.0278708,56.7342708 24.0105263,56.57175 24.1337321,56.5530208 C24.32811,56.5203958 24.4638756,56.5010625 24.529067,56.5010625 C24.64689,56.4944167 24.6875598,56.5336875 24.723445,56.6690208 C24.723445,56.6823125 24.7348086,56.7082917 24.7407895,56.753 C24.7587321,56.8309375 24.7700957,56.8696042 24.8,56.9348542 C24.8938995,57.1155 25.0117225,57.1867917 25.1588517,57.1475208 C25.3005981,57.1088542 25.4184211,56.9408958 25.4184211,56.7656875 C25.4238038,56.3844583 25.3005981,56.3264583 24.9937799,55.9832917 L24.9411483,55.9252917 L24.6229665,55.9252917 C24.5464115,55.9319375 24.4991627,55.8407083 24.5350478,55.7700208 L24.6283493,55.5887708 L24.4638756,55.4075208 C24.1809809,55.0716042 24.0517943,54.6764792 24.0811005,54.2432917 C24.1163876,53.7388125 24.4046651,53.3763125 24.7820574,53.2723958 C25.6480861,53.03375 26.036244,53.6669167 26.0954545,54.2112708 C26.1074163,54.2886042 26.07811,54.3272708 26.0188995,54.35325 C25.8598086,54.41125 25.7066986,54.443875 25.5649522,54.443875 C25.4949761,54.443875 25.4477273,54.41125 25.4238038,54.3399583 L25.3651914,54.172 C25.2240431,53.8294375 24.8645933,53.900125 24.8233254,54.262625 C24.7940191,54.5085208 24.8645933,54.741125 25.0410287,54.9610417 C25.0589713,54.9870208 25.1415072,55.0770417 25.182177,55.129 L25.4656699,55.129 C25.5416268,55.129 25.5888756,55.2135833 25.5476077,55.2842708 L25.4830144,55.4141667 C25.5888756,55.5180833 25.6534689,55.582125 25.7599282,55.7180625 L25.7599282,55.7180625 Z M28.7748804,54.2886042 C28.7802632,54.3079375 28.7802632,54.4698542 28.7802632,54.77375 L28.7802632,55.2069375 C28.7629187,55.640125 28.515311,56.002625 28.1444976,56.1578958 C28.0858852,56.183875 28.0027512,56.1971667 27.89689,56.2032083 C27.7617225,56.2032083 27.6732057,56.20925 27.6438995,56.2165 C27.4435407,56.2424792 27.473445,56.39775 27.473445,56.6049792 L27.473445,57.6199792 C27.473445,57.7365833 27.4549043,57.8145208 27.4315789,57.8405 C27.3789474,57.8978958 27.0900718,57.8918542 26.9076555,57.8785625 C26.7665072,57.8664792 26.7778708,57.7232917 26.7778708,57.568625 L26.7778708,53.660875 C26.7778708,53.3436875 26.7838517,53.3376458 27.0787081,53.3376458 L27.4196172,53.3376458 L27.7557416,53.3376458 C28.1092105,53.3376458 28.7156699,53.5056042 28.7748804,54.2886042 L28.7748804,54.2886042 Z M27.7204545,54.114 C27.4082536,54.0880208 27.473445,54.2366458 27.473445,54.77375 L27.4794258,54.77375 L27.4794258,55.2842708 C27.4848086,55.3881875 27.5380383,55.4534375 27.6438995,55.4727708 C27.8675837,55.5108333 28.0799043,55.3495208 28.1151914,55.0909375 C28.167823,54.6498958 28.1564593,54.1520625 27.7204545,54.114 L27.7204545,54.114 Z M31.4549043,57.4906875 C31.4842105,57.6779792 31.4794258,57.7951875 31.4315789,57.8405 C31.3783493,57.8978958 30.9602871,57.8785625 30.9130383,57.8785625 C30.8544258,57.8719167 30.8185407,57.8592292 30.7952153,57.8338542 C30.7425837,57.7812917 30.7366029,57.6852292 30.7126794,57.4773958 C30.7013158,57.3807292 30.6953349,57.3033958 30.6833732,57.2514375 C30.6779904,57.1867917 30.6654306,56.87625 30.459689,56.8696042 C30.4303828,56.8635625 30.4124402,56.8635625 30.4124402,56.8635625 C30.1062201,56.8635625 30.0589713,56.87625 30.0236842,57.206125 C30.0183014,57.2580833 29.9883971,57.4326875 29.9411483,57.7305417 C29.9238038,57.8266042 29.876555,57.8719167 29.7946172,57.8719167 C29.6110048,57.8785625 29.4584928,57.8785625 29.334689,57.8719167 C29.1696172,57.8664792 29.2108852,57.7305417 29.2342105,57.5426458 C29.3759569,56.662375 29.7946172,53.9587292 29.8472488,53.602875 C29.8825359,53.3896042 29.9297847,53.3503333 30.1181818,53.3503333 L30.654067,53.3503333 C30.7126794,53.3569792 30.7599282,53.3696667 30.7838517,53.3896042 C30.8245215,53.4343125 30.848445,53.5509167 30.8663876,53.6542292 C31.0308612,54.7284375 31.4495215,57.4393333 31.4549043,57.4906875 L31.4549043,57.4906875 Z M30.5302632,56.0672708 C30.5302632,56.0545833 30.5302632,56.0159167 30.5242823,55.9573125 C30.5129187,55.8407083 30.4483254,55.49875 30.4483254,55.4788125 C30.4417464,55.4534375 30.4303828,55.4208125 30.4124402,55.3815417 C30.3771531,55.3108542 30.3125598,55.3362292 30.2892344,55.3815417 C30.2473684,55.5041875 30.2120813,55.705375 30.1947368,55.97725 C30.188756,56.0092708 30.188756,56.0418958 30.188756,56.060625 C30.188756,56.1578958 30.5188995,56.1518542 30.5302632,56.0672708 L30.5302632,56.0672708 Z M34.1660287,57.5233125 C34.1893541,57.6072917 34.2007177,57.6852292 34.2066986,57.7432292 C34.2186603,57.807875 34.1833732,57.8664792 34.1187799,57.8719167 C33.959689,57.8918542 33.7832536,57.8918542 33.5882775,57.8785625 C33.4590909,57.8592292 33.4411483,57.7106042 33.4058612,57.5293542 C33.3879187,57.4326875 33.3466507,57.2580833 33.2874402,57.0055417 L33.1755981,56.4817292 C33.1522727,56.3590833 33.1229665,56.1905208 32.9519139,56.2165 C32.7814593,56.2424792 32.792823,56.4170833 32.7874402,56.6170625 L32.7874402,57.5293542 C32.7874402,57.7232917 32.8107656,57.8719167 32.6462919,57.8785625 C32.5105263,57.8852083 32.369378,57.8852083 32.2276316,57.8785625 C32.0685407,57.8719167 32.0924641,57.71725 32.0924641,57.5039792 L32.0924641,53.6802083 C32.0924641,53.5182917 32.1038278,53.421625 32.1337321,53.3896042 C32.1863636,53.331 32.3574163,53.3436875 32.6989234,53.3436875 L33.0111244,53.3436875 C33.1582536,53.3376458 33.3293062,53.363625 33.5177033,53.421625 C33.8358852,53.5056042 34.0715311,53.8101042 34.0834928,54.172 C34.0888756,54.3466042 34.0888756,54.7284375 34.0834928,55.3235417 C34.0834928,55.4727708 34.0242823,55.6280417 33.9124402,55.7827083 C33.8299043,55.8926667 33.8119617,56.0286042 33.8472488,56.1905208 C33.9004785,56.39775 34.0069378,56.8375833 34.1660287,57.5233125 L34.1660287,57.5233125 Z M33.4291866,54.4891875 C33.417823,54.2819583 33.3412679,54.1919375 33.14689,54.1399792 C33.1050239,54.1327292 33.0816986,54.1266875 33.0583732,54.1200417 C32.7282297,54.0747292 32.792823,54.2493333 32.792823,54.7864375 C32.792823,55.0716042 32.7994019,55.25225 32.7994019,55.2649375 C32.7994019,55.3755 32.8466507,55.4395417 32.9465311,55.4727708 C33.1642344,55.5301667 33.3705742,55.3881875 33.417823,55.1489375 C33.4232057,55.1102708 33.4291866,55.0842917 33.4291866,55.0716042 L33.4291866,54.4891875 Z M36.2401914,55.7373958 C36.1809809,55.5760833 36.1283493,55.4461875 36.0870813,55.342875 C36.0458134,55.2462083 36.0458134,55.1489375 36.0924641,55.045625 C36.0870813,55.0649583 36.1104067,55.013 36.1696172,54.8903542 C36.4698565,54.23 36.6642344,53.8101042 36.7407895,53.6348958 C36.7700957,53.57025 36.7994019,53.5056042 36.8173445,53.4536458 C36.8352871,53.4083333 36.8113636,53.363625 36.7700957,53.3569792 C36.6050239,53.3376458 36.411244,53.3376458 36.1929426,53.3569792 C36.0870813,53.363625 36.0577751,53.4735833 35.9866029,53.6095208 C35.9572967,53.6741667 35.9160287,53.7774792 35.8448565,53.9194583 C35.786244,54.04875 35.7395933,54.1520625 35.7037081,54.2233542 C35.6630383,54.320625 35.6211722,54.385875 35.591866,54.41125 C35.5446172,54.4499167 35.4746411,54.4305833 35.4626794,54.3725833 C35.4273923,54.2366458 35.4327751,54.1200417 35.4327751,53.9194583 L35.4327751,53.660875 C35.4327751,53.5056042 35.4447368,53.363625 35.3095694,53.3569792 C35.1738038,53.3503333 35.0440191,53.3503333 34.9148325,53.3569792 C34.7730861,53.363625 34.7850478,53.51225 34.7850478,53.7128333 L34.7850478,57.4773958 C34.7850478,57.594 34.7850478,57.6713333 34.7910287,57.7106042 C34.7964115,57.8266042 34.8322967,57.8719167 34.932177,57.8719167 C35.0440191,57.8785625 35.1618421,57.8785625 35.2742823,57.8785625 C35.3861244,57.8664792 35.4214115,57.8266042 35.4327751,57.6973125 L35.4327751,57.264125 C35.438756,56.8309375 35.438756,56.6170625 35.438756,56.6303542 C35.438756,56.51375 35.4626794,56.4297708 35.5093301,56.3645208 C35.5392344,56.3264583 35.6038278,56.3264583 35.6337321,56.3645208 C35.6630383,56.4037917 35.6983254,56.4684375 35.7330144,56.5651042 C35.7569378,56.6243125 35.8400718,56.8569167 35.980622,57.2514375 C36.063756,57.4846458 36.1050239,57.6072917 36.1104067,57.6332708 C36.1696172,57.8145208 36.2814593,57.8918542 36.4405502,57.8785625 L36.6050239,57.8785625 C36.7880383,57.8785625 36.8113636,57.8785625 36.9058612,57.8664792 C36.952512,57.8525833 36.9818182,57.8012292 36.9704545,57.7492708 C36.9584928,57.6912708 36.9405502,57.6332708 36.9172249,57.5746667 C36.6761962,56.9276042 36.4519139,56.3131667 36.2401914,55.7373958 L36.2401914,55.7373958 Z M38.897488,57.1155 C38.3909091,57.1028125 38.3203349,57.1608125 38.2970096,56.8822917 C38.2970096,56.8375833 38.2910287,56.753 38.2910287,56.6243125 L38.2910287,53.7388125 C38.2910287,53.4929167 38.3143541,53.3503333 38.1492823,53.3376458 C38.0906699,53.331 38.008134,53.331 37.8909091,53.331 C37.6014354,53.331 37.5960526,53.3436875 37.5960526,53.660875 L37.5960526,57.5746667 C37.5960526,57.8664792 37.6074163,57.8785625 37.8723684,57.8785625 L39.0799043,57.8785625 C39.2102871,57.8785625 39.3454545,57.9045417 39.3514354,57.7305417 C39.3568182,57.5746667 39.3568182,57.4260417 39.3514354,57.2701667 C39.3454545,57.082875 39.2802632,57.1155 38.897488,57.1155 L38.897488,57.1155 Z M40.5392344,53.3376458 C40.4267943,53.331 40.0739234,53.3177083 40.0147129,53.3829583 C39.9907895,53.4083333 39.9794258,53.5056042 39.9794258,53.660875 L39.9794258,57.5166667 C39.9794258,57.6973125 39.9620813,57.8592292 40.1211722,57.8719167 C40.1797847,57.8785625 40.2623206,57.8785625 40.3741627,57.8785625 C40.6630383,57.8785625 40.6744019,57.8719167 40.6744019,57.5486875 L40.6744019,53.718875 C40.6744019,53.4989583 40.6983254,53.3569792 40.5392344,53.3376458 L40.5392344,53.3376458 Z M43.4710526,53.3436875 C43.3825359,53.331 43.2886364,53.331 43.188756,53.331 C42.8998804,53.331 42.8885167,53.3436875 42.8885167,53.660875 C42.8885167,53.6348958 42.8885167,54.1013125 42.8825359,55.0649583 C42.8825359,55.277625 42.8885167,55.2981667 42.8526316,55.4208125 C42.8412679,55.49875 42.7527512,55.5108333 42.723445,55.4335 C42.7108852,55.4075208 42.6995215,55.3755 42.6875598,55.3362292 C42.6289474,55.103625 42.4106459,54.3079375 42.3167464,53.965375 C42.3047847,53.9067708 42.2814593,53.8221875 42.2521531,53.718875 C42.2162679,53.602875 42.1929426,53.5182917 42.1809809,53.4735833 C42.1576555,53.3829583 42.1044258,53.3376458 42.0338517,53.3376458 L41.4746411,53.3376458 C41.3388756,53.3436875 41.3502392,53.4989583 41.3502392,53.6995417 L41.3502392,57.4846458 C41.3502392,57.6912708 41.3269139,57.8525833 41.5093301,57.8785625 L41.7156699,57.8785625 C42.0452153,57.8785625 42.0511962,57.8785625 42.0511962,57.5293542 L42.0511962,56.125875 C42.0511962,55.9899375 42.0577751,55.8993125 42.0751196,55.8473542 C42.1044258,55.7700208 42.1809809,55.7506875 42.2162679,55.828625 L42.2868421,56.0418958 C42.2754785,56.0092708 42.4226077,56.5010625 42.723445,57.5293542 L42.7527512,57.6199792 C42.7700957,57.6658958 42.7760766,57.6973125 42.7814593,57.7232917 C42.8412679,57.923875 43.112201,57.8785625 43.2533493,57.8785625 C43.5655502,57.8785625 43.5828947,57.8664792 43.5828947,57.5233125 L43.5828947,53.660875 C43.5828947,53.51225 43.5948565,53.3503333 43.4710526,53.3436875 L43.4710526,53.3436875 Z M46.2479665,55.2915208 C46.230622,55.2721875 46.1947368,55.25225 46.1415072,55.25225 C46.0888756,55.2462083 45.9830144,55.2462083 45.8233254,55.2462083 C45.6175837,55.2462083 45.487799,55.2462083 45.4345694,55.25225 C45.3406699,55.2582917 45.2940191,55.3108542 45.2880383,55.4075208 C45.2814593,55.4461875 45.2814593,55.582125 45.2814593,55.8086875 C45.2814593,55.9252917 45.3287081,55.9899375 45.4232057,56.002625 C45.5057416,56.0159167 45.5589713,56.060625 45.5703349,56.1385625 C45.6175837,56.3717708 45.6175837,56.6110208 45.5763158,56.8635625 C45.5703349,56.8696042 45.5643541,56.8889375 45.5589713,56.908875 C45.4172249,57.1928333 45.0990431,57.1801458 45.0105263,56.8635625 C44.9752392,56.753 44.9632775,56.6303542 44.9632775,56.4944167 L44.9632775,54.683125 C44.9632775,54.3725833 45.0404306,54.1266875 45.2467703,54.0940625 C45.452512,54.0620417 45.5942584,54.2753125 45.5996411,54.4891875 C45.6175837,54.9417083 45.5763158,54.9290208 45.7354067,54.9417083 C45.876555,54.9483542 46.0123206,54.9483542 46.147488,54.9417083 C46.3239234,54.9290208 46.2892344,54.7671042 46.2892344,54.5792083 C46.2892344,54.4891875 46.2892344,54.4239375 46.2946172,54.378625 C46.3065789,54.1460208 46.2419856,53.93275 46.1002392,53.7255208 C45.917823,53.4669375 45.6881579,53.3376458 45.4172249,53.331 L45.2055024,53.331 C44.6690191,53.3243542 44.3155502,53.8807917 44.3155502,54.3665417 L44.3215311,56.8569167 C44.3215311,57.0121875 44.3334928,57.1281875 44.362799,57.206125 C44.6690191,57.9824792 45.4704545,58.0984792 45.9351675,57.6779792 C46.4064593,57.2580833 46.2946172,56.9795625 46.2946172,55.582125 C46.2946172,55.4141667 46.2946172,55.342875 46.2479665,55.2915208 L46.2479665,55.2915208 Z M51.6845694,53.3503333 C51.5787081,53.3436875 51.4608852,53.3436875 51.3311005,53.3436875 C51.1427033,53.3503333 51.119378,53.3696667 51.0900718,53.57025 C51.0721292,53.660875 51.0547847,53.7702292 51.0368421,53.9134167 C50.9895933,54.3079375 50.9662679,54.4891875 50.925,54.7544167 C50.9070574,54.857125 50.8011962,54.8710208 50.7712919,54.7671042 C50.7479665,54.7024583 50.7366029,54.6498958 50.7366029,54.6184792 C50.7066986,54.4239375 50.6480861,53.965375 50.6247608,53.8101042 C50.6247608,53.7774792 50.5948565,53.3569792 50.4184211,53.3503333 C50.2473684,53.3436875 50.1002392,53.3436875 49.9824163,53.3503333 C49.8998804,53.3503333 49.8532297,53.4022917 49.8412679,53.486875 C49.8179426,53.6155625 49.7880383,53.8481667 49.7413876,54.1919375 C49.7354067,54.2559792 49.6941388,54.6051875 49.6702153,54.7477708 C49.6642344,54.8251042 49.6110048,54.8837083 49.5763158,54.8710208 C49.5350478,54.857125 49.5111244,54.8190625 49.4991627,54.7477708 C49.4758373,54.5991458 49.4291866,54.2432917 49.4172249,54.1460208 L49.3167464,53.4929167 C49.2934211,53.3122708 49.2282297,53.3503333 48.945933,53.3503333 L48.945933,53.3436875 L48.8514354,53.3436875 C48.6157895,53.3376458 48.5685407,53.3763125 48.6157895,53.6542292 C48.6923445,54.1520625 49.1163876,56.99225 49.1582536,57.2321042 L49.2401914,57.7305417 C49.2700957,57.923875 49.4644737,57.8852083 49.6343301,57.8852083 C49.917823,57.8852083 49.9351675,57.8719167 49.9764354,57.568625 C49.9997608,57.4000625 50.0470096,57.0442083 50.112201,56.51375 C50.1295455,56.4170833 50.147488,56.3457917 50.1708134,56.3198125 C50.2066986,56.2745 50.2593301,56.2811458 50.2826555,56.3264583 C50.3065789,56.4104375 50.3299043,56.5270417 50.3478469,56.6756667 C50.3592105,56.7789792 50.3885167,56.9469375 50.4303828,57.206125 C50.4656699,57.4260417 50.4889952,57.6072917 50.5009569,57.7365833 C50.5129187,57.8266042 50.5535885,57.8719167 50.6421053,57.8785625 C50.7772727,57.8852083 50.9130383,57.8852083 51.0368421,57.8852083 C51.1726077,57.8785625 51.2072967,57.8405 51.2312201,57.6852292 L51.2312201,57.6453542 C51.237201,57.6332708 51.237201,57.6199792 51.237201,57.6072917 C51.3490431,56.7983125 51.6433014,54.8190625 51.7611244,53.9847083 C51.7964115,53.718875 51.8197368,53.57025 51.8197368,53.5315833 C51.8322967,53.4083333 51.7964115,53.3503333 51.6845694,53.3503333 L51.6845694,53.3503333 Z M54.425,57.4906875 C54.4543062,57.6779792 54.4489234,57.7951875 54.4016746,57.8405 C54.348445,57.8978958 53.9303828,57.8785625 53.883134,57.8785625 C53.8239234,57.8719167 53.7892344,57.8592292 53.765311,57.8338542 C53.7120813,57.7812917 53.7066986,57.6852292 53.6833732,57.4773958 C53.6708134,57.3807292 53.6654306,57.3033958 53.6534689,57.2514375 C53.647488,57.1867917 53.6361244,56.87625 53.4297847,56.8696042 C53.3998804,56.8635625 53.3825359,56.8635625 53.3825359,56.8635625 C53.0763158,56.8635625 53.029067,56.87625 52.9937799,57.206125 C52.987799,57.2580833 52.9584928,57.4326875 52.911244,57.7305417 C52.8938995,57.8266042 52.8466507,57.8719167 52.7641148,57.8719167 C52.5816986,57.8785625 52.4285885,57.8785625 52.3041866,57.8719167 C52.1397129,57.8664792 52.1809809,57.7305417 52.2049043,57.5426458 C52.3460526,56.662375 52.7641148,53.9587292 52.8173445,53.602875 C52.8526316,53.3896042 52.8998804,53.3503333 53.0882775,53.3503333 L53.6235646,53.3503333 C53.6833732,53.3569792 53.730622,53.3696667 53.7539474,53.3896042 C53.7952153,53.4343125 53.8185407,53.5509167 53.8364833,53.6542292 C54.0009569,54.7284375 54.4190191,57.4393333 54.425,57.4906875 L54.425,57.4906875 Z M53.5003589,56.0672708 C53.5003589,56.0545833 53.5003589,56.0159167 53.494378,55.9573125 C53.4830144,55.8407083 53.417823,55.49875 53.417823,55.4788125 C53.4118421,55.4534375 53.3998804,55.4208125 53.3825359,55.3815417 C53.3472488,55.3108542 53.2826555,55.3362292 53.2593301,55.3815417 C53.2174641,55.5041875 53.182177,55.705375 53.1642344,55.97725 C53.1588517,56.0092708 53.1588517,56.0418958 53.1588517,56.060625 C53.1588517,56.1578958 53.4883971,56.1518542 53.5003589,56.0672708 L53.5003589,56.0672708 Z M56.4812201,53.3503333 L55.0673445,53.3503333 C54.9315789,53.3503333 54.8616029,53.3376458 54.8143541,53.3829583 C54.7964115,53.4022917 54.779067,53.4403542 54.779067,53.4929167 C54.7730861,53.6409375 54.7730861,53.7901667 54.779067,53.9261042 C54.7844498,54.0553958 54.8257177,54.0880208 54.9435407,54.0940625 C54.9674641,54.1013125 55.0147129,54.1013125 55.0793062,54.1013125 C55.1971292,54.1013125 55.3149522,54.1013125 55.3735646,54.172 C55.4267943,54.2366458 55.4267943,54.320625 55.4267943,54.5405417 L55.4267943,57.5233125 C55.4267943,57.71725 55.4034689,57.8719167 55.5565789,57.8785625 C55.6977273,57.8852083 55.8448565,57.8852083 55.9985646,57.8785625 C56.1391148,57.8664792 56.1217703,57.71725 56.1217703,57.4846458 L56.1217703,54.6051875 C56.1217703,54.35325 56.1157895,54.2432917 56.1869617,54.172 C56.2569378,54.0940625 56.3813397,54.1013125 56.4991627,54.1013125 C56.6050239,54.1013125 56.6869617,54.1013125 56.7348086,54.0553958 C56.7521531,54.0294167 56.7641148,53.9913542 56.7641148,53.93275 C56.7694976,53.8807917 56.7694976,53.784125 56.7694976,53.6542292 C56.7694976,53.3503333 56.758134,53.3503333 56.4812201,53.3503333 L56.4812201,53.3503333 Z M58.8938995,57.1155 L58.3173445,57.1155 C58.1223684,57.1088542 58.0691388,57.0442083 58.0577751,56.8375833 C58.0517943,56.637 58.0517943,56.4617917 58.063756,56.307125 C58.0751196,56.0286042 58.1343301,55.9965833 58.3586124,55.9965833 C58.529067,55.9965833 58.6648325,55.9965833 58.7527512,55.9899375 C58.8352871,55.9832917 58.8825359,55.9379792 58.8825359,55.8473542 C58.8938995,55.7114167 58.8938995,55.5760833 58.8885167,55.4395417 C58.8825359,55.2842708 58.8466507,55.2389583 58.7055024,55.2389583 C58.6648325,55.2329167 58.5930622,55.2329167 58.4997608,55.2329167 C58.3173445,55.2329167 58.1869617,55.2389583 58.1169856,55.1682708 C58.0870813,55.129 58.063756,55.0649583 58.063756,54.9809792 C58.0517943,54.77375 58.0517943,54.559875 58.0577751,54.3399583 C58.0691388,54.1399792 58.1223684,54.0747292 58.3173445,54.0686875 L58.8998804,54.0686875 C59.070933,54.0686875 59.1941388,54.081375 59.2061005,53.9261042 C59.2180622,53.7774792 59.2240431,53.4536458 59.1708134,53.3956458 C59.1415072,53.3696667 59.0649522,53.3503333 58.9297847,53.3503333 L57.6570574,53.3503333 C57.3687799,53.3503333 57.362799,53.363625 57.362799,53.6868542 L57.362799,57.4520208 C57.362799,57.6912708 57.3568182,57.77525 57.4094498,57.8266042 C57.4626794,57.8785625 57.5631579,57.8785625 57.6456938,57.8785625 L58.9238038,57.8785625 C59.0476077,57.8785625 59.188756,57.8918542 59.2007177,57.7365833 C59.2180622,57.5813125 59.2180622,57.4193958 59.2061005,57.2514375 C59.188756,57.1028125 59.070933,57.1221458 58.8938995,57.1155 L58.8938995,57.1155 Z M61.9082536,57.5233125 C61.9315789,57.6072917 61.9435407,57.6852292 61.9495215,57.7432292 C61.9608852,57.807875 61.9255981,57.8664792 61.8610048,57.8719167 C61.7019139,57.8918542 61.5254785,57.8918542 61.3305024,57.8785625 C61.2013158,57.8592292 61.1839713,57.7106042 61.1480861,57.5293542 C61.1301435,57.4326875 61.0894737,57.2580833 61.0302632,57.0055417 L60.9184211,56.4817292 C60.8950957,56.3590833 60.8657895,56.1905208 60.6947368,56.2165 C60.5236842,56.2424792 60.5356459,56.4170833 60.5296651,56.6170625 L60.5296651,57.5293542 C60.5296651,57.7232917 60.5529904,57.8719167 60.3879187,57.8785625 C60.2527512,57.8852083 60.1116029,57.8852083 59.9698565,57.8785625 C59.8107656,57.8719167 59.834689,57.71725 59.834689,57.5039792 L59.834689,53.6802083 C59.834689,53.5182917 59.8466507,53.421625 59.8759569,53.3896042 C59.9291866,53.331 60.0996411,53.3436875 60.4411483,53.3436875 L60.7533493,53.3436875 C60.9004785,53.3376458 61.0721292,53.363625 61.2599282,53.421625 C61.57811,53.5056042 61.813756,53.8101042 61.8251196,54.172 C61.8316986,54.3466042 61.8316986,54.7284375 61.8251196,55.3235417 C61.8251196,55.4727708 61.7665072,55.6280417 61.6546651,55.7827083 C61.5721292,55.8926667 61.5547847,56.0286042 61.5900718,56.1905208 C61.6433014,56.39775 61.7491627,56.8375833 61.9082536,57.5233125 L61.9082536,57.5233125 Z M61.1714115,54.4891875 C61.1594498,54.2819583 61.0834928,54.1919375 60.8891148,54.1399792 C60.8478469,54.1327292 60.8239234,54.1266875 60.8005981,54.1200417 C60.4710526,54.0747292 60.5356459,54.2493333 60.5356459,54.7864375 C60.5356459,55.0716042 60.5416268,55.25225 60.5416268,55.2649375 C60.5416268,55.3755 60.5888756,55.4395417 60.688756,55.4727708 C60.9064593,55.5301667 61.112799,55.3881875 61.1594498,55.1489375 C61.1654306,55.1102708 61.1714115,55.0842917 61.1714115,55.0716042 L61.1714115,54.4891875 Z M67.0505981,53.3503333 C66.9447368,53.3436875 66.8269139,53.3436875 66.6971292,53.3436875 C66.5087321,53.3503333 66.4854067,53.3696667 66.4561005,53.57025 C66.4381579,53.660875 66.4202153,53.7702292 66.4028708,53.9134167 C66.355622,54.3079375 66.3322967,54.4891875 66.2910287,54.7544167 C66.2730861,54.857125 66.167823,54.8710208 66.1385167,54.7671042 C66.1145933,54.7024583 66.1026316,54.6498958 66.1026316,54.6184792 C66.0727273,54.4239375 66.0147129,53.965375 65.9907895,53.8101042 C65.9907895,53.7774792 65.9608852,53.3569792 65.7844498,53.3503333 C65.6139952,53.3436875 65.4662679,53.3436875 65.348445,53.3503333 C65.2665072,53.3503333 65.2192584,53.4022917 65.2072967,53.486875 C65.1833732,53.6155625 65.154067,53.8481667 65.1074163,54.1919375 C65.1014354,54.2559792 65.0601675,54.6051875 65.036244,54.7477708 C65.0308612,54.8251042 64.9770335,54.8837083 64.9423445,54.8710208 C64.9004785,54.857125 64.8771531,54.8190625 64.8657895,54.7477708 C64.8424641,54.5991458 64.7952153,54.2432917 64.7832536,54.1460208 L64.6827751,53.4929167 C64.6588517,53.3122708 64.5948565,53.3503333 64.3125598,53.3503333 L64.3125598,53.3436875 L64.2180622,53.3436875 C63.9818182,53.3376458 63.9351675,53.3763125 63.9818182,53.6542292 C64.0589713,54.1520625 64.4824163,56.99225 64.5236842,57.2321042 L64.6062201,57.7305417 C64.6355263,57.923875 64.8305024,57.8852083 65.0009569,57.8852083 C65.2838517,57.8852083 65.3011962,57.8719167 65.3430622,57.568625 C65.3669856,57.4000625 65.4136364,57.0442083 65.4782297,56.51375 C65.4955742,56.4170833 65.5135167,56.3457917 65.5374402,56.3198125 C65.5721292,56.2745 65.6253589,56.2811458 65.6486842,56.3264583 C65.6720096,56.4104375 65.695933,56.5270417 65.7138756,56.6756667 C65.7252392,56.7789792 65.7545455,56.9469375 65.7958134,57.206125 C65.8316986,57.4260417 65.855622,57.6072917 65.8669856,57.7365833 C65.8789474,57.8266042 65.9196172,57.8719167 66.008134,57.8785625 C66.1438995,57.8852083 66.279067,57.8852083 66.4028708,57.8852083 C66.5386364,57.8785625 66.5739234,57.8405 66.5972488,57.6852292 L66.5972488,57.6453542 C66.6032297,57.6332708 66.6032297,57.6199792 66.6032297,57.6072917 C66.7150718,56.7983125 67.0093301,54.8190625 67.1277512,53.9847083 C67.1630383,53.718875 67.1869617,53.57025 67.1869617,53.5315833 C67.1983254,53.4083333 67.1630383,53.3503333 67.0505981,53.3503333 L67.0505981,53.3503333 Z M68.3855263,53.3376458 C68.2736842,53.331 67.9202153,53.3177083 67.8616029,53.3829583 C67.8376794,53.4083333 67.8257177,53.5056042 67.8257177,53.660875 L67.8257177,57.5166667 C67.8257177,57.6973125 67.8083732,57.8592292 67.9674641,57.8719167 C68.0266746,57.8785625 68.1092105,57.8785625 68.2210526,57.8785625 C68.5099282,57.8785625 68.5212919,57.8719167 68.5212919,57.5486875 L68.5212919,53.718875 C68.5212919,53.4989583 68.5446172,53.3569792 68.3855263,53.3376458 L68.3855263,53.3376458 Z M70.8245215,53.3503333 L69.4106459,53.3503333 C69.2754785,53.3503333 69.2049043,53.3376458 69.1576555,53.3829583 C69.1397129,53.4022917 69.1217703,53.4403542 69.1217703,53.4929167 C69.1157895,53.6409375 69.1157895,53.7901667 69.1217703,53.9261042 C69.1277512,54.0553958 69.1690191,54.0880208 69.2868421,54.0940625 C69.3101675,54.1013125 69.3580144,54.1013125 69.4226077,54.1013125 C69.5404306,54.1013125 69.6576555,54.1013125 69.716866,54.172 C69.7700957,54.2366458 69.7700957,54.320625 69.7700957,54.5405417 L69.7700957,57.5233125 C69.7700957,57.71725 69.7467703,57.8719167 69.8998804,57.8785625 C70.0410287,57.8852083 70.1881579,57.8852083 70.3412679,57.8785625 C70.4824163,57.8664792 70.4650718,57.71725 70.4650718,57.4846458 L70.4650718,54.6051875 C70.4650718,54.35325 70.4590909,54.2432917 70.5296651,54.172 C70.6008373,54.0940625 70.7246411,54.1013125 70.841866,54.1013125 C70.9483254,54.1013125 71.0302632,54.1013125 71.077512,54.0553958 C71.0954545,54.0294167 71.1068182,53.9913542 71.1068182,53.93275 C71.112799,53.8807917 71.112799,53.784125 71.112799,53.6542292 C71.112799,53.3503333 71.1014354,53.3503333 70.8245215,53.3503333 L70.8245215,53.3503333 Z M73.6259569,53.331 C73.5141148,53.3177083 73.1606459,53.3122708 73.1080144,53.3696667 C73.07811,53.4022917 73.0667464,53.4929167 73.0667464,53.6542292 C73.0607656,53.784125 73.0607656,53.9780625 73.0607656,54.23 L73.0607656,54.8057708 C73.0607656,54.9936667 73.0721292,55.19425 72.8962919,55.2135833 C72.7425837,55.2389583 72.536244,55.2389583 72.4656699,55.1682708 C72.4010766,55.0975833 72.4130383,54.9676875 72.4130383,54.7604583 L72.4130383,53.6868542 C72.4130383,53.4929167 72.4363636,53.3436875 72.2772727,53.331 C72.1654306,53.3177083 71.8119617,53.3122708 71.7527512,53.3696667 C71.723445,53.4022917 71.7114833,53.4929167 71.7114833,53.6542292 L71.7114833,57.4647083 C71.7114833,57.6973125 71.7114833,57.7812917 71.7527512,57.8338542 C71.8,57.8852083 71.8998804,57.8785625 72.1002392,57.8785625 C72.3897129,57.8785625 72.4130383,57.8525833 72.4130383,57.5486875 L72.4130383,56.3717708 C72.4130383,56.1905208 72.3956938,56.0219583 72.5661483,56.0092708 C72.7366029,55.9965833 72.9901914,55.9706042 73.0374402,56.1518542 C73.0547847,56.2165 73.0607656,56.307125 73.0607656,56.4170833 L73.0667464,57.5426458 C73.0667464,57.71725 73.0482057,57.8592292 73.195933,57.8719167 C73.2485646,57.8785625 73.3257177,57.8785625 73.4255981,57.8785625 C73.7437799,57.8785625 73.7611244,57.8664792 73.7611244,57.5233125 L73.7611244,53.660875 C73.7611244,53.4929167 73.7850478,53.3436875 73.6259569,53.331 L73.6259569,53.331 Z M78.1444976,57.4906875 C78.1744019,57.6779792 78.167823,57.7951875 78.1211722,57.8405 C78.0679426,57.8978958 77.6498804,57.8785625 77.6026316,57.8785625 C77.5434211,57.8719167 77.508134,57.8592292 77.4848086,57.8338542 C77.432177,57.7812917 77.4261962,57.6852292 77.4022727,57.4773958 C77.3909091,57.3807292 77.3843301,57.3033958 77.3723684,57.2514375 C77.3669856,57.1867917 77.3550239,56.87625 77.1486842,56.8696042 C77.119378,56.8635625 77.1020335,56.8635625 77.1020335,56.8635625 C76.7952153,56.8635625 76.7485646,56.87625 76.7132775,57.206125 C76.7078947,57.2580833 76.6785885,57.4326875 76.6307416,57.7305417 C76.612799,57.8266042 76.5661483,57.8719167 76.4836124,57.8719167 C76.3011962,57.8785625 76.1480861,57.8785625 76.0242823,57.8719167 C75.8592105,57.8664792 75.9004785,57.7305417 75.9244019,57.5426458 C76.0649522,56.662375 76.4836124,53.9587292 76.5356459,53.602875 C76.5715311,53.3896042 76.6187799,53.3503333 76.8077751,53.3503333 L77.3430622,53.3503333 C77.4022727,53.3569792 77.4495215,53.3696667 77.473445,53.3896042 C77.5141148,53.4343125 77.5374402,53.5509167 77.5553828,53.6542292 C77.7204545,54.7284375 78.1385167,57.4393333 78.1444976,57.4906875 L78.1444976,57.4906875 Z M77.2198565,56.0672708 C77.2198565,56.0545833 77.2198565,56.0159167 77.2138756,55.9573125 C77.202512,55.8407083 77.1367225,55.49875 77.1367225,55.4788125 C77.1313397,55.4534375 77.119378,55.4208125 77.1020335,55.3815417 C77.0661483,55.3108542 77.0021531,55.3362292 76.9788278,55.3815417 C76.9369617,55.5041875 76.9022727,55.705375 76.8837321,55.97725 C76.8783493,56.0092708 76.8783493,56.0418958 76.8783493,56.060625 C76.8783493,56.1578958 77.2078947,56.1518542 77.2198565,56.0672708 L77.2198565,56.0672708 Z M80.1068182,57.1155 C79.6008373,57.1028125 79.5296651,57.1608125 79.5063397,56.8822917 C79.5063397,56.8375833 79.5003589,56.753 79.5003589,56.6243125 L79.5003589,53.7388125 C79.5003589,53.4929167 79.5248804,53.3503333 79.3592105,53.3376458 C79.3011962,53.331 79.2180622,53.331 79.1002392,53.331 C78.8119617,53.331 78.8053828,53.3436875 78.8053828,53.660875 L78.8053828,57.5746667 C78.8053828,57.8664792 78.8173445,57.8785625 79.0822967,57.8785625 L80.2904306,57.8785625 C80.4202153,57.8785625 80.5553828,57.9045417 80.5607656,57.7305417 C80.5667464,57.5746667 80.5667464,57.4260417 80.5607656,57.2701667 C80.5553828,57.082875 80.4901914,57.1155 80.1068182,57.1155 L80.1068182,57.1155 Z M81.9429426,54.197375 C82.0021531,54.1266875 82.0721292,54.0880208 82.1552632,54.0880208 C82.3197368,54.0880208 82.466866,54.2559792 82.4794258,54.501875 C82.4848086,54.9096875 82.4555024,54.9356667 82.6199761,54.9483542 C82.744378,54.9543958 82.8616029,54.9543958 82.9860048,54.9483542 C83.126555,54.9483542 83.167823,54.9096875 83.1744019,54.7544167 C83.1797847,54.559875 83.209689,54.0553958 83.0332536,53.8221875 C82.8388756,53.57025 82.6672249,53.421625 82.5260766,53.363625 C82.4794258,53.3436875 82.4202153,53.3376458 82.3669856,53.331 C82.2910287,53.331 82.1672249,53.3243542 81.9961722,53.331 C81.9375598,53.331 81.8717703,53.3436875 81.7952153,53.3763125 C81.4136364,53.5315833 81.1660287,53.9587292 81.1773923,54.35325 L81.1833732,56.9149167 C81.1833732,57.1281875 81.2186603,57.29675 81.3065789,57.4193958 C81.9136364,58.3244375 82.9973684,57.9625417 83.1564593,57.0575 C83.1797847,56.9276042 83.1863636,56.6883542 83.167823,56.3264583 C83.167823,56.2352292 83.1205742,56.183875 83.0392344,56.1778333 C82.9028708,56.1711875 82.7677033,56.1711875 82.6438995,56.1778333 C82.5200957,56.1778333 82.4907895,56.2231458 82.4794258,56.3645208 L82.4794258,56.720375 C82.4728469,56.9602292 82.3197368,57.1475208 82.1373206,57.1348333 C81.9549043,57.1221458 81.8663876,56.9408958 81.848445,56.7789792 C81.8370813,56.7016458 81.8370813,56.6170625 81.8370813,56.5270417 C81.8311005,56.0219583 81.8311005,55.4014792 81.8370813,54.6498958 C81.8370813,54.4891875 81.8251196,54.3399583 81.9429426,54.197375 L81.9429426,54.197375 Z M85.8466507,54.5151667 L85.8526316,56.6563333 C85.8526316,56.727625 85.834689,56.8955833 85.7880383,57.1608125 C85.7814593,57.2188125 85.7587321,57.2701667 85.7288278,57.3287708 C85.2635167,58.1498333 84.2856459,58.0984792 83.9088517,57.3227292 C83.8376794,57.1801458 83.8089713,57.0121875 83.8089713,56.8055625 L83.8089713,54.378625 C83.7964115,53.9967917 83.9620813,53.6741667 84.3035885,53.4022917 C84.3741627,53.3436875 84.438756,53.3122708 84.515311,53.298375 C84.9812201,53.2210417 85.2754785,53.2923333 85.5230861,53.5509167 C85.7700957,53.8034583 85.8466507,54.172 85.8466507,54.5151667 L85.8466507,54.5151667 Z M85.1098086,54.4891875 C85.1098086,54.3979583 85.098445,54.3272708 85.0811005,54.262625 C84.9866029,53.9454375 84.5511962,53.9847083 84.5093301,54.3145833 C84.5045455,54.35325 84.5045455,54.4185 84.5045455,54.5218125 L84.5045455,56.6303542 C84.5045455,56.76025 84.5093301,56.8569167 84.5338517,56.908875 C84.6277512,57.1735 84.9692584,57.1801458 85.0751196,56.9215625 C85.098445,56.8635625 85.1098086,56.7789792 85.1098086,56.6756667 L85.1098086,54.4891875 Z M88.4052632,53.331 C88.2940191,53.3177083 87.9405502,53.3122708 87.8873206,53.3696667 C87.8580144,53.4022917 87.8466507,53.4929167 87.8466507,53.6542292 C87.8400718,53.784125 87.8400718,53.9780625 87.8400718,54.23 L87.8400718,54.8057708 C87.8400718,54.9936667 87.8520335,55.19425 87.675,55.2135833 C87.522488,55.2389583 87.3161483,55.2389583 87.2455742,55.1682708 C87.1803828,55.0975833 87.1923445,54.9676875 87.1923445,54.7604583 L87.1923445,53.6868542 C87.1923445,53.4929167 87.2162679,53.3436875 87.0565789,53.331 C86.9447368,53.3177083 86.5912679,53.3122708 86.5326555,53.3696667 C86.5033493,53.4022917 86.4913876,53.4929167 86.4913876,53.6542292 L86.4913876,57.4647083 C86.4913876,57.6973125 86.4913876,57.7812917 86.5326555,57.8338542 C86.5793062,57.8852083 86.6791866,57.8785625 86.8801435,57.8785625 C87.1684211,57.8785625 87.1923445,57.8525833 87.1923445,57.5486875 L87.1923445,56.3717708 C87.1923445,56.1905208 87.175,56.0219583 87.3454545,56.0092708 C87.5165072,55.9965833 87.7694976,55.9706042 87.8173445,56.1518542 C87.834689,56.2165 87.8400718,56.307125 87.8400718,56.4170833 L87.8466507,57.5426458 C87.8466507,57.71725 87.8287081,57.8592292 87.9752392,57.8719167 C88.0284689,57.8785625 88.1050239,57.8785625 88.2055024,57.8785625 C88.5230861,57.8785625 88.5416268,57.8664792 88.5416268,57.5233125 L88.5416268,53.660875 C88.5416268,53.4929167 88.5649522,53.3436875 88.4052632,53.331 L88.4052632,53.331 Z M91.2078947,54.5151667 L91.2132775,56.6563333 C91.2132775,56.727625 91.1953349,56.8955833 91.1486842,57.1608125 C91.1427033,57.2188125 91.119378,57.2701667 91.0894737,57.3287708 C90.6247608,58.1498333 89.6462919,58.0984792 89.2694976,57.3227292 C89.1989234,57.1801458 89.1696172,57.0121875 89.1696172,56.8055625 L89.1696172,54.378625 C89.1576555,53.9967917 89.3227273,53.6741667 89.6642344,53.4022917 C89.7348086,53.3436875 89.8,53.3122708 89.876555,53.298375 C90.341866,53.2210417 90.6367225,53.2923333 90.8843301,53.5509167 C91.1313397,53.8034583 91.2078947,54.172 91.2078947,54.5151667 L91.2078947,54.5151667 Z M90.4710526,54.4891875 C90.4710526,54.3979583 90.459689,54.3272708 90.4417464,54.262625 C90.3478469,53.9454375 89.9118421,53.9847083 89.8705742,54.3145833 C89.8651914,54.35325 89.8651914,54.4185 89.8651914,54.5218125 L89.8651914,56.6303542 C89.8651914,56.76025 89.8705742,56.8569167 89.8938995,56.908875 C89.9889952,57.1735 90.3299043,57.1801458 90.4363636,56.9215625 C90.459689,56.8635625 90.4710526,56.7789792 90.4710526,56.6756667 L90.4710526,54.4891875 Z M93.1773923,57.1155 C92.6708134,57.1028125 92.6002392,57.1608125 92.5763158,56.8822917 C92.5763158,56.8375833 92.570933,56.753 92.570933,56.6243125 L92.570933,53.7388125 C92.570933,53.4929167 92.5948565,53.3503333 92.4291866,53.3376458 C92.3705742,53.331 92.2880383,53.331 92.1702153,53.331 C91.8819378,53.331 91.8759569,53.3436875 91.8759569,53.660875 L91.8759569,57.5746667 C91.8759569,57.8664792 91.8873206,57.8785625 92.1528708,57.8785625 L93.3604067,57.8785625 C93.4895933,57.8785625 93.6253589,57.9045417 93.6307416,57.7305417 C93.6367225,57.5746667 93.6367225,57.4260417 93.6307416,57.2701667 C93.6253589,57.082875 93.5601675,57.1155 93.1773923,57.1155 L93.1773923,57.1155 Z" id="Fill-59" fill="#004438"></path>
            </g>
        </g>
    </g>
</svg>