<?xml version="1.0" encoding="UTF-8"?>
<svg width="1920px" height="52px" viewBox="0 0 1920 52" version="1.1" xmlns="http://www.w3.org/2000/svg" xmlns:xlink="http://www.w3.org/1999/xlink">
    <title>wave-top-green</title>
    <g id="Page-1" stroke="none" stroke-width="1" fill="none" fill-rule="evenodd">
        <g id="wave-top-green" transform="translate(960.000000, 26.000000) scale(1, -1) translate(-960.000000, -26.000000) " fill="#72b42c" fill-rule="nonzero">
            <path d="M0,0 C285,0 285,51 570,51 L570,51 L570,0 L0,0 Z" id="Path"></path>
            <path d="M569,51 C782.5,51 782.5,26 996,26 L996,26 L996,0 L569,0 L569,51 Z" id="Path"></path>
            <path d="M995,26 C1220,26 1220,52 1445,52 L1445,52 L1445,0 L995,0 L995,26 Z" id="Path"></path>
            <path d="M1444,52 C1682,52 1682,0 1920,0 L1920,0 L1920,0 L1444,0 L1444,52 Z" id="Path"></path>
        </g>
    </g>
</svg>
