<svg xmlns="http://www.w3.org/2000/svg" width="96" height="77" fill="none" viewBox="0 0 96 77">
    <path fill="#F40000" d="M76.101 50.477l-.183.17.183-.17zm7.649 8.033c-.006.138-.122.245-.26.24l-2.248-.091c-.138-.006-.246-.122-.24-.26.005-.138.122-.245.26-.24l1.998.081.081-1.998c.006-.138.122-.245.26-.24.138.006.245.122.24.26l-.091 2.248zM7.387 50c-.095.1-.254.103-.353.008-.1-.096-.104-.254-.008-.354l.361.346zm1.36-2.055c.1-.095.259-.09.353.01.095.1.09.259-.01.353l-.343-.363zm3.994-2.75c-.11.083-.266.063-.35-.047-.085-.109-.064-.266.045-.35l.305.396zm3.686-3.151c.117-.073.271-.036.344.081.072.118.036.272-.082.344l-.262-.425zm4.47-1.88c-.125.06-.274.008-.334-.116-.06-.125-.008-.274.116-.334l.218.45zm4.251-2.33c.13-.048.273.02.32.15.047.13-.02.273-.15.32l-.17-.47zm4.76-.928c-.135.033-.27-.048-.304-.182-.033-.134.048-.27.182-.303l.121.485zm4.636-1.418c.137-.02.264.075.283.212.02.136-.075.263-.212.283l-.07-.495zm4.849.054c-.138.006-.255-.101-.26-.24-.006-.137.101-.254.24-.26l.02.5zm4.828-.454c.137.009.242.127.234.265-.008.138-.127.243-.265.234l.03-.499zm4.738 1.03c-.137-.022-.229-.15-.207-.287.022-.136.15-.229.287-.206l-.08.493zm4.82.529c.133.036.212.173.176.306-.036.134-.173.213-.307.177l.13-.483zm4.431 1.967c-.129-.05-.193-.194-.144-.323.05-.129.194-.193.323-.144l-.179.467zm4.612 1.498c.123.062.172.212.11.336-.062.123-.213.172-.336.11l.226-.446zm3.937 2.83c-.116-.075-.15-.23-.075-.346.075-.116.23-.15.345-.075l-.27.42zm4.208 2.408c.108.087.126.244.04.352-.087.108-.244.125-.352.039l.312-.39zm3.28 3.573c-.1-.096-.1-.255-.004-.353.097-.099.255-.1.354-.004l-.35.357zm3.888 3.39c.093.102.087.26-.015.354-.101.093-.26.087-.353-.014l.368-.34zm3.331 4.35c-.093-.1-.087-.259.015-.352.101-.094.26-.088.353.014l-.368.339zm-74.44-7.009c.563-.587 1.137-1.157 1.721-1.71l.343.364c-.578.547-1.146 1.11-1.703 1.692l-.361-.346zm5.41-4.856c1.293-.994 2.625-1.912 3.991-2.754l.262.425c-1.35.834-2.669 1.742-3.948 2.725l-.305-.396zm8.243-5.084c1.463-.706 2.955-1.333 4.47-1.88l.17.47c-1.499.541-2.975 1.161-4.422 1.86l-.218-.45zm9.107-3.294c1.572-.392 3.16-.703 4.758-.932l.071.495c-1.58.227-3.152.534-4.708.923l-.12-.486zm9.586-1.377c1.616-.067 3.234-.052 4.849.045l-.03.5c-1.598-.097-3.2-.112-4.798-.046l-.02-.5zm9.667.582c1.593.26 3.175.6 4.74 1.022l-.13.483c-1.549-.418-3.114-.755-4.69-1.012l.08-.493zm9.35 2.522c1.504.576 2.983 1.23 4.433 1.965l-.226.446c-1.434-.726-2.898-1.374-4.386-1.944l.18-.467zm8.64 4.374c1.35.868 2.665 1.811 3.938 2.83l-.312.39c-1.26-1.007-2.56-1.94-3.896-2.8l.27-.42zm7.568 6.045c.574.563 1.137 1.144 1.688 1.742l-.367.339c-.546-.592-1.104-1.166-1.672-1.724l.35-.357zm1.688 1.742l1.85 2.006-.368.339-1.85-2.006.368-.339zm5.549 6.017l1.85 2.005-.368.34-1.85-2.006.368-.34zm-5.733-5.848l-.367.34.367-.34zM84 58.52c-.01.276-.243.49-.52.48l-4.496-.182c-.276-.011-.49-.244-.48-.52.012-.276.245-.49.52-.48l3.997.162.162-3.996c.011-.276.244-.491.52-.48.276.011.49.244.48.52l-.183 4.496zM7.568 50.173c-.191.2-.508.206-.707.015-.2-.19-.207-.507-.016-.707l.723.692zm1.007-2.41c.201-.19.518-.18.707.02.19.201.18.517-.02.707l-.687-.727zm4.318-2.37c-.219.168-.532.127-.7-.092-.169-.22-.128-.533.091-.701l.61.792zm3.403-3.562c.235-.145.543-.072.688.163.145.235.072.543-.163.688l-.525-.851zm4.71-1.442c-.25.12-.548.016-.668-.233-.12-.248-.016-.547.232-.667l.435.9zm4.057-2.79c.26-.095.547.04.64.3.094.26-.04.546-.3.64l-.34-.94zm4.905-.45c-.268.066-.54-.097-.606-.365-.067-.268.096-.54.364-.606l.242.97zm4.54-1.909c.274-.039.527.15.567.424.039.273-.15.527-.424.566l-.142-.99zm4.895.552c-.276.011-.509-.203-.52-.479-.012-.276.203-.509.479-.52l.041.999zm4.833-.953c.275.016.485.253.469.529-.017.276-.254.486-.53.469l.06-.998zm4.683 1.526c-.273-.045-.458-.302-.413-.574.044-.273.3-.458.573-.413l-.16.987zm4.925.04c.266.072.424.347.352.614-.072.266-.346.424-.613.352l.26-.965zm4.277 2.442c-.258-.098-.387-.387-.288-.645.099-.258.388-.387.646-.288l-.358.933zm4.814 1.042c.246.124.345.425.22.671-.125.247-.425.346-.672.22l.452-.891zm3.689 3.263c-.233-.15-.3-.459-.15-.69.15-.233.458-.3.69-.15l-.54.84zm4.5 2.003c.215.172.25.487.078.703-.172.216-.487.25-.703.078l.624-.78zm2.947 3.947c-.197-.194-.2-.51-.006-.707.193-.197.51-.2.707-.007l-.7.714zm4.248 3.042c.187.203.174.52-.03.707-.202.187-.518.174-.706-.029l.736-.678zm2.964 4.69c-.188-.204-.175-.52.028-.707.203-.187.52-.175.707.028l-.735.678zM6.845 49.48c.566-.59 1.143-1.163 1.73-1.718l.687.727c-.575.544-1.14 1.105-1.694 1.683l-.723-.692zm5.439-4.881c1.3-1 2.639-1.922 4.012-2.77l.525.852c-1.344.829-2.655 1.732-3.928 2.71l-.609-.792zm8.286-5.111c1.471-.71 2.971-1.34 4.493-1.89l.34.94c-1.49.538-2.958 1.155-4.398 1.85l-.434-.9zm9.156-3.311c1.58-.395 3.177-.707 4.783-.938l.142.99c-1.573.226-3.136.532-4.683.918l-.242-.97zm9.636-1.385c1.624-.067 3.25-.052 4.873.046l-.06.998c-1.588-.096-3.181-.11-4.772-.045l-.041-1zm9.717.585c1.602.26 3.192.603 4.765 1.028l-.26.965c-1.54-.415-3.098-.75-4.666-1.006l.161-.987zm9.4 2.536c1.511.579 2.999 1.237 4.456 1.975l-.452.892c-1.426-.722-2.883-1.367-4.362-1.934l.358-.933zm8.686 4.397c1.356.873 2.678 1.82 3.958 2.844l-.624.781c-1.253-1.002-2.547-1.93-3.875-2.784l.54-.84zm7.607 6.077c.577.566 1.142 1.15 1.697 1.75l-.735.678c-.543-.588-1.098-1.16-1.663-1.714l.7-.714zm1.697 1.75l1.85 2.006-.736.678-1.85-2.006.736-.678zm5.549 6.017l1.85 2.006-.736.678-1.85-2.006.736-.678z"/>
    <circle cx="7.273" cy="50.281" r="3.199" fill="#F40000" transform="rotate(-8.308 7.273 50.28)"/>
</svg>
