<svg xmlns="http://www.w3.org/2000/svg" width="62" height="62" fill="none" viewBox="0 0 40 40">
    <path fill="#000" d="M20 0C8.963 0 0 8.94 0 20c0 11.037 8.94 20 20 20 11.037 0 20-8.94 20-20C40 8.963 31.037 0 20 0zm-5.626 22.765c0 2.432-2.05 4.1-4.72 4.1-2.693 0-4.743-1.644-4.743-4.1v-6.65c0-2.432 2.05-4.077 4.743-4.077 2.67 0 4.72 1.621 4.72 4.076v6.651zm11.061 3.743h-3.123l-2.193-4.601-.977-2.026v6.627h-3.385V12.396h3.29l2.121 4.72.906 2.026v-6.77h3.361v14.136zm8.057-8.582v2.67h-2.765v2.622h4.29v3.266h-8.104V12.372h8.081v3.075h-4.29v2.48h2.788zM9.631 15.161c-.453 0-.859.286-.859.739v7.08c0 .476.43.739.859.739.452 0 .858-.286.858-.74V15.9c0-.476-.406-.738-.858-.738z"/>
</svg>
