<svg width="32" height="32" viewBox="0 0 32 32" fill="none" xmlns="http://www.w3.org/2000/svg">
    <g clip-path="url(#t2xc9x0kta)">
        <path d="M15.997 32A15.996 15.996 0 1 0 15.998.009a15.996 15.996 0 0 0-.001 31.993z" fill="#fff"/>
        <path d="M15.997 25.755 8.222 17.98a6.115 6.115 0 0 1 7.775-9.375 6.119 6.119 0 0 1 7.775 9.375l-7.775 7.775zm-6.035-9.519 6.035 6.034 6.034-6.034a3.657 3.657 0 0 0 .063-5.226 3.657 3.657 0 0 0-1.202-.812 3.636 3.636 0 0 0-2.838.035 3.614 3.614 0 0 0-1.175.84l-.882.883-.876-.879a3.65 3.65 0 1 0-5.159 5.162v-.003z" fill="#000"/>
    </g>
    <defs>
        <clipPath id="t2xc9x0kta">
            <path fill="#fff" d="M0 0h32v32H0z"/>
        </clipPath>
    </defs>
</svg>
