<svg width="32" height="32" viewBox="0 0 32 32" fill="none" xmlns="http://www.w3.org/2000/svg">
    <g clip-path="url(#0nqptw7u3a)">
        <path d="M16 32A15.996 15.996 0 1 0 15.995.01 15.996 15.996 0 0 0 16 32z" fill="#000"/>
        <path d="M10.995 9.583c.055.816.193 1.614.413 2.374l-1.1 1.1a13.59 13.59 0 0 1-.697-3.474h1.384zm9.038 11.019c.78.22 1.577.357 2.384.412v1.366a14.14 14.14 0 0 1-3.484-.688l1.1-1.09zM11.875 7.75H8.667a.92.92 0 0 0-.917.917c0 8.607 6.976 15.583 15.583 15.583a.92.92 0 0 0 .917-.917v-3.199a.92.92 0 0 0-.917-.916c-1.136 0-2.245-.184-3.272-.523a.768.768 0 0 0-.284-.046.939.939 0 0 0-.651.266l-2.017 2.017a13.886 13.886 0 0 1-6.04-6.041l2.016-2.017a.92.92 0 0 0 .23-.935 10.413 10.413 0 0 1-.523-3.272.92.92 0 0 0-.917-.917z" fill="#fff"/>
    </g>
    <defs>
        <clipPath id="0nqptw7u3a">
            <path fill="#fff" d="M0 0h32v32H0z"/>
        </clipPath>
    </defs>
</svg>
