<svg width="36" height="37" viewBox="0 0 36 37" fill="none" xmlns="http://www.w3.org/2000/svg">
    <ellipse cx="18" cy="18.643" rx="18" ry="18.161" fill="#000"/>
    <path d="M18.14 10.77a2.87 2.87 0 0 0-1.59.479c-.47.316-.836.763-1.055 1.286a2.936 2.936 0 0 0-.165 1.649 2.88 2.88 0 0 0 2.254 2.248 2.86 2.86 0 1 0 .55-5.662h.005zm0 7.998a5.14 5.14 0 0 1-1.001-10.185 5.145 5.145 0 0 1 6.145 5.046 5.151 5.151 0 0 1-5.145 5.14zM23.96 25.519l-1.379-2.738h-8.888l-1.364 2.738-2.039-1.023 1.995-3.996h11.703L26 24.496l-2.04 1.023z" fill="#fff"/>
</svg>
