<svg width="25" height="24" viewBox="0 0 25 24" fill="none" xmlns="http://www.w3.org/2000/svg">
    <path d="M12.417 17.325a1.455 1.455 0 0 0 1.437-1.455 1.403 1.403 0 0 0-.116-.551 1.385 1.385 0 0 0-.313-.476 1.448 1.448 0 0 0-1.026-.423 1.403 1.403 0 0 0-.58.11 1.421 1.421 0 0 0-.47.314 1.404 1.404 0 0 0-.318.475 1.51 1.51 0 0 0-.11.55 1.461 1.461 0 0 0 .918 1.355c.184.072.38.107.578.1z" fill="#fff"/>
    <path d="M10.057 7.777a2.348 2.348 0 0 1 .684-1.676A2.36 2.36 0 0 1 14.8 7.777v2.719h-4.724l-.018-2.72zm6.661 11.066H8.127l-.215-5.942h9.009l-.203 5.942zM5.814 21.25h13.223l.377-10.76h-2.232V7.772A4.777 4.777 0 0 0 12.417 3a4.771 4.771 0 0 0-3.369 1.397 4.76 4.76 0 0 0-1.402 3.374v2.719H5.414l.4 10.76z" fill="#fff"/>
</svg>
