<svg width="32" height="32" viewBox="0 0 32 32" fill="none" xmlns="http://www.w3.org/2000/svg">
    <g clip-path="url(#gs521i85ta)">
        <path d="M16 32A16.01 16.01 0 1 0 16-.022 16.01 16.01 0 0 0 16 32z" fill="#000"/>
        <path d="M21.065 24a1.43 1.43 0 1 0-1.323-.883 1.425 1.425 0 0 0 1.323.882zM11.505 24a1.43 1.43 0 1 0 0-2.86 1.43 1.43 0 0 0 0 2.86zM22.351 17.034h-3.44V13.6h1.707l1.744 1.745-.01 1.69zm-.83-5.636h-2.61V9H8.016v2.185h8.688v5.85h-6.503v-3.239H8v5.445h16.558v-4.785l-3.036-3.058z" fill="#fff"/>
    </g>
    <defs>
        <clipPath id="gs521i85ta">
            <path fill="#000" d="M0 0h32v32H0z"/>
        </clipPath>
    </defs>
</svg>
