<?xml version="1.0" encoding="UTF-8"?>
<svg width="26px" height="26px" viewBox="0 0 26 26" version="1.1" xmlns="http://www.w3.org/2000/svg" xmlns:xlink="http://www.w3.org/1999/xlink">
    <title>user-icon</title>
    <g id="Page-1" stroke="none" stroke-width="1" fill="none" fill-rule="evenodd">
        <g id="user-icon" transform="translate(-0.000044, -0.000200)" fill="#ffffff" fill-rule="nonzero">
            <path d="M9.47524449,3.739 C10.4072445,2.855 11.7022445,2.3 13.1502445,2.3 C14.5982445,2.3 15.8932445,2.855 16.8252445,3.739 C17.7562445,4.626 18.3152445,5.819 18.3162445,7.142 C18.3152445,8.465 17.7562445,9.658 16.8252445,10.545 C15.8932445,11.429 14.5982445,11.984 13.1502445,11.984 C11.7022445,11.984 10.4072445,11.429 9.47524449,10.545 C8.54424449,9.658 7.98524449,8.465 7.98424449,7.142 C7.98524449,5.819 8.54424449,4.626 9.47524449,3.739 M13.1502445,14.284 C15.1912445,14.284 17.0542445,13.499 18.4082445,12.214 C19.7622445,10.932 20.6172445,9.129 20.6162481,7.142 C20.6172445,5.155 19.7622445,3.352 18.4082445,2.07 C17.0542445,0.786 15.1912445,-8.8817842e-16 13.1502445,-8.8817842e-16 C11.1092445,-8.8817842e-16 9.24624449,0.786 7.89224449,2.07 C6.53824449,3.352 5.68324449,5.155 5.68424099,7.142 C5.68324449,9.129 6.53824449,10.932 7.89224449,12.214 C9.24624449,13.499 11.1092445,14.284 13.1502445,14.284" id="Shape"></path>
            <path d="M24.0000445,23.5572 L2.30004449,23.5572 L2.30004449,21.9112 C2.30204449,21.6542 2.36304449,21.4232 2.50604449,21.1622 C2.75204449,20.7092 3.30004449,20.1862 4.08904449,19.7172 C5.26604449,19.0082 6.93204449,18.4242 8.60004449,18.0432 C10.2670445,17.6582 11.9500445,17.4672 13.1500445,17.4680415 C14.9830445,17.4632 17.9170445,17.9202 20.2500445,18.7972 C21.4170445,19.2312 22.4360445,19.7742 23.0880445,20.3402 C23.4160445,20.6212 23.6500445,20.9032 23.7940445,21.1622 C23.9370445,21.4232 23.9980445,21.6542 24.0000445,21.9112 L24.0000445,23.5572 Z M25.5096726,20.0180688 C24.9689135,19.0177882 24.1127938,18.270665 23.1271688,17.6521787 C21.6442826,16.7290802 19.8183553,16.0879538 18.0082456,15.6526464 C16.1961586,15.2204264 14.4117522,15.0022582 13.0000445,15.0002 C10.8528253,15.0063746 7.82180583,15.4993112 5.18622272,16.5181156 C3.86941976,17.0326633 2.65246447,17.6727606 1.69254279,18.5279388 C1.21406484,18.9570715 0.796879518,19.4458918 0.490416366,20.0180688 C0.184941805,20.5871586 -0.00190185859,21.2468087 1.46024023e-05,21.9393898 L1.46024023e-05,26.0002 L26.0000744,26.0002 L26.0000744,21.9393898 C26.0019909,21.2468087 25.8151472,20.5871586 25.5096726,20.0180688 L25.5096726,20.0180688 Z" id="Shape"></path>
        </g>
    </g>
</svg>
