<?xml version="1.0" encoding="UTF-8"?>
<svg width="46px" height="46px" viewBox="0 0 46 46" version="1.1" xmlns="http://www.w3.org/2000/svg" xmlns:xlink="http://www.w3.org/1999/xlink">
    <title>icon-black-arrow</title>
    <g id="Page-1" stroke="none" stroke-width="1" fill="none" fill-rule="evenodd">
        <g id="icon-black-arrow" transform="translate(22.979000, 22.980000) scale(-1, 1) translate(-22.979000, -22.980000) translate(-0.001000, 0.000000)" fill-rule="nonzero">
            <path d="M45.96,22.98 C45.96,10.2884964 35.6715036,0 22.98,0 C10.2884964,0 0,10.2884964 0,22.98 C0,35.6715036 10.2884964,45.96 22.98,45.96 C35.6715036,45.96 45.96,35.6715036 45.96,22.98 Z" id="Path" fill="#000000"></path>
            <polygon id="Path" fill="#FFFFFF" points="24.192 13.755 30.938 21.188 14.491 21.188 14.491 13.664 10.954 13.664 10.954 32.3 14.491 32.3 14.491 24.726 30.988 24.726 24.192 32.214 26.815 34.589 37.395 22.932 26.815 11.382 24.192 13.756"></polygon>
        </g>
    </g>
</svg>