<svg width="121" height="39" viewBox="0 0 121 39" fill="none" xmlns="http://www.w3.org/2000/svg">
    <path d="M32.166 19.131a13.33 13.33 0 1 0-26.661-.003 13.33 13.33 0 0 0 26.66.003z" fill="#000"/>
    <path d="M17.337 22.687a3.118 3.118 0 0 0-1.906-.555 1.17 1.17 0 0 0-.93.502c-.29-.502-.86-.814-1.745-.805-1.427.017-2.845.677-3.967.677-1.078 0-1.866-.677-1.837-1.88.046-2.106 1.825-4.003 3.156-4.86.768-.49 1.404-.636 1.824-.59.305.036.672.388.438.907-.339.768-.81.698-.793.335a.608.608 0 0 1 .285-.468.584.584 0 0 1 .277-.067c.068-.057.12-.475-.428-.336-.548.138-1.207.674-1.837 1.369-.63.695-1.602 2.01-1.842 3.384-.11.641-.038 1.807 1.478 1.794 1.285-.01 3.182-.857 4.922-.844a3.32 3.32 0 0 1 1.725.477c.451.278.988.683 1.183.96h-.003zm.416-3.821h.263s-1.317 1.908-2.066 1.823c-.416-.048-.293-.563-.293-.563s-.586.685-1.121.548c-.488-.126-.174-.936-.174-.936-.055.024-1.11 1.213-1.85.928-.768-.298-.373-1.293-.22-1.594.125-.251.263-.497.263-.497s-.12.034-.192.05a6.797 6.797 0 0 1-.188.039s-.365.596-.59.894c-.225.299-1.177 1.317-1.736 1.116-.56-.2-.424-.987-.11-1.612.51-1.014 1.723-2.255 2.453-2.07.73.184.127 1.387.127 1.387s.147.02.498-.22c.507-.344 1.175-1.274 1.9-1.165.339.05.658.4.219 1.062-.138.213-.37.404-.549.214-.11-.11-.014-.33.102-.473a.459.459 0 0 1 .391-.18s.12-.274-.183-.27c-.247 0-.87.58-1.221 1.161-.324.53-.813 1.44-.32 1.637.449.183 1.305-.836 1.702-1.368.397-.532 1.3-1.744 2.056-1.79a.503.503 0 0 1 .417.219l.088-.14h.757s-1.426 2.386-1.536 2.567c-.088.142-.204.459.119.28.322-.177.995-1.044.995-1.044l-.001-.003zm-5.876-.237a1.717 1.717 0 0 1-.39-.18.817.817 0 0 1-.279-.307c-.006-.014-.015 0-.021.007-.007.008-.048.062-.319.46-.27.396-.67 1.206-.294 1.345.24.09.643-.329.862-.61.163-.22.315-.446.454-.681.009-.024 0-.03-.013-.034zm.303-1.272c-.2-.151-.705.2-.706.56-.001.36.455.474.515.477 0 0 .052.012.072-.03.054-.107.103-.216.146-.329.07-.184.158-.542-.027-.682v.004zm3.86 1.98c.306-.418 1.149-1.889 1.149-1.889a.124.124 0 0 0-.11-.11c-.117 0-.31.034-.699.52-.338.399-.642.827-.908 1.278-.24.439-.345.745-.207.83a.207.207 0 0 0 .144.015c.09-.023.207-.11.369-.299a5.31 5.31 0 0 0 .26-.34l.002-.004zm3.4-2.272h-.72l-.405.659h.717l.409-.659zm10.618-1.18c-.53.343-1.267.651-1.975.583-.18.187-.37.4-.564.634 1.229.243 2.304-.517 2.875-1.166.208-.233.387-.491.532-.768-.26.272-.551.513-.868.716v.002zm-2.103 5.578c-.102.163-.22.474.118.281.41-.24.993-1.123.993-1.123h.262c-.239.37-.506.723-.798 1.053-.416.458-.922.878-1.279.836-.417-.048-.286-.596-.286-.596s-.598.636-1.01.59c-.555-.06-.386-.751-.386-.751s-.63.775-1.059.752c-.673-.04-.505-.863-.317-1.434.101-.31.193-.55.193-.55a1.8 1.8 0 0 1-.21.04c-.075.011-.211.019-.211.019a9.309 9.309 0 0 1-.504.791c-.22.3-1.175 1.317-1.737 1.116-.518-.188-.348-.987-.046-1.612.439-.92 1.678-2.24 2.393-2.068.74.18.017 1.536.017 1.536l.007.006c.048.01.097.008.143-.006.093-.019.183-.046.271-.081 0 0 .744-1.559 1.565-2.579.82-1.02 2.462-2.776 3.106-2.351.158.103.086.462-.126.9-.095.03-.192.056-.29.076.117-.195.206-.405.264-.625.095-.527-1.134.582-2.013 1.777-.529.721-.999 1.484-1.405 2.28.158-.096.31-.204.454-.322.392-.326.764-.675 1.116-1.045.338-.346.656-.713.95-1.097.094-.005.187-.015.279-.03-.32.436-.67.85-1.048 1.24-.348.355-.729.734-1.059 1.013-.296.25-.607.482-.933.691 0 0-.768 1.549-.352 1.646.247.057.732-.69.732-.69s.633-.967 1.015-1.403c.521-.592.969-.933 1.418-.94.26-.007.414.271.414.271l.122-.188h.76s-1.413 2.396-1.526 2.577h.003zM23.7 20.52a1.552 1.552 0 0 1-.347-.22 1.138 1.138 0 0 1-.263-.317c-.006-.012-.014 0-.022.008-.11.14-.214.287-.308.439-.27.397-.684 1.215-.307 1.354.238.089.64-.33.857-.61.148-.195.283-.4.402-.615.011-.022 0-.03-.012-.033v-.006zm.381-.664c.07-.181.16-.54-.026-.68s-.704.201-.707.56c-.003.359.358.536.44.558.048.013.064.012.09-.028.075-.132.141-.27.199-.41h.004zm4.341-.505a.257.257 0 0 0 .022-.052.124.124 0 0 0-.11-.11c-.117-.006-.276.02-.694.481a6.166 6.166 0 0 0-.888 1.262c-.24.44-.336.768-.198.847a.205.205 0 0 0 .144.015c.094-.022.199-.11.36-.296.076-.085.16-.208.258-.346.276-.378.97-1.564 1.108-1.803l-.002.002zm1.633-3.461c-.53.342-1.267.65-1.975.583-.18.186-.371.4-.564.634 1.229.242 2.304-.518 2.875-1.166.208-.234.387-.492.532-.769-.26.273-.551.513-.868.717v.001zm-3.45.89c-.58-.299-1.003-.659-1.446-.889-.422-.22-.694-.306-1.034-.261-.048.008-.095.02-.142.034 0 0 .177.6-.52 1.607-.699 1.009-1.348 1.017-1.53.733-.183-.283.054-.9.467-1.435.43-.562 1.187-1.028 1.187-1.028s-.241-.147-.835.188c-.593.334-1.575 1.105-2.498 2.42-.923 1.316-1.105 2.041-1.24 2.608-.133.566-.01 1.18.62 1.18.632 0 1.368-.965 1.575-1.3.385-.624.636-1.58.11-1.448-.259.063-.468.35-.6.625a2.609 2.609 0 0 0-.19.554 2.195 2.195 0 0 0-.512.298c-.173.129-.335.273-.483.43 0 0 0-.455.363-1.192.363-.737 1.03-1.074 1.406-1.106.34-.027.782.261.408 1.328-.374 1.066-1.477 2.358-2.64 2.369-1.07.017-1.773-1.352-.282-3.742 1.646-2.64 3.587-3.451 4.217-3.54.63-.089.833.187.833.187a2.692 2.692 0 0 1 1.195-.2c.768.054 1.364.595 2.146.976-.204.2-.398.404-.575.596v.008zm-2.86-1.045s-.45.181-.972.756-.826 1.225-.601 1.396c.087.066.285.077.648-.249.335-.29.598-.654.768-1.063.233-.57.16-.832.16-.84M30.08 21.268a.683.683 0 0 1 .351.6.69.69 0 0 1-.351.599.758.758 0 0 1-.729 0 .686.686 0 0 1 0-1.2.768.768 0 0 1 .729 0zm-.071 1.085a.508.508 0 0 0 .198-.199.606.606 0 0 0 0-.57.514.514 0 0 0-.2-.2.633.633 0 0 0-.583 0 .514.514 0 0 0-.2.2.606.606 0 0 0 0 .57.508.508 0 0 0 .199.199.628.628 0 0 0 .586 0zm-.024-.497a.195.195 0 0 1-.087.076l.169.242h-.187l-.142-.23h-.122v.228h-.164v-.626h.362a.19.19 0 0 1 .188.122c.01.024.014.05.013.076a.2.2 0 0 1-.03.112zm-.373-.05h.172a.068.068 0 0 0 .048-.016.057.057 0 0 0 .019-.044.059.059 0 0 0-.019-.045.068.068 0 0 0-.048-.016h-.172v.122z" fill="#fff"/>
    <path d="M101.871 11.066a8.067 8.067 0 0 1 5.705 13.768 8.069 8.069 0 0 1-8.79 1.748 8.064 8.064 0 0 1-4.979-7.452 8.074 8.074 0 0 1 8.064-8.064zm0-5.267a13.331 13.331 0 1 0 0 26.66 13.331 13.331 0 0 0 0-26.66zM85.633 29.355c-1.281.926-2.836 1.662-4.664 2.208-1.828.546-3.836.82-6.022.82-2.873 0-5.443-.564-7.71-1.692-2.267-1.128-4.03-2.695-5.288-4.701-1.26-2.006-1.888-4.28-1.887-6.82 0-2.56.621-4.857 1.865-6.89 1.244-2.033 2.959-3.618 5.145-4.755 2.19-1.14 4.637-1.71 7.345-1.71 2.207 0 4.225.32 6.054.962 1.828.641 3.359 1.532 4.593 2.672l-3.205 4.06c-2.066-1.756-4.534-2.634-7.407-2.634a9.08 9.08 0 0 0-4.327 1.05 7.906 7.906 0 0 0-3.116 2.938 8.039 8.039 0 0 0-1.14 4.239c0 1.59.392 3.009 1.176 4.255a7.988 7.988 0 0 0 3.275 2.92c1.402.697 2.993 1.045 4.773 1.045.89.008 1.778-.07 2.653-.232a11.265 11.265 0 0 0 2.403-.768V21.7h-6.944v-4.843h12.428v12.5zM57.428 20.352l-3.41-3.411-4.267 4.265-4.263-4.264.853-.853a6.035 6.035 0 1 0-8.529 0l.853.853-2.132 2.132a7.84 7.84 0 0 0 11.083 11.083l2.13-2.132 4.267 4.265 3.41-3.411-4.265-4.266 4.27-4.26zm-16.46-9.005a1.206 1.206 0 1 1 2.214.958 1.206 1.206 0 0 1-2.214-.958zM44.86 25.77a3.015 3.015 0 1 1-4.918-3.285l2.132-2.132 2.132 2.132a3.013 3.013 0 0 1 .653 3.285h.001z" fill="#000"/>
</svg>
