<svg xmlns="http://www.w3.org/2000/svg" width="32" height="23" fill="none" viewBox="0 0 32 23">
    <path stroke="#474747" stroke-miterlimit="10" stroke-width="1.602" d="M27.803 7.707h-.369l-2.95-6.062C24.36 1.258 23.869 1 23.5 1H2.107C1.492 1 1 1.516 1 2.16v13.415c0 .645.492 1.16 1.107 1.16h1.106c0 2.451 1.967 4.515 4.303 4.515s4.304-2.064 4.304-4.514h8.606c0 2.45 1.967 4.514 4.304 4.514 2.336 0 4.303-2.064 4.303-4.514h.86c.615 0 1.107-.516 1.107-1.161V11.06c0-1.806-1.475-3.354-3.197-3.354zm-8.73.516V3.709h2.583l2.09 4.514h-4.672z"/>
</svg>
